%TF.GenerationSoftware,KiCad,Pcbnew,(5.1.10)-1*%
%TF.CreationDate,2021-08-27T13:44:28+02:00*%
%TF.ProjectId,Pico-profile,5069636f-2d70-4726-9f66-696c652e6b69,rev?*%
%TF.SameCoordinates,Original*%
%TF.FileFunction,Soldermask,Top*%
%TF.FilePolarity,Negative*%
%FSLAX46Y46*%
G04 Gerber Fmt 4.6, Leading zero omitted, Abs format (unit mm)*
G04 Created by KiCad (PCBNEW (5.1.10)-1) date 2021-08-27 13:44:28*
%MOMM*%
%LPD*%
G01*
G04 APERTURE LIST*
%ADD10R,1.100000X1.100000*%
%ADD11O,3.600000X2.080000*%
%ADD12C,1.700000*%
%ADD13O,1.800000X1.600000*%
%ADD14O,1.800000X1.650000*%
%ADD15C,4.000000*%
%ADD16C,1.600000*%
%ADD17R,1.600000X1.600000*%
%ADD18R,1.900000X1.350000*%
%ADD19R,1.200000X1.000000*%
%ADD20R,1.550000X1.350000*%
%ADD21R,1.170000X1.800000*%
%ADD22R,0.850000X1.100000*%
%ADD23R,0.750000X1.100000*%
%ADD24O,1.700000X1.700000*%
%ADD25R,1.700000X3.500000*%
%ADD26R,1.700000X1.700000*%
%ADD27O,1.500000X1.500000*%
%ADD28O,1.800000X1.800000*%
%ADD29R,3.500000X1.700000*%
G04 APERTURE END LIST*
D10*
%TO.C,D1*%
X206151480Y-64536320D03*
X206151480Y-61736320D03*
%TD*%
D11*
%TO.C,J5*%
X211957920Y-76565760D03*
G36*
G01*
X213507921Y-82685760D02*
X210407919Y-82685760D01*
G75*
G02*
X210157920Y-82435761I0J249999D01*
G01*
X210157920Y-80855759D01*
G75*
G02*
X210407919Y-80605760I249999J0D01*
G01*
X213507921Y-80605760D01*
G75*
G02*
X213757920Y-80855759I0J-249999D01*
G01*
X213757920Y-82435761D01*
G75*
G02*
X213507921Y-82685760I-249999J0D01*
G01*
G37*
%TD*%
D12*
%TO.C,J1*%
X108585000Y-106045000D03*
D13*
X108585000Y-103505000D03*
X108585000Y-100965000D03*
D12*
X108585000Y-98425000D03*
X108585000Y-95885000D03*
X108585000Y-93345000D03*
D14*
X108585000Y-90805000D03*
D13*
X108585000Y-88265000D03*
X108585000Y-85725000D03*
D12*
X108585000Y-83185000D03*
D13*
X108585000Y-80645000D03*
X108585000Y-78105000D03*
X108585000Y-75565000D03*
D12*
X106045000Y-106045000D03*
X106045000Y-103505000D03*
X106045000Y-100965000D03*
D13*
X106045000Y-98425000D03*
X106045000Y-95885000D03*
X106045000Y-93345000D03*
D12*
X106045000Y-90805000D03*
X106045000Y-88265000D03*
X106045000Y-85725000D03*
X106045000Y-83185000D03*
X106045000Y-80645000D03*
X106045000Y-78105000D03*
G36*
G01*
X105195000Y-76165000D02*
X105195000Y-74965000D01*
G75*
G02*
X105445000Y-74715000I250000J0D01*
G01*
X106645000Y-74715000D01*
G75*
G02*
X106895000Y-74965000I0J-250000D01*
G01*
X106895000Y-76165000D01*
G75*
G02*
X106645000Y-76415000I-250000J0D01*
G01*
X105445000Y-76415000D01*
G75*
G02*
X105195000Y-76165000I0J250000D01*
G01*
G37*
%TD*%
D15*
%TO.C,J2*%
X118800000Y-65255000D03*
X165900000Y-65255000D03*
D16*
X157585000Y-63835000D03*
X154815000Y-63835000D03*
X152045000Y-63835000D03*
X149275000Y-63835000D03*
X146505000Y-63835000D03*
X143735000Y-63835000D03*
X140965000Y-63835000D03*
X138195000Y-63835000D03*
X135425000Y-63835000D03*
X132655000Y-63835000D03*
X129885000Y-63835000D03*
X127115000Y-63835000D03*
X158970000Y-66675000D03*
X156200000Y-66675000D03*
X153430000Y-66675000D03*
X150660000Y-66675000D03*
X147890000Y-66675000D03*
X145120000Y-66675000D03*
X142350000Y-66675000D03*
X139580000Y-66675000D03*
X136810000Y-66675000D03*
X134040000Y-66675000D03*
X131270000Y-66675000D03*
X128500000Y-66675000D03*
D17*
X125730000Y-66675000D03*
%TD*%
%TO.C,U3*%
G36*
G01*
X153266000Y-120289000D02*
X153566000Y-120289000D01*
G75*
G02*
X153716000Y-120439000I0J-150000D01*
G01*
X153716000Y-122189000D01*
G75*
G02*
X153566000Y-122339000I-150000J0D01*
G01*
X153266000Y-122339000D01*
G75*
G02*
X153116000Y-122189000I0J150000D01*
G01*
X153116000Y-120439000D01*
G75*
G02*
X153266000Y-120289000I150000J0D01*
G01*
G37*
G36*
G01*
X151996000Y-120289000D02*
X152296000Y-120289000D01*
G75*
G02*
X152446000Y-120439000I0J-150000D01*
G01*
X152446000Y-122189000D01*
G75*
G02*
X152296000Y-122339000I-150000J0D01*
G01*
X151996000Y-122339000D01*
G75*
G02*
X151846000Y-122189000I0J150000D01*
G01*
X151846000Y-120439000D01*
G75*
G02*
X151996000Y-120289000I150000J0D01*
G01*
G37*
G36*
G01*
X150726000Y-120289000D02*
X151026000Y-120289000D01*
G75*
G02*
X151176000Y-120439000I0J-150000D01*
G01*
X151176000Y-122189000D01*
G75*
G02*
X151026000Y-122339000I-150000J0D01*
G01*
X150726000Y-122339000D01*
G75*
G02*
X150576000Y-122189000I0J150000D01*
G01*
X150576000Y-120439000D01*
G75*
G02*
X150726000Y-120289000I150000J0D01*
G01*
G37*
G36*
G01*
X149456000Y-120289000D02*
X149756000Y-120289000D01*
G75*
G02*
X149906000Y-120439000I0J-150000D01*
G01*
X149906000Y-122189000D01*
G75*
G02*
X149756000Y-122339000I-150000J0D01*
G01*
X149456000Y-122339000D01*
G75*
G02*
X149306000Y-122189000I0J150000D01*
G01*
X149306000Y-120439000D01*
G75*
G02*
X149456000Y-120289000I150000J0D01*
G01*
G37*
G36*
G01*
X148186000Y-120289000D02*
X148486000Y-120289000D01*
G75*
G02*
X148636000Y-120439000I0J-150000D01*
G01*
X148636000Y-122189000D01*
G75*
G02*
X148486000Y-122339000I-150000J0D01*
G01*
X148186000Y-122339000D01*
G75*
G02*
X148036000Y-122189000I0J150000D01*
G01*
X148036000Y-120439000D01*
G75*
G02*
X148186000Y-120289000I150000J0D01*
G01*
G37*
G36*
G01*
X146916000Y-120289000D02*
X147216000Y-120289000D01*
G75*
G02*
X147366000Y-120439000I0J-150000D01*
G01*
X147366000Y-122189000D01*
G75*
G02*
X147216000Y-122339000I-150000J0D01*
G01*
X146916000Y-122339000D01*
G75*
G02*
X146766000Y-122189000I0J150000D01*
G01*
X146766000Y-120439000D01*
G75*
G02*
X146916000Y-120289000I150000J0D01*
G01*
G37*
G36*
G01*
X145646000Y-120289000D02*
X145946000Y-120289000D01*
G75*
G02*
X146096000Y-120439000I0J-150000D01*
G01*
X146096000Y-122189000D01*
G75*
G02*
X145946000Y-122339000I-150000J0D01*
G01*
X145646000Y-122339000D01*
G75*
G02*
X145496000Y-122189000I0J150000D01*
G01*
X145496000Y-120439000D01*
G75*
G02*
X145646000Y-120289000I150000J0D01*
G01*
G37*
G36*
G01*
X144376000Y-120289000D02*
X144676000Y-120289000D01*
G75*
G02*
X144826000Y-120439000I0J-150000D01*
G01*
X144826000Y-122189000D01*
G75*
G02*
X144676000Y-122339000I-150000J0D01*
G01*
X144376000Y-122339000D01*
G75*
G02*
X144226000Y-122189000I0J150000D01*
G01*
X144226000Y-120439000D01*
G75*
G02*
X144376000Y-120289000I150000J0D01*
G01*
G37*
G36*
G01*
X143106000Y-120289000D02*
X143406000Y-120289000D01*
G75*
G02*
X143556000Y-120439000I0J-150000D01*
G01*
X143556000Y-122189000D01*
G75*
G02*
X143406000Y-122339000I-150000J0D01*
G01*
X143106000Y-122339000D01*
G75*
G02*
X142956000Y-122189000I0J150000D01*
G01*
X142956000Y-120439000D01*
G75*
G02*
X143106000Y-120289000I150000J0D01*
G01*
G37*
G36*
G01*
X141836000Y-120289000D02*
X142136000Y-120289000D01*
G75*
G02*
X142286000Y-120439000I0J-150000D01*
G01*
X142286000Y-122189000D01*
G75*
G02*
X142136000Y-122339000I-150000J0D01*
G01*
X141836000Y-122339000D01*
G75*
G02*
X141686000Y-122189000I0J150000D01*
G01*
X141686000Y-120439000D01*
G75*
G02*
X141836000Y-120289000I150000J0D01*
G01*
G37*
G36*
G01*
X141836000Y-110989000D02*
X142136000Y-110989000D01*
G75*
G02*
X142286000Y-111139000I0J-150000D01*
G01*
X142286000Y-112889000D01*
G75*
G02*
X142136000Y-113039000I-150000J0D01*
G01*
X141836000Y-113039000D01*
G75*
G02*
X141686000Y-112889000I0J150000D01*
G01*
X141686000Y-111139000D01*
G75*
G02*
X141836000Y-110989000I150000J0D01*
G01*
G37*
G36*
G01*
X143106000Y-110989000D02*
X143406000Y-110989000D01*
G75*
G02*
X143556000Y-111139000I0J-150000D01*
G01*
X143556000Y-112889000D01*
G75*
G02*
X143406000Y-113039000I-150000J0D01*
G01*
X143106000Y-113039000D01*
G75*
G02*
X142956000Y-112889000I0J150000D01*
G01*
X142956000Y-111139000D01*
G75*
G02*
X143106000Y-110989000I150000J0D01*
G01*
G37*
G36*
G01*
X144376000Y-110989000D02*
X144676000Y-110989000D01*
G75*
G02*
X144826000Y-111139000I0J-150000D01*
G01*
X144826000Y-112889000D01*
G75*
G02*
X144676000Y-113039000I-150000J0D01*
G01*
X144376000Y-113039000D01*
G75*
G02*
X144226000Y-112889000I0J150000D01*
G01*
X144226000Y-111139000D01*
G75*
G02*
X144376000Y-110989000I150000J0D01*
G01*
G37*
G36*
G01*
X145646000Y-110989000D02*
X145946000Y-110989000D01*
G75*
G02*
X146096000Y-111139000I0J-150000D01*
G01*
X146096000Y-112889000D01*
G75*
G02*
X145946000Y-113039000I-150000J0D01*
G01*
X145646000Y-113039000D01*
G75*
G02*
X145496000Y-112889000I0J150000D01*
G01*
X145496000Y-111139000D01*
G75*
G02*
X145646000Y-110989000I150000J0D01*
G01*
G37*
G36*
G01*
X146916000Y-110989000D02*
X147216000Y-110989000D01*
G75*
G02*
X147366000Y-111139000I0J-150000D01*
G01*
X147366000Y-112889000D01*
G75*
G02*
X147216000Y-113039000I-150000J0D01*
G01*
X146916000Y-113039000D01*
G75*
G02*
X146766000Y-112889000I0J150000D01*
G01*
X146766000Y-111139000D01*
G75*
G02*
X146916000Y-110989000I150000J0D01*
G01*
G37*
G36*
G01*
X148186000Y-110989000D02*
X148486000Y-110989000D01*
G75*
G02*
X148636000Y-111139000I0J-150000D01*
G01*
X148636000Y-112889000D01*
G75*
G02*
X148486000Y-113039000I-150000J0D01*
G01*
X148186000Y-113039000D01*
G75*
G02*
X148036000Y-112889000I0J150000D01*
G01*
X148036000Y-111139000D01*
G75*
G02*
X148186000Y-110989000I150000J0D01*
G01*
G37*
G36*
G01*
X149456000Y-110989000D02*
X149756000Y-110989000D01*
G75*
G02*
X149906000Y-111139000I0J-150000D01*
G01*
X149906000Y-112889000D01*
G75*
G02*
X149756000Y-113039000I-150000J0D01*
G01*
X149456000Y-113039000D01*
G75*
G02*
X149306000Y-112889000I0J150000D01*
G01*
X149306000Y-111139000D01*
G75*
G02*
X149456000Y-110989000I150000J0D01*
G01*
G37*
G36*
G01*
X150726000Y-110989000D02*
X151026000Y-110989000D01*
G75*
G02*
X151176000Y-111139000I0J-150000D01*
G01*
X151176000Y-112889000D01*
G75*
G02*
X151026000Y-113039000I-150000J0D01*
G01*
X150726000Y-113039000D01*
G75*
G02*
X150576000Y-112889000I0J150000D01*
G01*
X150576000Y-111139000D01*
G75*
G02*
X150726000Y-110989000I150000J0D01*
G01*
G37*
G36*
G01*
X151996000Y-110989000D02*
X152296000Y-110989000D01*
G75*
G02*
X152446000Y-111139000I0J-150000D01*
G01*
X152446000Y-112889000D01*
G75*
G02*
X152296000Y-113039000I-150000J0D01*
G01*
X151996000Y-113039000D01*
G75*
G02*
X151846000Y-112889000I0J150000D01*
G01*
X151846000Y-111139000D01*
G75*
G02*
X151996000Y-110989000I150000J0D01*
G01*
G37*
G36*
G01*
X153266000Y-110989000D02*
X153566000Y-110989000D01*
G75*
G02*
X153716000Y-111139000I0J-150000D01*
G01*
X153716000Y-112889000D01*
G75*
G02*
X153566000Y-113039000I-150000J0D01*
G01*
X153266000Y-113039000D01*
G75*
G02*
X153116000Y-112889000I0J150000D01*
G01*
X153116000Y-111139000D01*
G75*
G02*
X153266000Y-110989000I150000J0D01*
G01*
G37*
%TD*%
%TO.C,U2*%
G36*
G01*
X153266000Y-104541000D02*
X153566000Y-104541000D01*
G75*
G02*
X153716000Y-104691000I0J-150000D01*
G01*
X153716000Y-106441000D01*
G75*
G02*
X153566000Y-106591000I-150000J0D01*
G01*
X153266000Y-106591000D01*
G75*
G02*
X153116000Y-106441000I0J150000D01*
G01*
X153116000Y-104691000D01*
G75*
G02*
X153266000Y-104541000I150000J0D01*
G01*
G37*
G36*
G01*
X151996000Y-104541000D02*
X152296000Y-104541000D01*
G75*
G02*
X152446000Y-104691000I0J-150000D01*
G01*
X152446000Y-106441000D01*
G75*
G02*
X152296000Y-106591000I-150000J0D01*
G01*
X151996000Y-106591000D01*
G75*
G02*
X151846000Y-106441000I0J150000D01*
G01*
X151846000Y-104691000D01*
G75*
G02*
X151996000Y-104541000I150000J0D01*
G01*
G37*
G36*
G01*
X150726000Y-104541000D02*
X151026000Y-104541000D01*
G75*
G02*
X151176000Y-104691000I0J-150000D01*
G01*
X151176000Y-106441000D01*
G75*
G02*
X151026000Y-106591000I-150000J0D01*
G01*
X150726000Y-106591000D01*
G75*
G02*
X150576000Y-106441000I0J150000D01*
G01*
X150576000Y-104691000D01*
G75*
G02*
X150726000Y-104541000I150000J0D01*
G01*
G37*
G36*
G01*
X149456000Y-104541000D02*
X149756000Y-104541000D01*
G75*
G02*
X149906000Y-104691000I0J-150000D01*
G01*
X149906000Y-106441000D01*
G75*
G02*
X149756000Y-106591000I-150000J0D01*
G01*
X149456000Y-106591000D01*
G75*
G02*
X149306000Y-106441000I0J150000D01*
G01*
X149306000Y-104691000D01*
G75*
G02*
X149456000Y-104541000I150000J0D01*
G01*
G37*
G36*
G01*
X148186000Y-104541000D02*
X148486000Y-104541000D01*
G75*
G02*
X148636000Y-104691000I0J-150000D01*
G01*
X148636000Y-106441000D01*
G75*
G02*
X148486000Y-106591000I-150000J0D01*
G01*
X148186000Y-106591000D01*
G75*
G02*
X148036000Y-106441000I0J150000D01*
G01*
X148036000Y-104691000D01*
G75*
G02*
X148186000Y-104541000I150000J0D01*
G01*
G37*
G36*
G01*
X146916000Y-104541000D02*
X147216000Y-104541000D01*
G75*
G02*
X147366000Y-104691000I0J-150000D01*
G01*
X147366000Y-106441000D01*
G75*
G02*
X147216000Y-106591000I-150000J0D01*
G01*
X146916000Y-106591000D01*
G75*
G02*
X146766000Y-106441000I0J150000D01*
G01*
X146766000Y-104691000D01*
G75*
G02*
X146916000Y-104541000I150000J0D01*
G01*
G37*
G36*
G01*
X145646000Y-104541000D02*
X145946000Y-104541000D01*
G75*
G02*
X146096000Y-104691000I0J-150000D01*
G01*
X146096000Y-106441000D01*
G75*
G02*
X145946000Y-106591000I-150000J0D01*
G01*
X145646000Y-106591000D01*
G75*
G02*
X145496000Y-106441000I0J150000D01*
G01*
X145496000Y-104691000D01*
G75*
G02*
X145646000Y-104541000I150000J0D01*
G01*
G37*
G36*
G01*
X144376000Y-104541000D02*
X144676000Y-104541000D01*
G75*
G02*
X144826000Y-104691000I0J-150000D01*
G01*
X144826000Y-106441000D01*
G75*
G02*
X144676000Y-106591000I-150000J0D01*
G01*
X144376000Y-106591000D01*
G75*
G02*
X144226000Y-106441000I0J150000D01*
G01*
X144226000Y-104691000D01*
G75*
G02*
X144376000Y-104541000I150000J0D01*
G01*
G37*
G36*
G01*
X143106000Y-104541000D02*
X143406000Y-104541000D01*
G75*
G02*
X143556000Y-104691000I0J-150000D01*
G01*
X143556000Y-106441000D01*
G75*
G02*
X143406000Y-106591000I-150000J0D01*
G01*
X143106000Y-106591000D01*
G75*
G02*
X142956000Y-106441000I0J150000D01*
G01*
X142956000Y-104691000D01*
G75*
G02*
X143106000Y-104541000I150000J0D01*
G01*
G37*
G36*
G01*
X141836000Y-104541000D02*
X142136000Y-104541000D01*
G75*
G02*
X142286000Y-104691000I0J-150000D01*
G01*
X142286000Y-106441000D01*
G75*
G02*
X142136000Y-106591000I-150000J0D01*
G01*
X141836000Y-106591000D01*
G75*
G02*
X141686000Y-106441000I0J150000D01*
G01*
X141686000Y-104691000D01*
G75*
G02*
X141836000Y-104541000I150000J0D01*
G01*
G37*
G36*
G01*
X141836000Y-95241000D02*
X142136000Y-95241000D01*
G75*
G02*
X142286000Y-95391000I0J-150000D01*
G01*
X142286000Y-97141000D01*
G75*
G02*
X142136000Y-97291000I-150000J0D01*
G01*
X141836000Y-97291000D01*
G75*
G02*
X141686000Y-97141000I0J150000D01*
G01*
X141686000Y-95391000D01*
G75*
G02*
X141836000Y-95241000I150000J0D01*
G01*
G37*
G36*
G01*
X143106000Y-95241000D02*
X143406000Y-95241000D01*
G75*
G02*
X143556000Y-95391000I0J-150000D01*
G01*
X143556000Y-97141000D01*
G75*
G02*
X143406000Y-97291000I-150000J0D01*
G01*
X143106000Y-97291000D01*
G75*
G02*
X142956000Y-97141000I0J150000D01*
G01*
X142956000Y-95391000D01*
G75*
G02*
X143106000Y-95241000I150000J0D01*
G01*
G37*
G36*
G01*
X144376000Y-95241000D02*
X144676000Y-95241000D01*
G75*
G02*
X144826000Y-95391000I0J-150000D01*
G01*
X144826000Y-97141000D01*
G75*
G02*
X144676000Y-97291000I-150000J0D01*
G01*
X144376000Y-97291000D01*
G75*
G02*
X144226000Y-97141000I0J150000D01*
G01*
X144226000Y-95391000D01*
G75*
G02*
X144376000Y-95241000I150000J0D01*
G01*
G37*
G36*
G01*
X145646000Y-95241000D02*
X145946000Y-95241000D01*
G75*
G02*
X146096000Y-95391000I0J-150000D01*
G01*
X146096000Y-97141000D01*
G75*
G02*
X145946000Y-97291000I-150000J0D01*
G01*
X145646000Y-97291000D01*
G75*
G02*
X145496000Y-97141000I0J150000D01*
G01*
X145496000Y-95391000D01*
G75*
G02*
X145646000Y-95241000I150000J0D01*
G01*
G37*
G36*
G01*
X146916000Y-95241000D02*
X147216000Y-95241000D01*
G75*
G02*
X147366000Y-95391000I0J-150000D01*
G01*
X147366000Y-97141000D01*
G75*
G02*
X147216000Y-97291000I-150000J0D01*
G01*
X146916000Y-97291000D01*
G75*
G02*
X146766000Y-97141000I0J150000D01*
G01*
X146766000Y-95391000D01*
G75*
G02*
X146916000Y-95241000I150000J0D01*
G01*
G37*
G36*
G01*
X148186000Y-95241000D02*
X148486000Y-95241000D01*
G75*
G02*
X148636000Y-95391000I0J-150000D01*
G01*
X148636000Y-97141000D01*
G75*
G02*
X148486000Y-97291000I-150000J0D01*
G01*
X148186000Y-97291000D01*
G75*
G02*
X148036000Y-97141000I0J150000D01*
G01*
X148036000Y-95391000D01*
G75*
G02*
X148186000Y-95241000I150000J0D01*
G01*
G37*
G36*
G01*
X149456000Y-95241000D02*
X149756000Y-95241000D01*
G75*
G02*
X149906000Y-95391000I0J-150000D01*
G01*
X149906000Y-97141000D01*
G75*
G02*
X149756000Y-97291000I-150000J0D01*
G01*
X149456000Y-97291000D01*
G75*
G02*
X149306000Y-97141000I0J150000D01*
G01*
X149306000Y-95391000D01*
G75*
G02*
X149456000Y-95241000I150000J0D01*
G01*
G37*
G36*
G01*
X150726000Y-95241000D02*
X151026000Y-95241000D01*
G75*
G02*
X151176000Y-95391000I0J-150000D01*
G01*
X151176000Y-97141000D01*
G75*
G02*
X151026000Y-97291000I-150000J0D01*
G01*
X150726000Y-97291000D01*
G75*
G02*
X150576000Y-97141000I0J150000D01*
G01*
X150576000Y-95391000D01*
G75*
G02*
X150726000Y-95241000I150000J0D01*
G01*
G37*
G36*
G01*
X151996000Y-95241000D02*
X152296000Y-95241000D01*
G75*
G02*
X152446000Y-95391000I0J-150000D01*
G01*
X152446000Y-97141000D01*
G75*
G02*
X152296000Y-97291000I-150000J0D01*
G01*
X151996000Y-97291000D01*
G75*
G02*
X151846000Y-97141000I0J150000D01*
G01*
X151846000Y-95391000D01*
G75*
G02*
X151996000Y-95241000I150000J0D01*
G01*
G37*
G36*
G01*
X153266000Y-95241000D02*
X153566000Y-95241000D01*
G75*
G02*
X153716000Y-95391000I0J-150000D01*
G01*
X153716000Y-97141000D01*
G75*
G02*
X153566000Y-97291000I-150000J0D01*
G01*
X153266000Y-97291000D01*
G75*
G02*
X153116000Y-97141000I0J150000D01*
G01*
X153116000Y-95391000D01*
G75*
G02*
X153266000Y-95241000I150000J0D01*
G01*
G37*
%TD*%
D18*
%TO.C,J3*%
X187476400Y-121056400D03*
X193446400Y-121056400D03*
D19*
X196946400Y-125731400D03*
X196946400Y-122031400D03*
D20*
X196771400Y-131756400D03*
D21*
X185451400Y-131531400D03*
D22*
X187711400Y-131881400D03*
X188811400Y-131881400D03*
X189911400Y-131881400D03*
X191011400Y-131881400D03*
X192111400Y-131881400D03*
X193211400Y-131881400D03*
D23*
X186661400Y-131881400D03*
D22*
X194311400Y-131881400D03*
%TD*%
D24*
%TO.C,U7*%
X194411600Y-107212000D03*
D25*
X194411600Y-108112000D03*
D26*
X191871600Y-107212000D03*
D25*
X191871600Y-108112000D03*
D24*
X189331600Y-107212000D03*
D25*
X189331600Y-108112000D03*
D27*
X194296600Y-62342000D03*
X189446600Y-62342000D03*
D28*
X194596600Y-59312000D03*
X189146600Y-59312000D03*
D29*
X201661600Y-107442000D03*
X201661600Y-104902000D03*
X201661600Y-102362000D03*
X201661600Y-99822000D03*
X201661600Y-97282000D03*
X201661600Y-94742000D03*
X201661600Y-92202000D03*
X201661600Y-89662000D03*
X201661600Y-87122000D03*
X201661600Y-84582000D03*
X201661600Y-82042000D03*
X201661600Y-79502000D03*
X201661600Y-76962000D03*
X201661600Y-74422000D03*
X201661600Y-71882000D03*
X201661600Y-69342000D03*
X201661600Y-66802000D03*
X201661600Y-64262000D03*
X201661600Y-61722000D03*
X201661600Y-59182000D03*
X182081600Y-107442000D03*
X182081600Y-104902000D03*
X182081600Y-102362000D03*
X182081600Y-99822000D03*
X182081600Y-97282000D03*
X182081600Y-94742000D03*
X182081600Y-92202000D03*
X182081600Y-89662000D03*
X182081600Y-87122000D03*
X182081600Y-84582000D03*
X182081600Y-82042000D03*
X182081600Y-79502000D03*
X182081600Y-76962000D03*
X182081600Y-74422000D03*
X182081600Y-71882000D03*
X182081600Y-69342000D03*
X182081600Y-66802000D03*
X182081600Y-64262000D03*
X182081600Y-61722000D03*
X182081600Y-59182000D03*
D24*
X200761600Y-59182000D03*
X200761600Y-61722000D03*
D26*
X200761600Y-64262000D03*
D24*
X200761600Y-66802000D03*
X200761600Y-69342000D03*
X200761600Y-71882000D03*
X200761600Y-74422000D03*
D26*
X200761600Y-76962000D03*
D24*
X200761600Y-79502000D03*
X200761600Y-82042000D03*
X200761600Y-84582000D03*
X200761600Y-87122000D03*
D26*
X200761600Y-89662000D03*
D24*
X200761600Y-92202000D03*
X200761600Y-94742000D03*
X200761600Y-97282000D03*
X200761600Y-99822000D03*
D26*
X200761600Y-102362000D03*
D24*
X200761600Y-104902000D03*
X200761600Y-107442000D03*
X182981600Y-107442000D03*
X182981600Y-104902000D03*
D26*
X182981600Y-102362000D03*
D24*
X182981600Y-99822000D03*
X182981600Y-97282000D03*
X182981600Y-94742000D03*
X182981600Y-92202000D03*
D26*
X182981600Y-89662000D03*
D24*
X182981600Y-87122000D03*
X182981600Y-84582000D03*
X182981600Y-82042000D03*
X182981600Y-79502000D03*
D26*
X182981600Y-76962000D03*
D24*
X182981600Y-74422000D03*
X182981600Y-71882000D03*
X182981600Y-69342000D03*
X182981600Y-66802000D03*
D26*
X182981600Y-64262000D03*
D24*
X182981600Y-61722000D03*
X182981600Y-59182000D03*
%TD*%
%TO.C,U1*%
G36*
G01*
X123911000Y-101450000D02*
X123911000Y-101750000D01*
G75*
G02*
X123761000Y-101900000I-150000J0D01*
G01*
X122111000Y-101900000D01*
G75*
G02*
X121961000Y-101750000I0J150000D01*
G01*
X121961000Y-101450000D01*
G75*
G02*
X122111000Y-101300000I150000J0D01*
G01*
X123761000Y-101300000D01*
G75*
G02*
X123911000Y-101450000I0J-150000D01*
G01*
G37*
G36*
G01*
X123911000Y-100180000D02*
X123911000Y-100480000D01*
G75*
G02*
X123761000Y-100630000I-150000J0D01*
G01*
X122111000Y-100630000D01*
G75*
G02*
X121961000Y-100480000I0J150000D01*
G01*
X121961000Y-100180000D01*
G75*
G02*
X122111000Y-100030000I150000J0D01*
G01*
X123761000Y-100030000D01*
G75*
G02*
X123911000Y-100180000I0J-150000D01*
G01*
G37*
G36*
G01*
X123911000Y-98910000D02*
X123911000Y-99210000D01*
G75*
G02*
X123761000Y-99360000I-150000J0D01*
G01*
X122111000Y-99360000D01*
G75*
G02*
X121961000Y-99210000I0J150000D01*
G01*
X121961000Y-98910000D01*
G75*
G02*
X122111000Y-98760000I150000J0D01*
G01*
X123761000Y-98760000D01*
G75*
G02*
X123911000Y-98910000I0J-150000D01*
G01*
G37*
G36*
G01*
X123911000Y-97640000D02*
X123911000Y-97940000D01*
G75*
G02*
X123761000Y-98090000I-150000J0D01*
G01*
X122111000Y-98090000D01*
G75*
G02*
X121961000Y-97940000I0J150000D01*
G01*
X121961000Y-97640000D01*
G75*
G02*
X122111000Y-97490000I150000J0D01*
G01*
X123761000Y-97490000D01*
G75*
G02*
X123911000Y-97640000I0J-150000D01*
G01*
G37*
G36*
G01*
X123911000Y-96370000D02*
X123911000Y-96670000D01*
G75*
G02*
X123761000Y-96820000I-150000J0D01*
G01*
X122111000Y-96820000D01*
G75*
G02*
X121961000Y-96670000I0J150000D01*
G01*
X121961000Y-96370000D01*
G75*
G02*
X122111000Y-96220000I150000J0D01*
G01*
X123761000Y-96220000D01*
G75*
G02*
X123911000Y-96370000I0J-150000D01*
G01*
G37*
G36*
G01*
X123911000Y-95100000D02*
X123911000Y-95400000D01*
G75*
G02*
X123761000Y-95550000I-150000J0D01*
G01*
X122111000Y-95550000D01*
G75*
G02*
X121961000Y-95400000I0J150000D01*
G01*
X121961000Y-95100000D01*
G75*
G02*
X122111000Y-94950000I150000J0D01*
G01*
X123761000Y-94950000D01*
G75*
G02*
X123911000Y-95100000I0J-150000D01*
G01*
G37*
G36*
G01*
X123911000Y-93830000D02*
X123911000Y-94130000D01*
G75*
G02*
X123761000Y-94280000I-150000J0D01*
G01*
X122111000Y-94280000D01*
G75*
G02*
X121961000Y-94130000I0J150000D01*
G01*
X121961000Y-93830000D01*
G75*
G02*
X122111000Y-93680000I150000J0D01*
G01*
X123761000Y-93680000D01*
G75*
G02*
X123911000Y-93830000I0J-150000D01*
G01*
G37*
G36*
G01*
X128861000Y-93830000D02*
X128861000Y-94130000D01*
G75*
G02*
X128711000Y-94280000I-150000J0D01*
G01*
X127061000Y-94280000D01*
G75*
G02*
X126911000Y-94130000I0J150000D01*
G01*
X126911000Y-93830000D01*
G75*
G02*
X127061000Y-93680000I150000J0D01*
G01*
X128711000Y-93680000D01*
G75*
G02*
X128861000Y-93830000I0J-150000D01*
G01*
G37*
G36*
G01*
X128861000Y-95100000D02*
X128861000Y-95400000D01*
G75*
G02*
X128711000Y-95550000I-150000J0D01*
G01*
X127061000Y-95550000D01*
G75*
G02*
X126911000Y-95400000I0J150000D01*
G01*
X126911000Y-95100000D01*
G75*
G02*
X127061000Y-94950000I150000J0D01*
G01*
X128711000Y-94950000D01*
G75*
G02*
X128861000Y-95100000I0J-150000D01*
G01*
G37*
G36*
G01*
X128861000Y-96370000D02*
X128861000Y-96670000D01*
G75*
G02*
X128711000Y-96820000I-150000J0D01*
G01*
X127061000Y-96820000D01*
G75*
G02*
X126911000Y-96670000I0J150000D01*
G01*
X126911000Y-96370000D01*
G75*
G02*
X127061000Y-96220000I150000J0D01*
G01*
X128711000Y-96220000D01*
G75*
G02*
X128861000Y-96370000I0J-150000D01*
G01*
G37*
G36*
G01*
X128861000Y-97640000D02*
X128861000Y-97940000D01*
G75*
G02*
X128711000Y-98090000I-150000J0D01*
G01*
X127061000Y-98090000D01*
G75*
G02*
X126911000Y-97940000I0J150000D01*
G01*
X126911000Y-97640000D01*
G75*
G02*
X127061000Y-97490000I150000J0D01*
G01*
X128711000Y-97490000D01*
G75*
G02*
X128861000Y-97640000I0J-150000D01*
G01*
G37*
G36*
G01*
X128861000Y-98910000D02*
X128861000Y-99210000D01*
G75*
G02*
X128711000Y-99360000I-150000J0D01*
G01*
X127061000Y-99360000D01*
G75*
G02*
X126911000Y-99210000I0J150000D01*
G01*
X126911000Y-98910000D01*
G75*
G02*
X127061000Y-98760000I150000J0D01*
G01*
X128711000Y-98760000D01*
G75*
G02*
X128861000Y-98910000I0J-150000D01*
G01*
G37*
G36*
G01*
X128861000Y-100180000D02*
X128861000Y-100480000D01*
G75*
G02*
X128711000Y-100630000I-150000J0D01*
G01*
X127061000Y-100630000D01*
G75*
G02*
X126911000Y-100480000I0J150000D01*
G01*
X126911000Y-100180000D01*
G75*
G02*
X127061000Y-100030000I150000J0D01*
G01*
X128711000Y-100030000D01*
G75*
G02*
X128861000Y-100180000I0J-150000D01*
G01*
G37*
G36*
G01*
X128861000Y-101450000D02*
X128861000Y-101750000D01*
G75*
G02*
X128711000Y-101900000I-150000J0D01*
G01*
X127061000Y-101900000D01*
G75*
G02*
X126911000Y-101750000I0J150000D01*
G01*
X126911000Y-101450000D01*
G75*
G02*
X127061000Y-101300000I150000J0D01*
G01*
X128711000Y-101300000D01*
G75*
G02*
X128861000Y-101450000I0J-150000D01*
G01*
G37*
%TD*%
%TO.C,R5*%
G36*
G01*
X181642200Y-126217000D02*
X181642200Y-126767000D01*
G75*
G02*
X181442200Y-126967000I-200000J0D01*
G01*
X181042200Y-126967000D01*
G75*
G02*
X180842200Y-126767000I0J200000D01*
G01*
X180842200Y-126217000D01*
G75*
G02*
X181042200Y-126017000I200000J0D01*
G01*
X181442200Y-126017000D01*
G75*
G02*
X181642200Y-126217000I0J-200000D01*
G01*
G37*
G36*
G01*
X183292200Y-126217000D02*
X183292200Y-126767000D01*
G75*
G02*
X183092200Y-126967000I-200000J0D01*
G01*
X182692200Y-126967000D01*
G75*
G02*
X182492200Y-126767000I0J200000D01*
G01*
X182492200Y-126217000D01*
G75*
G02*
X182692200Y-126017000I200000J0D01*
G01*
X183092200Y-126017000D01*
G75*
G02*
X183292200Y-126217000I0J-200000D01*
G01*
G37*
%TD*%
%TO.C,R4*%
G36*
G01*
X181630000Y-122864200D02*
X181630000Y-123414200D01*
G75*
G02*
X181430000Y-123614200I-200000J0D01*
G01*
X181030000Y-123614200D01*
G75*
G02*
X180830000Y-123414200I0J200000D01*
G01*
X180830000Y-122864200D01*
G75*
G02*
X181030000Y-122664200I200000J0D01*
G01*
X181430000Y-122664200D01*
G75*
G02*
X181630000Y-122864200I0J-200000D01*
G01*
G37*
G36*
G01*
X183280000Y-122864200D02*
X183280000Y-123414200D01*
G75*
G02*
X183080000Y-123614200I-200000J0D01*
G01*
X182680000Y-123614200D01*
G75*
G02*
X182480000Y-123414200I0J200000D01*
G01*
X182480000Y-122864200D01*
G75*
G02*
X182680000Y-122664200I200000J0D01*
G01*
X183080000Y-122664200D01*
G75*
G02*
X183280000Y-122864200I0J-200000D01*
G01*
G37*
%TD*%
%TO.C,R3*%
G36*
G01*
X199560000Y-124783400D02*
X200110000Y-124783400D01*
G75*
G02*
X200310000Y-124983400I0J-200000D01*
G01*
X200310000Y-125383400D01*
G75*
G02*
X200110000Y-125583400I-200000J0D01*
G01*
X199560000Y-125583400D01*
G75*
G02*
X199360000Y-125383400I0J200000D01*
G01*
X199360000Y-124983400D01*
G75*
G02*
X199560000Y-124783400I200000J0D01*
G01*
G37*
G36*
G01*
X199560000Y-123133400D02*
X200110000Y-123133400D01*
G75*
G02*
X200310000Y-123333400I0J-200000D01*
G01*
X200310000Y-123733400D01*
G75*
G02*
X200110000Y-123933400I-200000J0D01*
G01*
X199560000Y-123933400D01*
G75*
G02*
X199360000Y-123733400I0J200000D01*
G01*
X199360000Y-123333400D01*
G75*
G02*
X199560000Y-123133400I200000J0D01*
G01*
G37*
%TD*%
%TO.C,R2*%
G36*
G01*
X199572200Y-130066600D02*
X200122200Y-130066600D01*
G75*
G02*
X200322200Y-130266600I0J-200000D01*
G01*
X200322200Y-130666600D01*
G75*
G02*
X200122200Y-130866600I-200000J0D01*
G01*
X199572200Y-130866600D01*
G75*
G02*
X199372200Y-130666600I0J200000D01*
G01*
X199372200Y-130266600D01*
G75*
G02*
X199572200Y-130066600I200000J0D01*
G01*
G37*
G36*
G01*
X199572200Y-128416600D02*
X200122200Y-128416600D01*
G75*
G02*
X200322200Y-128616600I0J-200000D01*
G01*
X200322200Y-129016600D01*
G75*
G02*
X200122200Y-129216600I-200000J0D01*
G01*
X199572200Y-129216600D01*
G75*
G02*
X199372200Y-129016600I0J200000D01*
G01*
X199372200Y-128616600D01*
G75*
G02*
X199572200Y-128416600I200000J0D01*
G01*
G37*
%TD*%
%TO.C,J4*%
X170535600Y-100888800D03*
X170535600Y-98348800D03*
X170535600Y-95808800D03*
D26*
X170535600Y-93268800D03*
%TD*%
%TO.C,C6*%
G36*
G01*
X152316000Y-124718000D02*
X152316000Y-125218000D01*
G75*
G02*
X152091000Y-125443000I-225000J0D01*
G01*
X151641000Y-125443000D01*
G75*
G02*
X151416000Y-125218000I0J225000D01*
G01*
X151416000Y-124718000D01*
G75*
G02*
X151641000Y-124493000I225000J0D01*
G01*
X152091000Y-124493000D01*
G75*
G02*
X152316000Y-124718000I0J-225000D01*
G01*
G37*
G36*
G01*
X153866000Y-124718000D02*
X153866000Y-125218000D01*
G75*
G02*
X153641000Y-125443000I-225000J0D01*
G01*
X153191000Y-125443000D01*
G75*
G02*
X152966000Y-125218000I0J225000D01*
G01*
X152966000Y-124718000D01*
G75*
G02*
X153191000Y-124493000I225000J0D01*
G01*
X153641000Y-124493000D01*
G75*
G02*
X153866000Y-124718000I0J-225000D01*
G01*
G37*
%TD*%
%TO.C,C3*%
G36*
G01*
X155901200Y-104488400D02*
X155401200Y-104488400D01*
G75*
G02*
X155176200Y-104263400I0J225000D01*
G01*
X155176200Y-103813400D01*
G75*
G02*
X155401200Y-103588400I225000J0D01*
G01*
X155901200Y-103588400D01*
G75*
G02*
X156126200Y-103813400I0J-225000D01*
G01*
X156126200Y-104263400D01*
G75*
G02*
X155901200Y-104488400I-225000J0D01*
G01*
G37*
G36*
G01*
X155901200Y-106038400D02*
X155401200Y-106038400D01*
G75*
G02*
X155176200Y-105813400I0J225000D01*
G01*
X155176200Y-105363400D01*
G75*
G02*
X155401200Y-105138400I225000J0D01*
G01*
X155901200Y-105138400D01*
G75*
G02*
X156126200Y-105363400I0J-225000D01*
G01*
X156126200Y-105813400D01*
G75*
G02*
X155901200Y-106038400I-225000J0D01*
G01*
G37*
%TD*%
%TO.C,C1*%
G36*
G01*
X125801000Y-104136000D02*
X125801000Y-103636000D01*
G75*
G02*
X126026000Y-103411000I225000J0D01*
G01*
X126476000Y-103411000D01*
G75*
G02*
X126701000Y-103636000I0J-225000D01*
G01*
X126701000Y-104136000D01*
G75*
G02*
X126476000Y-104361000I-225000J0D01*
G01*
X126026000Y-104361000D01*
G75*
G02*
X125801000Y-104136000I0J225000D01*
G01*
G37*
G36*
G01*
X124251000Y-104136000D02*
X124251000Y-103636000D01*
G75*
G02*
X124476000Y-103411000I225000J0D01*
G01*
X124926000Y-103411000D01*
G75*
G02*
X125151000Y-103636000I0J-225000D01*
G01*
X125151000Y-104136000D01*
G75*
G02*
X124926000Y-104361000I-225000J0D01*
G01*
X124476000Y-104361000D01*
G75*
G02*
X124251000Y-104136000I0J225000D01*
G01*
G37*
%TD*%
M02*
