%TF.GenerationSoftware,KiCad,Pcbnew,(5.1.10)-1*%
%TF.CreationDate,2021-08-27T13:44:28+02:00*%
%TF.ProjectId,Pico-profile,5069636f-2d70-4726-9f66-696c652e6b69,rev?*%
%TF.SameCoordinates,Original*%
%TF.FileFunction,Legend,Top*%
%TF.FilePolarity,Positive*%
%FSLAX46Y46*%
G04 Gerber Fmt 4.6, Leading zero omitted, Abs format (unit mm)*
G04 Created by KiCad (PCBNEW (5.1.10)-1) date 2021-08-27 13:44:28*
%MOMM*%
%LPD*%
G01*
G04 APERTURE LIST*
%ADD10C,0.300000*%
%ADD11C,0.200000*%
%ADD12C,0.010000*%
%ADD13C,0.120000*%
%ADD14C,0.150000*%
G04 APERTURE END LIST*
D10*
X213344274Y-130896351D02*
X213701417Y-131896351D01*
X214058560Y-130896351D01*
X215415702Y-131896351D02*
X214558560Y-131896351D01*
X214987131Y-131896351D02*
X214987131Y-130396351D01*
X214844274Y-130610637D01*
X214701417Y-130753494D01*
X214558560Y-130824922D01*
X216058560Y-131753494D02*
X216129988Y-131824922D01*
X216058560Y-131896351D01*
X215987131Y-131824922D01*
X216058560Y-131753494D01*
X216058560Y-131896351D01*
X217058560Y-130396351D02*
X217201417Y-130396351D01*
X217344274Y-130467780D01*
X217415702Y-130539208D01*
X217487131Y-130682065D01*
X217558560Y-130967780D01*
X217558560Y-131324922D01*
X217487131Y-131610637D01*
X217415702Y-131753494D01*
X217344274Y-131824922D01*
X217201417Y-131896351D01*
X217058560Y-131896351D01*
X216915702Y-131824922D01*
X216844274Y-131753494D01*
X216772845Y-131610637D01*
X216701417Y-131324922D01*
X216701417Y-130967780D01*
X216772845Y-130682065D01*
X216844274Y-130539208D01*
X216915702Y-130467780D01*
X217058560Y-130396351D01*
X218201417Y-131753494D02*
X218272845Y-131824922D01*
X218201417Y-131896351D01*
X218129988Y-131824922D01*
X218201417Y-131753494D01*
X218201417Y-131896351D01*
X219201417Y-130396351D02*
X219344274Y-130396351D01*
X219487131Y-130467780D01*
X219558560Y-130539208D01*
X219629988Y-130682065D01*
X219701417Y-130967780D01*
X219701417Y-131324922D01*
X219629988Y-131610637D01*
X219558560Y-131753494D01*
X219487131Y-131824922D01*
X219344274Y-131896351D01*
X219201417Y-131896351D01*
X219058560Y-131824922D01*
X218987131Y-131753494D01*
X218915702Y-131610637D01*
X218844274Y-131324922D01*
X218844274Y-130967780D01*
X218915702Y-130682065D01*
X218987131Y-130539208D01*
X219058560Y-130467780D01*
X219201417Y-130396351D01*
D11*
X100878339Y-132668511D02*
X100878339Y-131168511D01*
X101521197Y-132668511D02*
X101521197Y-131882797D01*
X101449768Y-131739940D01*
X101306911Y-131668511D01*
X101092625Y-131668511D01*
X100949768Y-131739940D01*
X100878339Y-131811368D01*
X102021197Y-131668511D02*
X102592625Y-131668511D01*
X102235482Y-131168511D02*
X102235482Y-132454225D01*
X102306911Y-132597082D01*
X102449768Y-132668511D01*
X102592625Y-132668511D01*
X102878339Y-131668511D02*
X103449768Y-131668511D01*
X103092625Y-131168511D02*
X103092625Y-132454225D01*
X103164054Y-132597082D01*
X103306911Y-132668511D01*
X103449768Y-132668511D01*
X103949768Y-131668511D02*
X103949768Y-133168511D01*
X103949768Y-131739940D02*
X104092625Y-131668511D01*
X104378339Y-131668511D01*
X104521197Y-131739940D01*
X104592625Y-131811368D01*
X104664054Y-131954225D01*
X104664054Y-132382797D01*
X104592625Y-132525654D01*
X104521197Y-132597082D01*
X104378339Y-132668511D01*
X104092625Y-132668511D01*
X103949768Y-132597082D01*
X105235482Y-132597082D02*
X105378339Y-132668511D01*
X105664054Y-132668511D01*
X105806911Y-132597082D01*
X105878339Y-132454225D01*
X105878339Y-132382797D01*
X105806911Y-132239940D01*
X105664054Y-132168511D01*
X105449768Y-132168511D01*
X105306911Y-132097082D01*
X105235482Y-131954225D01*
X105235482Y-131882797D01*
X105306911Y-131739940D01*
X105449768Y-131668511D01*
X105664054Y-131668511D01*
X105806911Y-131739940D01*
X106521197Y-132525654D02*
X106592625Y-132597082D01*
X106521197Y-132668511D01*
X106449768Y-132597082D01*
X106521197Y-132525654D01*
X106521197Y-132668511D01*
X106521197Y-131739940D02*
X106592625Y-131811368D01*
X106521197Y-131882797D01*
X106449768Y-131811368D01*
X106521197Y-131739940D01*
X106521197Y-131882797D01*
X108306911Y-131097082D02*
X107021197Y-133025654D01*
X109878339Y-131097082D02*
X108592625Y-133025654D01*
X111021197Y-131668511D02*
X111021197Y-132882797D01*
X110949768Y-133025654D01*
X110878339Y-133097082D01*
X110735482Y-133168511D01*
X110521197Y-133168511D01*
X110378339Y-133097082D01*
X111021197Y-132597082D02*
X110878339Y-132668511D01*
X110592625Y-132668511D01*
X110449768Y-132597082D01*
X110378339Y-132525654D01*
X110306911Y-132382797D01*
X110306911Y-131954225D01*
X110378339Y-131811368D01*
X110449768Y-131739940D01*
X110592625Y-131668511D01*
X110878339Y-131668511D01*
X111021197Y-131739940D01*
X111735482Y-132668511D02*
X111735482Y-131668511D01*
X111735482Y-131168511D02*
X111664054Y-131239940D01*
X111735482Y-131311368D01*
X111806911Y-131239940D01*
X111735482Y-131168511D01*
X111735482Y-131311368D01*
X112235482Y-131668511D02*
X112806911Y-131668511D01*
X112449768Y-131168511D02*
X112449768Y-132454225D01*
X112521197Y-132597082D01*
X112664054Y-132668511D01*
X112806911Y-132668511D01*
X113306911Y-132668511D02*
X113306911Y-131168511D01*
X113949768Y-132668511D02*
X113949768Y-131882797D01*
X113878339Y-131739940D01*
X113735482Y-131668511D01*
X113521197Y-131668511D01*
X113378339Y-131739940D01*
X113306911Y-131811368D01*
X115306911Y-131668511D02*
X115306911Y-132668511D01*
X114664054Y-131668511D02*
X114664054Y-132454225D01*
X114735482Y-132597082D01*
X114878339Y-132668511D01*
X115092625Y-132668511D01*
X115235482Y-132597082D01*
X115306911Y-132525654D01*
X116021197Y-132668511D02*
X116021197Y-131168511D01*
X116021197Y-131739940D02*
X116164054Y-131668511D01*
X116449768Y-131668511D01*
X116592625Y-131739940D01*
X116664054Y-131811368D01*
X116735482Y-131954225D01*
X116735482Y-132382797D01*
X116664054Y-132525654D01*
X116592625Y-132597082D01*
X116449768Y-132668511D01*
X116164054Y-132668511D01*
X116021197Y-132597082D01*
X117378339Y-132525654D02*
X117449768Y-132597082D01*
X117378339Y-132668511D01*
X117306911Y-132597082D01*
X117378339Y-132525654D01*
X117378339Y-132668511D01*
X118735482Y-132597082D02*
X118592625Y-132668511D01*
X118306911Y-132668511D01*
X118164054Y-132597082D01*
X118092625Y-132525654D01*
X118021197Y-132382797D01*
X118021197Y-131954225D01*
X118092625Y-131811368D01*
X118164054Y-131739940D01*
X118306911Y-131668511D01*
X118592625Y-131668511D01*
X118735482Y-131739940D01*
X119592625Y-132668511D02*
X119449768Y-132597082D01*
X119378339Y-132525654D01*
X119306911Y-132382797D01*
X119306911Y-131954225D01*
X119378339Y-131811368D01*
X119449768Y-131739940D01*
X119592625Y-131668511D01*
X119806911Y-131668511D01*
X119949768Y-131739940D01*
X120021197Y-131811368D01*
X120092625Y-131954225D01*
X120092625Y-132382797D01*
X120021197Y-132525654D01*
X119949768Y-132597082D01*
X119806911Y-132668511D01*
X119592625Y-132668511D01*
X120735482Y-132668511D02*
X120735482Y-131668511D01*
X120735482Y-131811368D02*
X120806911Y-131739940D01*
X120949768Y-131668511D01*
X121164054Y-131668511D01*
X121306911Y-131739940D01*
X121378339Y-131882797D01*
X121378339Y-132668511D01*
X121378339Y-131882797D02*
X121449768Y-131739940D01*
X121592625Y-131668511D01*
X121806911Y-131668511D01*
X121949768Y-131739940D01*
X122021197Y-131882797D01*
X122021197Y-132668511D01*
X123806911Y-131097082D02*
X122521197Y-133025654D01*
X124806911Y-131882797D02*
X125021197Y-131954225D01*
X125092625Y-132025654D01*
X125164054Y-132168511D01*
X125164054Y-132382797D01*
X125092625Y-132525654D01*
X125021197Y-132597082D01*
X124878339Y-132668511D01*
X124306911Y-132668511D01*
X124306911Y-131168511D01*
X124806911Y-131168511D01*
X124949768Y-131239940D01*
X125021197Y-131311368D01*
X125092625Y-131454225D01*
X125092625Y-131597082D01*
X125021197Y-131739940D01*
X124949768Y-131811368D01*
X124806911Y-131882797D01*
X124306911Y-131882797D01*
X125664054Y-131668511D02*
X125949768Y-132668511D01*
X126235482Y-131954225D01*
X126521197Y-132668511D01*
X126806911Y-131668511D01*
X128021197Y-132668511D02*
X128021197Y-131882797D01*
X127949768Y-131739940D01*
X127806911Y-131668511D01*
X127521197Y-131668511D01*
X127378339Y-131739940D01*
X128021197Y-132597082D02*
X127878339Y-132668511D01*
X127521197Y-132668511D01*
X127378339Y-132597082D01*
X127306911Y-132454225D01*
X127306911Y-132311368D01*
X127378339Y-132168511D01*
X127521197Y-132097082D01*
X127878339Y-132097082D01*
X128021197Y-132025654D01*
X128735482Y-131668511D02*
X128735482Y-132668511D01*
X128735482Y-131811368D02*
X128806911Y-131739940D01*
X128949768Y-131668511D01*
X129164054Y-131668511D01*
X129306911Y-131739940D01*
X129378339Y-131882797D01*
X129378339Y-132668511D01*
X130735482Y-132668511D02*
X130735482Y-131882797D01*
X130664054Y-131739940D01*
X130521197Y-131668511D01*
X130235482Y-131668511D01*
X130092625Y-131739940D01*
X130735482Y-132597082D02*
X130592625Y-132668511D01*
X130235482Y-132668511D01*
X130092625Y-132597082D01*
X130021197Y-132454225D01*
X130021197Y-132311368D01*
X130092625Y-132168511D01*
X130235482Y-132097082D01*
X130592625Y-132097082D01*
X130735482Y-132025654D01*
X131949768Y-131882797D02*
X131449768Y-131882797D01*
X131449768Y-132668511D02*
X131449768Y-131168511D01*
X132164054Y-131168511D01*
X132735482Y-132668511D02*
X132735482Y-131668511D01*
X132735482Y-131954225D02*
X132806911Y-131811368D01*
X132878340Y-131739940D01*
X133021197Y-131668511D01*
X133164054Y-131668511D01*
X134735482Y-131097082D02*
X133449768Y-133025654D01*
X135235482Y-131668511D02*
X135235482Y-133168511D01*
X135235482Y-131739940D02*
X135378340Y-131668511D01*
X135664054Y-131668511D01*
X135806911Y-131739940D01*
X135878340Y-131811368D01*
X135949768Y-131954225D01*
X135949768Y-132382797D01*
X135878340Y-132525654D01*
X135806911Y-132597082D01*
X135664054Y-132668511D01*
X135378340Y-132668511D01*
X135235482Y-132597082D01*
X136592625Y-132668511D02*
X136592625Y-131668511D01*
X136592625Y-131168511D02*
X136521197Y-131239940D01*
X136592625Y-131311368D01*
X136664054Y-131239940D01*
X136592625Y-131168511D01*
X136592625Y-131311368D01*
X137949768Y-132597082D02*
X137806911Y-132668511D01*
X137521197Y-132668511D01*
X137378340Y-132597082D01*
X137306911Y-132525654D01*
X137235482Y-132382797D01*
X137235482Y-131954225D01*
X137306911Y-131811368D01*
X137378340Y-131739940D01*
X137521197Y-131668511D01*
X137806911Y-131668511D01*
X137949768Y-131739940D01*
X138806911Y-132668511D02*
X138664054Y-132597082D01*
X138592625Y-132525654D01*
X138521197Y-132382797D01*
X138521197Y-131954225D01*
X138592625Y-131811368D01*
X138664054Y-131739940D01*
X138806911Y-131668511D01*
X139021197Y-131668511D01*
X139164054Y-131739940D01*
X139235482Y-131811368D01*
X139306911Y-131954225D01*
X139306911Y-132382797D01*
X139235482Y-132525654D01*
X139164054Y-132597082D01*
X139021197Y-132668511D01*
X138806911Y-132668511D01*
X139949768Y-132097082D02*
X141092625Y-132097082D01*
X141806911Y-131668511D02*
X141806911Y-133168511D01*
X141806911Y-131739940D02*
X141949768Y-131668511D01*
X142235482Y-131668511D01*
X142378340Y-131739940D01*
X142449768Y-131811368D01*
X142521197Y-131954225D01*
X142521197Y-132382797D01*
X142449768Y-132525654D01*
X142378340Y-132597082D01*
X142235482Y-132668511D01*
X141949768Y-132668511D01*
X141806911Y-132597082D01*
X143164054Y-132668511D02*
X143164054Y-131668511D01*
X143164054Y-131954225D02*
X143235482Y-131811368D01*
X143306911Y-131739940D01*
X143449768Y-131668511D01*
X143592625Y-131668511D01*
X144306911Y-132668511D02*
X144164054Y-132597082D01*
X144092625Y-132525654D01*
X144021197Y-132382797D01*
X144021197Y-131954225D01*
X144092625Y-131811368D01*
X144164054Y-131739940D01*
X144306911Y-131668511D01*
X144521197Y-131668511D01*
X144664054Y-131739940D01*
X144735482Y-131811368D01*
X144806911Y-131954225D01*
X144806911Y-132382797D01*
X144735482Y-132525654D01*
X144664054Y-132597082D01*
X144521197Y-132668511D01*
X144306911Y-132668511D01*
X145235482Y-131668511D02*
X145806911Y-131668511D01*
X145449768Y-132668511D02*
X145449768Y-131382797D01*
X145521197Y-131239940D01*
X145664054Y-131168511D01*
X145806911Y-131168511D01*
X146306911Y-132668511D02*
X146306911Y-131668511D01*
X146306911Y-131168511D02*
X146235482Y-131239940D01*
X146306911Y-131311368D01*
X146378340Y-131239940D01*
X146306911Y-131168511D01*
X146306911Y-131311368D01*
X147235482Y-132668511D02*
X147092625Y-132597082D01*
X147021197Y-132454225D01*
X147021197Y-131168511D01*
X148378340Y-132597082D02*
X148235482Y-132668511D01*
X147949768Y-132668511D01*
X147806911Y-132597082D01*
X147735482Y-132454225D01*
X147735482Y-131882797D01*
X147806911Y-131739940D01*
X147949768Y-131668511D01*
X148235482Y-131668511D01*
X148378340Y-131739940D01*
X148449768Y-131882797D01*
X148449768Y-132025654D01*
X147735482Y-132168511D01*
D10*
X187183034Y-117611082D02*
X187397320Y-117682511D01*
X187754462Y-117682511D01*
X187897320Y-117611082D01*
X187968748Y-117539654D01*
X188040177Y-117396797D01*
X188040177Y-117253940D01*
X187968748Y-117111082D01*
X187897320Y-117039654D01*
X187754462Y-116968225D01*
X187468748Y-116896797D01*
X187325891Y-116825368D01*
X187254462Y-116753940D01*
X187183034Y-116611082D01*
X187183034Y-116468225D01*
X187254462Y-116325368D01*
X187325891Y-116253940D01*
X187468748Y-116182511D01*
X187825891Y-116182511D01*
X188040177Y-116253940D01*
X188683034Y-117682511D02*
X188683034Y-116182511D01*
X189040177Y-116182511D01*
X189254462Y-116253940D01*
X189397320Y-116396797D01*
X189468748Y-116539654D01*
X189540177Y-116825368D01*
X189540177Y-117039654D01*
X189468748Y-117325368D01*
X189397320Y-117468225D01*
X189254462Y-117611082D01*
X189040177Y-117682511D01*
X188683034Y-117682511D01*
X191968748Y-117611082D02*
X191825891Y-117682511D01*
X191540177Y-117682511D01*
X191397320Y-117611082D01*
X191325891Y-117539654D01*
X191254462Y-117396797D01*
X191254462Y-116968225D01*
X191325891Y-116825368D01*
X191397320Y-116753940D01*
X191540177Y-116682511D01*
X191825891Y-116682511D01*
X191968748Y-116753940D01*
X193254462Y-117682511D02*
X193254462Y-116896797D01*
X193183034Y-116753940D01*
X193040177Y-116682511D01*
X192754462Y-116682511D01*
X192611605Y-116753940D01*
X193254462Y-117611082D02*
X193111605Y-117682511D01*
X192754462Y-117682511D01*
X192611605Y-117611082D01*
X192540177Y-117468225D01*
X192540177Y-117325368D01*
X192611605Y-117182511D01*
X192754462Y-117111082D01*
X193111605Y-117111082D01*
X193254462Y-117039654D01*
X193968748Y-117682511D02*
X193968748Y-116682511D01*
X193968748Y-116968225D02*
X194040177Y-116825368D01*
X194111605Y-116753940D01*
X194254462Y-116682511D01*
X194397320Y-116682511D01*
X195540177Y-117682511D02*
X195540177Y-116182511D01*
X195540177Y-117611082D02*
X195397320Y-117682511D01*
X195111605Y-117682511D01*
X194968748Y-117611082D01*
X194897320Y-117539654D01*
X194825891Y-117396797D01*
X194825891Y-116968225D01*
X194897320Y-116825368D01*
X194968748Y-116753940D01*
X195111605Y-116682511D01*
X195397320Y-116682511D01*
X195540177Y-116753940D01*
D12*
%TO.C,G\u002A\u002A\u002A*%
G36*
X213340698Y-106100477D02*
G01*
X213357701Y-106009723D01*
X213361852Y-105996557D01*
X213391356Y-105936642D01*
X213438637Y-105868615D01*
X213495916Y-105801366D01*
X213555415Y-105743784D01*
X213609355Y-105704759D01*
X213622978Y-105698128D01*
X213649976Y-105689131D01*
X213676361Y-105688350D01*
X213710222Y-105697820D01*
X213759650Y-105719577D01*
X213813605Y-105746081D01*
X213911673Y-105802623D01*
X214016191Y-105875694D01*
X214094240Y-105938961D01*
X214201049Y-106030310D01*
X214289490Y-106101630D01*
X214365080Y-106156899D01*
X214433340Y-106200095D01*
X214499788Y-106235195D01*
X214515553Y-106242614D01*
X214568022Y-106268594D01*
X214605282Y-106290475D01*
X214619547Y-106303666D01*
X214619531Y-106303936D01*
X214615335Y-106327108D01*
X214607072Y-106369976D01*
X214603752Y-106386846D01*
X214576564Y-106477650D01*
X214530520Y-106561716D01*
X214462188Y-106643153D01*
X214368137Y-106726070D01*
X214248853Y-106811960D01*
X214184547Y-106857217D01*
X214125190Y-106902810D01*
X214081043Y-106940747D01*
X214072118Y-106949631D01*
X214032280Y-106983768D01*
X213990508Y-106998915D01*
X213939916Y-106994885D01*
X213873619Y-106971489D01*
X213812230Y-106942514D01*
X213681735Y-106859936D01*
X213563846Y-106751804D01*
X213464528Y-106625192D01*
X213389747Y-106487173D01*
X213360637Y-106406957D01*
X213342123Y-106313255D01*
X213335491Y-106206375D01*
X213340698Y-106100477D01*
G37*
X213340698Y-106100477D02*
X213357701Y-106009723D01*
X213361852Y-105996557D01*
X213391356Y-105936642D01*
X213438637Y-105868615D01*
X213495916Y-105801366D01*
X213555415Y-105743784D01*
X213609355Y-105704759D01*
X213622978Y-105698128D01*
X213649976Y-105689131D01*
X213676361Y-105688350D01*
X213710222Y-105697820D01*
X213759650Y-105719577D01*
X213813605Y-105746081D01*
X213911673Y-105802623D01*
X214016191Y-105875694D01*
X214094240Y-105938961D01*
X214201049Y-106030310D01*
X214289490Y-106101630D01*
X214365080Y-106156899D01*
X214433340Y-106200095D01*
X214499788Y-106235195D01*
X214515553Y-106242614D01*
X214568022Y-106268594D01*
X214605282Y-106290475D01*
X214619547Y-106303666D01*
X214619531Y-106303936D01*
X214615335Y-106327108D01*
X214607072Y-106369976D01*
X214603752Y-106386846D01*
X214576564Y-106477650D01*
X214530520Y-106561716D01*
X214462188Y-106643153D01*
X214368137Y-106726070D01*
X214248853Y-106811960D01*
X214184547Y-106857217D01*
X214125190Y-106902810D01*
X214081043Y-106940747D01*
X214072118Y-106949631D01*
X214032280Y-106983768D01*
X213990508Y-106998915D01*
X213939916Y-106994885D01*
X213873619Y-106971489D01*
X213812230Y-106942514D01*
X213681735Y-106859936D01*
X213563846Y-106751804D01*
X213464528Y-106625192D01*
X213389747Y-106487173D01*
X213360637Y-106406957D01*
X213342123Y-106313255D01*
X213335491Y-106206375D01*
X213340698Y-106100477D01*
G36*
X214680653Y-102186144D02*
G01*
X214806660Y-102197742D01*
X214916527Y-102229041D01*
X215016081Y-102283288D01*
X215111150Y-102363733D01*
X215207560Y-102473626D01*
X215216333Y-102484854D01*
X215315384Y-102608101D01*
X215402011Y-102704941D01*
X215480208Y-102778588D01*
X215553967Y-102832255D01*
X215627284Y-102869156D01*
X215704151Y-102892506D01*
X215728991Y-102897437D01*
X215795195Y-102909184D01*
X215784929Y-102673959D01*
X215773168Y-102502665D01*
X215752036Y-102304000D01*
X215722342Y-102082896D01*
X215684892Y-101844281D01*
X215640495Y-101593088D01*
X215589959Y-101334246D01*
X215534091Y-101072685D01*
X215493943Y-100897801D01*
X215470196Y-100796917D01*
X215443698Y-100683740D01*
X215418737Y-100576603D01*
X215408797Y-100533734D01*
X215367395Y-100354880D01*
X215328703Y-100187960D01*
X215293552Y-100036548D01*
X215262773Y-99904219D01*
X215237198Y-99794548D01*
X215217658Y-99711109D01*
X215205984Y-99661667D01*
X215195170Y-99613573D01*
X215179238Y-99539213D01*
X215159642Y-99445543D01*
X215137835Y-99339519D01*
X215115271Y-99228097D01*
X215112228Y-99212934D01*
X215025628Y-98793712D01*
X214934822Y-98378307D01*
X214883701Y-98154600D01*
X214814380Y-97839995D01*
X214759615Y-97555237D01*
X214719310Y-97299642D01*
X214693368Y-97072525D01*
X214681691Y-96873201D01*
X214682602Y-96732200D01*
X214701663Y-96512224D01*
X214740346Y-96317702D01*
X214800067Y-96145531D01*
X214882243Y-95992609D01*
X214988292Y-95855832D01*
X215119629Y-95732098D01*
X215150408Y-95707594D01*
X215196830Y-95671637D01*
X215213098Y-95710852D01*
X215221545Y-95738342D01*
X215236159Y-95793528D01*
X215255615Y-95871080D01*
X215278585Y-95965668D01*
X215303744Y-96071959D01*
X215315522Y-96122600D01*
X215343700Y-96244453D01*
X215372334Y-96368297D01*
X215399501Y-96485813D01*
X215423278Y-96588682D01*
X215441741Y-96668584D01*
X215444702Y-96681400D01*
X215518464Y-96993104D01*
X215592104Y-97289400D01*
X215664683Y-97566822D01*
X215735265Y-97821901D01*
X215802910Y-98051169D01*
X215866681Y-98251159D01*
X215879819Y-98290067D01*
X216000292Y-98616177D01*
X216131981Y-98922860D01*
X216273559Y-99207871D01*
X216423697Y-99468965D01*
X216581067Y-99703898D01*
X216744340Y-99910424D01*
X216912189Y-100086299D01*
X216977406Y-100145068D01*
X217029704Y-100189511D01*
X217067901Y-100217579D01*
X217094244Y-100226558D01*
X217110981Y-100213733D01*
X217120361Y-100176390D01*
X217124630Y-100111813D01*
X217126037Y-100017288D01*
X217126330Y-99965195D01*
X217116190Y-99732435D01*
X217082520Y-99497580D01*
X217024208Y-99255441D01*
X216940142Y-99000828D01*
X216894394Y-98882734D01*
X216867874Y-98817981D01*
X216840477Y-98753396D01*
X216810508Y-98685387D01*
X216776272Y-98610365D01*
X216736074Y-98524738D01*
X216688220Y-98424917D01*
X216631013Y-98307310D01*
X216562759Y-98168328D01*
X216481764Y-98004381D01*
X216438740Y-97917534D01*
X216323750Y-97681652D01*
X216225546Y-97470925D01*
X216142996Y-97281770D01*
X216074971Y-97110603D01*
X216020338Y-96953839D01*
X215977968Y-96807896D01*
X215946728Y-96669189D01*
X215925489Y-96534135D01*
X215913119Y-96399149D01*
X215908487Y-96260648D01*
X215908388Y-96236900D01*
X215908320Y-96046400D01*
X215955254Y-96046400D01*
X216002924Y-96051795D01*
X216075701Y-96066727D01*
X216166807Y-96089313D01*
X216269464Y-96117676D01*
X216376896Y-96149933D01*
X216482324Y-96184204D01*
X216578970Y-96218610D01*
X216587322Y-96221769D01*
X216701587Y-96266955D01*
X216813881Y-96315220D01*
X216928026Y-96368616D01*
X217047842Y-96429195D01*
X217177151Y-96499010D01*
X217319774Y-96580114D01*
X217479533Y-96674560D01*
X217660249Y-96784399D01*
X217828185Y-96888284D01*
X217932453Y-96952770D01*
X218035188Y-97015574D01*
X218130215Y-97072974D01*
X218211357Y-97121249D01*
X218272438Y-97156678D01*
X218289618Y-97166282D01*
X218361647Y-97209607D01*
X218403455Y-97243767D01*
X218414453Y-97264590D01*
X218401749Y-97305755D01*
X218368879Y-97356423D01*
X218323708Y-97407091D01*
X218274102Y-97448257D01*
X218251321Y-97461704D01*
X218191021Y-97480210D01*
X218106512Y-97490738D01*
X218006509Y-97493248D01*
X217899726Y-97487697D01*
X217794877Y-97474045D01*
X217745587Y-97464095D01*
X217620520Y-97435594D01*
X217521647Y-97414087D01*
X217442310Y-97398334D01*
X217375852Y-97387099D01*
X217315616Y-97379142D01*
X217258753Y-97373550D01*
X217191765Y-97368769D01*
X217151884Y-97369044D01*
X217132630Y-97375089D01*
X217127522Y-97387620D01*
X217127520Y-97388034D01*
X217134892Y-97407514D01*
X217156116Y-97454498D01*
X217189853Y-97526223D01*
X217234764Y-97619923D01*
X217289510Y-97732834D01*
X217352750Y-97862193D01*
X217423147Y-98005234D01*
X217499362Y-98159194D01*
X217565517Y-98292168D01*
X217684899Y-98531981D01*
X217790168Y-98744334D01*
X217882616Y-98931929D01*
X217963533Y-99097466D01*
X218034210Y-99243646D01*
X218095938Y-99373170D01*
X218150009Y-99488741D01*
X218197714Y-99593058D01*
X218240343Y-99688822D01*
X218279188Y-99778735D01*
X218302417Y-99833877D01*
X218397191Y-100065030D01*
X218478227Y-100272003D01*
X218547492Y-100460621D01*
X218606950Y-100636712D01*
X218658566Y-100806100D01*
X218704306Y-100974612D01*
X218746135Y-101148074D01*
X218746983Y-101151801D01*
X218763783Y-101228999D01*
X218776012Y-101295975D01*
X218784402Y-101360883D01*
X218789684Y-101431876D01*
X218792588Y-101517109D01*
X218793846Y-101624737D01*
X218794055Y-101676734D01*
X218794079Y-101791009D01*
X218793063Y-101877650D01*
X218790436Y-101942886D01*
X218785629Y-101992945D01*
X218778072Y-102034057D01*
X218767196Y-102072450D01*
X218754574Y-102108534D01*
X218683905Y-102261455D01*
X218592846Y-102389120D01*
X218480512Y-102492055D01*
X218346021Y-102570785D01*
X218188490Y-102625837D01*
X218007034Y-102657736D01*
X217816064Y-102667084D01*
X217649963Y-102658907D01*
X217504114Y-102632782D01*
X217368291Y-102585530D01*
X217232270Y-102513974D01*
X217148582Y-102459618D01*
X217047330Y-102382429D01*
X216947729Y-102290487D01*
X216847861Y-102181247D01*
X216745809Y-102052165D01*
X216639656Y-101900696D01*
X216527485Y-101724297D01*
X216407379Y-101520422D01*
X216310863Y-101347819D01*
X216233927Y-101208313D01*
X216171569Y-101096840D01*
X216122632Y-101011445D01*
X216085962Y-100950169D01*
X216060401Y-100911058D01*
X216044794Y-100892153D01*
X216040209Y-100889658D01*
X216025023Y-100904988D01*
X216009794Y-100947002D01*
X215995913Y-101008547D01*
X215984772Y-101082469D01*
X215977763Y-101161618D01*
X215976053Y-101219497D01*
X215977451Y-101304327D01*
X215982452Y-101382964D01*
X215992265Y-101460511D01*
X216008099Y-101542068D01*
X216031164Y-101632737D01*
X216062669Y-101737618D01*
X216103825Y-101861813D01*
X216155840Y-102010423D01*
X216178815Y-102074667D01*
X216241188Y-102254160D01*
X216294359Y-102419141D01*
X216337198Y-102565704D01*
X216368575Y-102689940D01*
X216387361Y-102787941D01*
X216389373Y-102802937D01*
X216400800Y-102896207D01*
X216632926Y-102897434D01*
X216722552Y-102898610D01*
X216798598Y-102902000D01*
X216867657Y-102908957D01*
X216936322Y-102920835D01*
X217011186Y-102938987D01*
X217098841Y-102964769D01*
X217205880Y-102999534D01*
X217322703Y-103039097D01*
X217413322Y-103069224D01*
X217498725Y-103096090D01*
X217570888Y-103117278D01*
X217621785Y-103130368D01*
X217632490Y-103132489D01*
X217685909Y-103149239D01*
X217738648Y-103183342D01*
X217794678Y-103238493D01*
X217857970Y-103318387D01*
X217906012Y-103387001D01*
X218011961Y-103556818D01*
X218120496Y-103755752D01*
X218229739Y-103979348D01*
X218337812Y-104223153D01*
X218442835Y-104482712D01*
X218542930Y-104753570D01*
X218636218Y-105031273D01*
X218720821Y-105311367D01*
X218727324Y-105334334D01*
X218815714Y-105674459D01*
X218885575Y-106000547D01*
X218936548Y-106309992D01*
X218968274Y-106600186D01*
X218980394Y-106868522D01*
X218972549Y-107112396D01*
X218972425Y-107113993D01*
X218946483Y-107309051D01*
X218901535Y-107482399D01*
X218838564Y-107632369D01*
X218758557Y-107757294D01*
X218662500Y-107855504D01*
X218551379Y-107925334D01*
X218476384Y-107953347D01*
X218411460Y-107965549D01*
X218328068Y-107972375D01*
X218237662Y-107973822D01*
X218151694Y-107969888D01*
X218081618Y-107960571D01*
X218054763Y-107953423D01*
X217965687Y-107909096D01*
X217924246Y-107878584D01*
X217924246Y-106020134D01*
X217933932Y-106003938D01*
X217936021Y-105956528D01*
X217930620Y-105879668D01*
X217917836Y-105775123D01*
X217903764Y-105681467D01*
X217866234Y-105489952D01*
X217813812Y-105285298D01*
X217749938Y-105078339D01*
X217678051Y-104879913D01*
X217601590Y-104700856D01*
X217575317Y-104646621D01*
X217478883Y-104471444D01*
X217380443Y-104325337D01*
X217280895Y-104209015D01*
X217181136Y-104123192D01*
X217082065Y-104068581D01*
X216984579Y-104045898D01*
X216889577Y-104055857D01*
X216850398Y-104070048D01*
X216805626Y-104092097D01*
X216777212Y-104110403D01*
X216771920Y-104117234D01*
X216780548Y-104136594D01*
X216803281Y-104175955D01*
X216835389Y-104227173D01*
X216838838Y-104232487D01*
X216882317Y-104303786D01*
X216926387Y-104385909D01*
X216973172Y-104483425D01*
X217024794Y-104600907D01*
X217083377Y-104742925D01*
X217127914Y-104854933D01*
X217200767Y-105037457D01*
X217265134Y-105192053D01*
X217323122Y-105322957D01*
X217376839Y-105434406D01*
X217428392Y-105530640D01*
X217479890Y-105615894D01*
X217533440Y-105694408D01*
X217569497Y-105742733D01*
X217620888Y-105801787D01*
X217683732Y-105862541D01*
X217751446Y-105919849D01*
X217817451Y-105968564D01*
X217875167Y-106003541D01*
X217918011Y-106019634D01*
X217924246Y-106020134D01*
X217924246Y-107878584D01*
X217870310Y-107838871D01*
X217775111Y-107748211D01*
X217687224Y-107643455D01*
X217603752Y-107518529D01*
X217517487Y-107364506D01*
X217430392Y-107185819D01*
X217344432Y-106986901D01*
X217261571Y-106772185D01*
X217183774Y-106546105D01*
X217142441Y-106413834D01*
X217119526Y-106337843D01*
X217093479Y-106251669D01*
X217075921Y-106193700D01*
X217066334Y-106161732D01*
X217055779Y-106125668D01*
X217043427Y-106082505D01*
X217028449Y-106029244D01*
X217010019Y-105962881D01*
X216987307Y-105880416D01*
X216959485Y-105778847D01*
X216925727Y-105655172D01*
X216885202Y-105506389D01*
X216837085Y-105329497D01*
X216808477Y-105224267D01*
X216733460Y-104952522D01*
X216664362Y-104711563D01*
X216600319Y-104498994D01*
X216540463Y-104312422D01*
X216483930Y-104149452D01*
X216429854Y-104007689D01*
X216377369Y-103884739D01*
X216325610Y-103778208D01*
X216273711Y-103685700D01*
X216225409Y-103611367D01*
X216157413Y-103514001D01*
X215754466Y-103514001D01*
X215641049Y-103514608D01*
X215539202Y-103516313D01*
X215453715Y-103518940D01*
X215389380Y-103522315D01*
X215350989Y-103526262D01*
X215342207Y-103529067D01*
X215341801Y-103552325D01*
X215349371Y-103603764D01*
X215363858Y-103678928D01*
X215384200Y-103773360D01*
X215409339Y-103882603D01*
X215438213Y-104002199D01*
X215469764Y-104127691D01*
X215502931Y-104254623D01*
X215536654Y-104378538D01*
X215569874Y-104494977D01*
X215580246Y-104530000D01*
X215678900Y-104844778D01*
X215792199Y-105179878D01*
X215916992Y-105526809D01*
X216050129Y-105877079D01*
X216188460Y-106222194D01*
X216328836Y-106553664D01*
X216342218Y-106584261D01*
X216381813Y-106674803D01*
X216416236Y-106754060D01*
X216443352Y-106817068D01*
X216461023Y-106858862D01*
X216467120Y-106874438D01*
X216473798Y-106891053D01*
X216491888Y-106931853D01*
X216518472Y-106990341D01*
X216544549Y-107046911D01*
X216579480Y-107122363D01*
X216611903Y-107192577D01*
X216637431Y-107248044D01*
X216648605Y-107272468D01*
X216676994Y-107334068D01*
X216716802Y-107419321D01*
X216764785Y-107521355D01*
X216817702Y-107633293D01*
X216872308Y-107748261D01*
X216925362Y-107859386D01*
X216932523Y-107874334D01*
X216963782Y-107938780D01*
X217008372Y-108029616D01*
X217064372Y-108142997D01*
X217129857Y-108275076D01*
X217202905Y-108422007D01*
X217281591Y-108579945D01*
X217363994Y-108745043D01*
X217448189Y-108913456D01*
X217532254Y-109081337D01*
X217614264Y-109244841D01*
X217692298Y-109400122D01*
X217764431Y-109543334D01*
X217828740Y-109670630D01*
X217883302Y-109778166D01*
X217926194Y-109862094D01*
X217938268Y-109885519D01*
X217979890Y-109967302D01*
X218015282Y-110039319D01*
X218041739Y-110095865D01*
X218056555Y-110131237D01*
X218058762Y-110139519D01*
X218044027Y-110165641D01*
X218003786Y-110201670D01*
X217943726Y-110244320D01*
X217869535Y-110290306D01*
X217786900Y-110336344D01*
X217701506Y-110379148D01*
X217619042Y-110415434D01*
X217545193Y-110441917D01*
X217525717Y-110447420D01*
X217369131Y-110471126D01*
X217207503Y-110463555D01*
X217046131Y-110425679D01*
X216890313Y-110358469D01*
X216822720Y-110318461D01*
X216755580Y-110269062D01*
X216674269Y-110200126D01*
X216585838Y-110118509D01*
X216497334Y-110031068D01*
X216415807Y-109944661D01*
X216348308Y-109866143D01*
X216320676Y-109830134D01*
X216261290Y-109747649D01*
X216208143Y-109672446D01*
X216159010Y-109600878D01*
X216111670Y-109529297D01*
X216063899Y-109454057D01*
X216013475Y-109371508D01*
X215958176Y-109278004D01*
X215895779Y-109169898D01*
X215824061Y-109043541D01*
X215740800Y-108895285D01*
X215643773Y-108721485D01*
X215629350Y-108695600D01*
X215508446Y-108479916D01*
X215401793Y-108292602D01*
X215308297Y-108131841D01*
X215226860Y-107995815D01*
X215156388Y-107882707D01*
X215095784Y-107790697D01*
X215043952Y-107717968D01*
X215025611Y-107694097D01*
X214996394Y-107652763D01*
X214979053Y-107620005D01*
X214976986Y-107611315D01*
X214988877Y-107582576D01*
X215021894Y-107535381D01*
X215072053Y-107473999D01*
X215135368Y-107402700D01*
X215207858Y-107325752D01*
X215285536Y-107247424D01*
X215364420Y-107171987D01*
X215440524Y-107103709D01*
X215486730Y-107065096D01*
X215562602Y-107017965D01*
X215638465Y-107002065D01*
X215721177Y-107016626D01*
X215764532Y-107033848D01*
X215830452Y-107074090D01*
X215891091Y-107134437D01*
X215950418Y-107219555D01*
X216001810Y-107312957D01*
X216060289Y-107419216D01*
X216114629Y-107497679D01*
X216168774Y-107553434D01*
X216211248Y-107583191D01*
X216246184Y-107602358D01*
X216260757Y-107603049D01*
X216263867Y-107583834D01*
X216263897Y-107574725D01*
X216260197Y-107530236D01*
X216250116Y-107460844D01*
X216235126Y-107374588D01*
X216216700Y-107279508D01*
X216196310Y-107183643D01*
X216177668Y-107104023D01*
X216144862Y-106978079D01*
X216107476Y-106848272D01*
X216064392Y-106711594D01*
X216014492Y-106565032D01*
X215956657Y-106405578D01*
X215889771Y-106230220D01*
X215812714Y-106035948D01*
X215724369Y-105819752D01*
X215623618Y-105578621D01*
X215523546Y-105342800D01*
X215405234Y-105064227D01*
X215300472Y-104814562D01*
X215208537Y-104592001D01*
X215128704Y-104394740D01*
X215060250Y-104220977D01*
X215002450Y-104068906D01*
X214954581Y-103936726D01*
X214927541Y-103857906D01*
X214831070Y-103553685D01*
X214753352Y-103273822D01*
X214693687Y-103014953D01*
X214651374Y-102773715D01*
X214625715Y-102546742D01*
X214616477Y-102362534D01*
X214612920Y-102184734D01*
X214680653Y-102186144D01*
G37*
X214680653Y-102186144D02*
X214806660Y-102197742D01*
X214916527Y-102229041D01*
X215016081Y-102283288D01*
X215111150Y-102363733D01*
X215207560Y-102473626D01*
X215216333Y-102484854D01*
X215315384Y-102608101D01*
X215402011Y-102704941D01*
X215480208Y-102778588D01*
X215553967Y-102832255D01*
X215627284Y-102869156D01*
X215704151Y-102892506D01*
X215728991Y-102897437D01*
X215795195Y-102909184D01*
X215784929Y-102673959D01*
X215773168Y-102502665D01*
X215752036Y-102304000D01*
X215722342Y-102082896D01*
X215684892Y-101844281D01*
X215640495Y-101593088D01*
X215589959Y-101334246D01*
X215534091Y-101072685D01*
X215493943Y-100897801D01*
X215470196Y-100796917D01*
X215443698Y-100683740D01*
X215418737Y-100576603D01*
X215408797Y-100533734D01*
X215367395Y-100354880D01*
X215328703Y-100187960D01*
X215293552Y-100036548D01*
X215262773Y-99904219D01*
X215237198Y-99794548D01*
X215217658Y-99711109D01*
X215205984Y-99661667D01*
X215195170Y-99613573D01*
X215179238Y-99539213D01*
X215159642Y-99445543D01*
X215137835Y-99339519D01*
X215115271Y-99228097D01*
X215112228Y-99212934D01*
X215025628Y-98793712D01*
X214934822Y-98378307D01*
X214883701Y-98154600D01*
X214814380Y-97839995D01*
X214759615Y-97555237D01*
X214719310Y-97299642D01*
X214693368Y-97072525D01*
X214681691Y-96873201D01*
X214682602Y-96732200D01*
X214701663Y-96512224D01*
X214740346Y-96317702D01*
X214800067Y-96145531D01*
X214882243Y-95992609D01*
X214988292Y-95855832D01*
X215119629Y-95732098D01*
X215150408Y-95707594D01*
X215196830Y-95671637D01*
X215213098Y-95710852D01*
X215221545Y-95738342D01*
X215236159Y-95793528D01*
X215255615Y-95871080D01*
X215278585Y-95965668D01*
X215303744Y-96071959D01*
X215315522Y-96122600D01*
X215343700Y-96244453D01*
X215372334Y-96368297D01*
X215399501Y-96485813D01*
X215423278Y-96588682D01*
X215441741Y-96668584D01*
X215444702Y-96681400D01*
X215518464Y-96993104D01*
X215592104Y-97289400D01*
X215664683Y-97566822D01*
X215735265Y-97821901D01*
X215802910Y-98051169D01*
X215866681Y-98251159D01*
X215879819Y-98290067D01*
X216000292Y-98616177D01*
X216131981Y-98922860D01*
X216273559Y-99207871D01*
X216423697Y-99468965D01*
X216581067Y-99703898D01*
X216744340Y-99910424D01*
X216912189Y-100086299D01*
X216977406Y-100145068D01*
X217029704Y-100189511D01*
X217067901Y-100217579D01*
X217094244Y-100226558D01*
X217110981Y-100213733D01*
X217120361Y-100176390D01*
X217124630Y-100111813D01*
X217126037Y-100017288D01*
X217126330Y-99965195D01*
X217116190Y-99732435D01*
X217082520Y-99497580D01*
X217024208Y-99255441D01*
X216940142Y-99000828D01*
X216894394Y-98882734D01*
X216867874Y-98817981D01*
X216840477Y-98753396D01*
X216810508Y-98685387D01*
X216776272Y-98610365D01*
X216736074Y-98524738D01*
X216688220Y-98424917D01*
X216631013Y-98307310D01*
X216562759Y-98168328D01*
X216481764Y-98004381D01*
X216438740Y-97917534D01*
X216323750Y-97681652D01*
X216225546Y-97470925D01*
X216142996Y-97281770D01*
X216074971Y-97110603D01*
X216020338Y-96953839D01*
X215977968Y-96807896D01*
X215946728Y-96669189D01*
X215925489Y-96534135D01*
X215913119Y-96399149D01*
X215908487Y-96260648D01*
X215908388Y-96236900D01*
X215908320Y-96046400D01*
X215955254Y-96046400D01*
X216002924Y-96051795D01*
X216075701Y-96066727D01*
X216166807Y-96089313D01*
X216269464Y-96117676D01*
X216376896Y-96149933D01*
X216482324Y-96184204D01*
X216578970Y-96218610D01*
X216587322Y-96221769D01*
X216701587Y-96266955D01*
X216813881Y-96315220D01*
X216928026Y-96368616D01*
X217047842Y-96429195D01*
X217177151Y-96499010D01*
X217319774Y-96580114D01*
X217479533Y-96674560D01*
X217660249Y-96784399D01*
X217828185Y-96888284D01*
X217932453Y-96952770D01*
X218035188Y-97015574D01*
X218130215Y-97072974D01*
X218211357Y-97121249D01*
X218272438Y-97156678D01*
X218289618Y-97166282D01*
X218361647Y-97209607D01*
X218403455Y-97243767D01*
X218414453Y-97264590D01*
X218401749Y-97305755D01*
X218368879Y-97356423D01*
X218323708Y-97407091D01*
X218274102Y-97448257D01*
X218251321Y-97461704D01*
X218191021Y-97480210D01*
X218106512Y-97490738D01*
X218006509Y-97493248D01*
X217899726Y-97487697D01*
X217794877Y-97474045D01*
X217745587Y-97464095D01*
X217620520Y-97435594D01*
X217521647Y-97414087D01*
X217442310Y-97398334D01*
X217375852Y-97387099D01*
X217315616Y-97379142D01*
X217258753Y-97373550D01*
X217191765Y-97368769D01*
X217151884Y-97369044D01*
X217132630Y-97375089D01*
X217127522Y-97387620D01*
X217127520Y-97388034D01*
X217134892Y-97407514D01*
X217156116Y-97454498D01*
X217189853Y-97526223D01*
X217234764Y-97619923D01*
X217289510Y-97732834D01*
X217352750Y-97862193D01*
X217423147Y-98005234D01*
X217499362Y-98159194D01*
X217565517Y-98292168D01*
X217684899Y-98531981D01*
X217790168Y-98744334D01*
X217882616Y-98931929D01*
X217963533Y-99097466D01*
X218034210Y-99243646D01*
X218095938Y-99373170D01*
X218150009Y-99488741D01*
X218197714Y-99593058D01*
X218240343Y-99688822D01*
X218279188Y-99778735D01*
X218302417Y-99833877D01*
X218397191Y-100065030D01*
X218478227Y-100272003D01*
X218547492Y-100460621D01*
X218606950Y-100636712D01*
X218658566Y-100806100D01*
X218704306Y-100974612D01*
X218746135Y-101148074D01*
X218746983Y-101151801D01*
X218763783Y-101228999D01*
X218776012Y-101295975D01*
X218784402Y-101360883D01*
X218789684Y-101431876D01*
X218792588Y-101517109D01*
X218793846Y-101624737D01*
X218794055Y-101676734D01*
X218794079Y-101791009D01*
X218793063Y-101877650D01*
X218790436Y-101942886D01*
X218785629Y-101992945D01*
X218778072Y-102034057D01*
X218767196Y-102072450D01*
X218754574Y-102108534D01*
X218683905Y-102261455D01*
X218592846Y-102389120D01*
X218480512Y-102492055D01*
X218346021Y-102570785D01*
X218188490Y-102625837D01*
X218007034Y-102657736D01*
X217816064Y-102667084D01*
X217649963Y-102658907D01*
X217504114Y-102632782D01*
X217368291Y-102585530D01*
X217232270Y-102513974D01*
X217148582Y-102459618D01*
X217047330Y-102382429D01*
X216947729Y-102290487D01*
X216847861Y-102181247D01*
X216745809Y-102052165D01*
X216639656Y-101900696D01*
X216527485Y-101724297D01*
X216407379Y-101520422D01*
X216310863Y-101347819D01*
X216233927Y-101208313D01*
X216171569Y-101096840D01*
X216122632Y-101011445D01*
X216085962Y-100950169D01*
X216060401Y-100911058D01*
X216044794Y-100892153D01*
X216040209Y-100889658D01*
X216025023Y-100904988D01*
X216009794Y-100947002D01*
X215995913Y-101008547D01*
X215984772Y-101082469D01*
X215977763Y-101161618D01*
X215976053Y-101219497D01*
X215977451Y-101304327D01*
X215982452Y-101382964D01*
X215992265Y-101460511D01*
X216008099Y-101542068D01*
X216031164Y-101632737D01*
X216062669Y-101737618D01*
X216103825Y-101861813D01*
X216155840Y-102010423D01*
X216178815Y-102074667D01*
X216241188Y-102254160D01*
X216294359Y-102419141D01*
X216337198Y-102565704D01*
X216368575Y-102689940D01*
X216387361Y-102787941D01*
X216389373Y-102802937D01*
X216400800Y-102896207D01*
X216632926Y-102897434D01*
X216722552Y-102898610D01*
X216798598Y-102902000D01*
X216867657Y-102908957D01*
X216936322Y-102920835D01*
X217011186Y-102938987D01*
X217098841Y-102964769D01*
X217205880Y-102999534D01*
X217322703Y-103039097D01*
X217413322Y-103069224D01*
X217498725Y-103096090D01*
X217570888Y-103117278D01*
X217621785Y-103130368D01*
X217632490Y-103132489D01*
X217685909Y-103149239D01*
X217738648Y-103183342D01*
X217794678Y-103238493D01*
X217857970Y-103318387D01*
X217906012Y-103387001D01*
X218011961Y-103556818D01*
X218120496Y-103755752D01*
X218229739Y-103979348D01*
X218337812Y-104223153D01*
X218442835Y-104482712D01*
X218542930Y-104753570D01*
X218636218Y-105031273D01*
X218720821Y-105311367D01*
X218727324Y-105334334D01*
X218815714Y-105674459D01*
X218885575Y-106000547D01*
X218936548Y-106309992D01*
X218968274Y-106600186D01*
X218980394Y-106868522D01*
X218972549Y-107112396D01*
X218972425Y-107113993D01*
X218946483Y-107309051D01*
X218901535Y-107482399D01*
X218838564Y-107632369D01*
X218758557Y-107757294D01*
X218662500Y-107855504D01*
X218551379Y-107925334D01*
X218476384Y-107953347D01*
X218411460Y-107965549D01*
X218328068Y-107972375D01*
X218237662Y-107973822D01*
X218151694Y-107969888D01*
X218081618Y-107960571D01*
X218054763Y-107953423D01*
X217965687Y-107909096D01*
X217924246Y-107878584D01*
X217924246Y-106020134D01*
X217933932Y-106003938D01*
X217936021Y-105956528D01*
X217930620Y-105879668D01*
X217917836Y-105775123D01*
X217903764Y-105681467D01*
X217866234Y-105489952D01*
X217813812Y-105285298D01*
X217749938Y-105078339D01*
X217678051Y-104879913D01*
X217601590Y-104700856D01*
X217575317Y-104646621D01*
X217478883Y-104471444D01*
X217380443Y-104325337D01*
X217280895Y-104209015D01*
X217181136Y-104123192D01*
X217082065Y-104068581D01*
X216984579Y-104045898D01*
X216889577Y-104055857D01*
X216850398Y-104070048D01*
X216805626Y-104092097D01*
X216777212Y-104110403D01*
X216771920Y-104117234D01*
X216780548Y-104136594D01*
X216803281Y-104175955D01*
X216835389Y-104227173D01*
X216838838Y-104232487D01*
X216882317Y-104303786D01*
X216926387Y-104385909D01*
X216973172Y-104483425D01*
X217024794Y-104600907D01*
X217083377Y-104742925D01*
X217127914Y-104854933D01*
X217200767Y-105037457D01*
X217265134Y-105192053D01*
X217323122Y-105322957D01*
X217376839Y-105434406D01*
X217428392Y-105530640D01*
X217479890Y-105615894D01*
X217533440Y-105694408D01*
X217569497Y-105742733D01*
X217620888Y-105801787D01*
X217683732Y-105862541D01*
X217751446Y-105919849D01*
X217817451Y-105968564D01*
X217875167Y-106003541D01*
X217918011Y-106019634D01*
X217924246Y-106020134D01*
X217924246Y-107878584D01*
X217870310Y-107838871D01*
X217775111Y-107748211D01*
X217687224Y-107643455D01*
X217603752Y-107518529D01*
X217517487Y-107364506D01*
X217430392Y-107185819D01*
X217344432Y-106986901D01*
X217261571Y-106772185D01*
X217183774Y-106546105D01*
X217142441Y-106413834D01*
X217119526Y-106337843D01*
X217093479Y-106251669D01*
X217075921Y-106193700D01*
X217066334Y-106161732D01*
X217055779Y-106125668D01*
X217043427Y-106082505D01*
X217028449Y-106029244D01*
X217010019Y-105962881D01*
X216987307Y-105880416D01*
X216959485Y-105778847D01*
X216925727Y-105655172D01*
X216885202Y-105506389D01*
X216837085Y-105329497D01*
X216808477Y-105224267D01*
X216733460Y-104952522D01*
X216664362Y-104711563D01*
X216600319Y-104498994D01*
X216540463Y-104312422D01*
X216483930Y-104149452D01*
X216429854Y-104007689D01*
X216377369Y-103884739D01*
X216325610Y-103778208D01*
X216273711Y-103685700D01*
X216225409Y-103611367D01*
X216157413Y-103514001D01*
X215754466Y-103514001D01*
X215641049Y-103514608D01*
X215539202Y-103516313D01*
X215453715Y-103518940D01*
X215389380Y-103522315D01*
X215350989Y-103526262D01*
X215342207Y-103529067D01*
X215341801Y-103552325D01*
X215349371Y-103603764D01*
X215363858Y-103678928D01*
X215384200Y-103773360D01*
X215409339Y-103882603D01*
X215438213Y-104002199D01*
X215469764Y-104127691D01*
X215502931Y-104254623D01*
X215536654Y-104378538D01*
X215569874Y-104494977D01*
X215580246Y-104530000D01*
X215678900Y-104844778D01*
X215792199Y-105179878D01*
X215916992Y-105526809D01*
X216050129Y-105877079D01*
X216188460Y-106222194D01*
X216328836Y-106553664D01*
X216342218Y-106584261D01*
X216381813Y-106674803D01*
X216416236Y-106754060D01*
X216443352Y-106817068D01*
X216461023Y-106858862D01*
X216467120Y-106874438D01*
X216473798Y-106891053D01*
X216491888Y-106931853D01*
X216518472Y-106990341D01*
X216544549Y-107046911D01*
X216579480Y-107122363D01*
X216611903Y-107192577D01*
X216637431Y-107248044D01*
X216648605Y-107272468D01*
X216676994Y-107334068D01*
X216716802Y-107419321D01*
X216764785Y-107521355D01*
X216817702Y-107633293D01*
X216872308Y-107748261D01*
X216925362Y-107859386D01*
X216932523Y-107874334D01*
X216963782Y-107938780D01*
X217008372Y-108029616D01*
X217064372Y-108142997D01*
X217129857Y-108275076D01*
X217202905Y-108422007D01*
X217281591Y-108579945D01*
X217363994Y-108745043D01*
X217448189Y-108913456D01*
X217532254Y-109081337D01*
X217614264Y-109244841D01*
X217692298Y-109400122D01*
X217764431Y-109543334D01*
X217828740Y-109670630D01*
X217883302Y-109778166D01*
X217926194Y-109862094D01*
X217938268Y-109885519D01*
X217979890Y-109967302D01*
X218015282Y-110039319D01*
X218041739Y-110095865D01*
X218056555Y-110131237D01*
X218058762Y-110139519D01*
X218044027Y-110165641D01*
X218003786Y-110201670D01*
X217943726Y-110244320D01*
X217869535Y-110290306D01*
X217786900Y-110336344D01*
X217701506Y-110379148D01*
X217619042Y-110415434D01*
X217545193Y-110441917D01*
X217525717Y-110447420D01*
X217369131Y-110471126D01*
X217207503Y-110463555D01*
X217046131Y-110425679D01*
X216890313Y-110358469D01*
X216822720Y-110318461D01*
X216755580Y-110269062D01*
X216674269Y-110200126D01*
X216585838Y-110118509D01*
X216497334Y-110031068D01*
X216415807Y-109944661D01*
X216348308Y-109866143D01*
X216320676Y-109830134D01*
X216261290Y-109747649D01*
X216208143Y-109672446D01*
X216159010Y-109600878D01*
X216111670Y-109529297D01*
X216063899Y-109454057D01*
X216013475Y-109371508D01*
X215958176Y-109278004D01*
X215895779Y-109169898D01*
X215824061Y-109043541D01*
X215740800Y-108895285D01*
X215643773Y-108721485D01*
X215629350Y-108695600D01*
X215508446Y-108479916D01*
X215401793Y-108292602D01*
X215308297Y-108131841D01*
X215226860Y-107995815D01*
X215156388Y-107882707D01*
X215095784Y-107790697D01*
X215043952Y-107717968D01*
X215025611Y-107694097D01*
X214996394Y-107652763D01*
X214979053Y-107620005D01*
X214976986Y-107611315D01*
X214988877Y-107582576D01*
X215021894Y-107535381D01*
X215072053Y-107473999D01*
X215135368Y-107402700D01*
X215207858Y-107325752D01*
X215285536Y-107247424D01*
X215364420Y-107171987D01*
X215440524Y-107103709D01*
X215486730Y-107065096D01*
X215562602Y-107017965D01*
X215638465Y-107002065D01*
X215721177Y-107016626D01*
X215764532Y-107033848D01*
X215830452Y-107074090D01*
X215891091Y-107134437D01*
X215950418Y-107219555D01*
X216001810Y-107312957D01*
X216060289Y-107419216D01*
X216114629Y-107497679D01*
X216168774Y-107553434D01*
X216211248Y-107583191D01*
X216246184Y-107602358D01*
X216260757Y-107603049D01*
X216263867Y-107583834D01*
X216263897Y-107574725D01*
X216260197Y-107530236D01*
X216250116Y-107460844D01*
X216235126Y-107374588D01*
X216216700Y-107279508D01*
X216196310Y-107183643D01*
X216177668Y-107104023D01*
X216144862Y-106978079D01*
X216107476Y-106848272D01*
X216064392Y-106711594D01*
X216014492Y-106565032D01*
X215956657Y-106405578D01*
X215889771Y-106230220D01*
X215812714Y-106035948D01*
X215724369Y-105819752D01*
X215623618Y-105578621D01*
X215523546Y-105342800D01*
X215405234Y-105064227D01*
X215300472Y-104814562D01*
X215208537Y-104592001D01*
X215128704Y-104394740D01*
X215060250Y-104220977D01*
X215002450Y-104068906D01*
X214954581Y-103936726D01*
X214927541Y-103857906D01*
X214831070Y-103553685D01*
X214753352Y-103273822D01*
X214693687Y-103014953D01*
X214651374Y-102773715D01*
X214625715Y-102546742D01*
X214616477Y-102362534D01*
X214612920Y-102184734D01*
X214680653Y-102186144D01*
G36*
X213553522Y-108811264D02*
G01*
X213588274Y-108648230D01*
X213642721Y-108508270D01*
X213716508Y-108393740D01*
X213726939Y-108381482D01*
X213776867Y-108334360D01*
X213839278Y-108288961D01*
X213904269Y-108251244D01*
X213961937Y-108227169D01*
X213992554Y-108221626D01*
X214025622Y-108233471D01*
X214078297Y-108267167D01*
X214147198Y-108319692D01*
X214228946Y-108388026D01*
X214320163Y-108469146D01*
X214417468Y-108560030D01*
X214517484Y-108657658D01*
X214616831Y-108759008D01*
X214712129Y-108861058D01*
X214730928Y-108881867D01*
X214842561Y-109008209D01*
X214949312Y-109133539D01*
X215052730Y-109260192D01*
X215154361Y-109390505D01*
X215255752Y-109526814D01*
X215358450Y-109671455D01*
X215464004Y-109826766D01*
X215573959Y-109995081D01*
X215689863Y-110178737D01*
X215813263Y-110380072D01*
X215945706Y-110601420D01*
X216088740Y-110845118D01*
X216243911Y-111113503D01*
X216412767Y-111408911D01*
X216463437Y-111498067D01*
X216585918Y-111713246D01*
X216694472Y-111902582D01*
X216791435Y-112069937D01*
X216879143Y-112219174D01*
X216959934Y-112354155D01*
X217036143Y-112478742D01*
X217110106Y-112596799D01*
X217184162Y-112712187D01*
X217260644Y-112828769D01*
X217341892Y-112950408D01*
X217342631Y-112951506D01*
X217609113Y-113327516D01*
X217880766Y-113670980D01*
X218158500Y-113982950D01*
X218443225Y-114264477D01*
X218600720Y-114404656D01*
X218658318Y-114452523D01*
X218724980Y-114505634D01*
X218795171Y-114559856D01*
X218863356Y-114611059D01*
X218923998Y-114655110D01*
X218971564Y-114687879D01*
X219000519Y-114705233D01*
X219005693Y-114706934D01*
X219010237Y-114691682D01*
X219009718Y-114651866D01*
X219004818Y-114601100D01*
X218999754Y-114552788D01*
X218992935Y-114475061D01*
X218984664Y-114372312D01*
X218975248Y-114248930D01*
X218964989Y-114109305D01*
X218954193Y-113957829D01*
X218943165Y-113798891D01*
X218932209Y-113636882D01*
X218921629Y-113476192D01*
X218911730Y-113321212D01*
X218902817Y-113176333D01*
X218895195Y-113045943D01*
X218889167Y-112934435D01*
X218889103Y-112933167D01*
X218876489Y-112683630D01*
X218865605Y-112464541D01*
X218856295Y-112272531D01*
X218848402Y-112104236D01*
X218841769Y-111956287D01*
X218836241Y-111825318D01*
X218831662Y-111707962D01*
X218829578Y-111650467D01*
X218822228Y-111425002D01*
X218815079Y-111173576D01*
X218808290Y-110904094D01*
X218802024Y-110624462D01*
X218796441Y-110342587D01*
X218791702Y-110066372D01*
X218787970Y-109803725D01*
X218785403Y-109562551D01*
X218784545Y-109441400D01*
X218781015Y-108807132D01*
X218915234Y-108682594D01*
X219123596Y-108504072D01*
X219329181Y-108358035D01*
X219533632Y-108243394D01*
X219659053Y-108188192D01*
X219730323Y-108162059D01*
X219803415Y-108138574D01*
X219870778Y-108119767D01*
X219924862Y-108107665D01*
X219958115Y-108104299D01*
X219964280Y-108106183D01*
X219964072Y-108124472D01*
X219958751Y-108170048D01*
X219949150Y-108236859D01*
X219936107Y-108318852D01*
X219929547Y-108357858D01*
X219896375Y-108562643D01*
X219866191Y-108772427D01*
X219838413Y-108992335D01*
X219812463Y-109227494D01*
X219787760Y-109483028D01*
X219763725Y-109764062D01*
X219748618Y-109957134D01*
X219743328Y-110047848D01*
X219738758Y-110168120D01*
X219734908Y-110313650D01*
X219731779Y-110480137D01*
X219729370Y-110663280D01*
X219727683Y-110858778D01*
X219726716Y-111062332D01*
X219726470Y-111269640D01*
X219726946Y-111476401D01*
X219728144Y-111678315D01*
X219730063Y-111871081D01*
X219732704Y-112050399D01*
X219736067Y-112211967D01*
X219740152Y-112351486D01*
X219744960Y-112464654D01*
X219748509Y-112522534D01*
X219757267Y-112643021D01*
X219766779Y-112774212D01*
X219776104Y-112903074D01*
X219784296Y-113016576D01*
X219787129Y-113055934D01*
X219821177Y-113467764D01*
X219864832Y-113894539D01*
X219917109Y-114329621D01*
X219977022Y-114766372D01*
X220043584Y-115198152D01*
X220115811Y-115618324D01*
X220192715Y-116020250D01*
X220273311Y-116397290D01*
X220301419Y-116518800D01*
X220314751Y-116577729D01*
X220324217Y-116624304D01*
X220327670Y-116647494D01*
X220315806Y-116666780D01*
X220284176Y-116700944D01*
X220239103Y-116743276D01*
X220229108Y-116752066D01*
X220037301Y-116904697D01*
X219846545Y-117028483D01*
X219659559Y-117121752D01*
X219574387Y-117154353D01*
X219499755Y-117172463D01*
X219402678Y-117185334D01*
X219294249Y-117192441D01*
X219185559Y-117193261D01*
X219087701Y-117187267D01*
X219036822Y-117179799D01*
X218892754Y-117137355D01*
X218740519Y-117066139D01*
X218584506Y-116968833D01*
X218429105Y-116848119D01*
X218303226Y-116731567D01*
X218213693Y-116638064D01*
X218124098Y-116535964D01*
X218033002Y-116423082D01*
X217938970Y-116297231D01*
X217840566Y-116156225D01*
X217736353Y-115997878D01*
X217624895Y-115820004D01*
X217504755Y-115620416D01*
X217374498Y-115396929D01*
X217232686Y-115147355D01*
X217077884Y-114869510D01*
X217067585Y-114850867D01*
X216988999Y-114709328D01*
X216908367Y-114565524D01*
X216828807Y-114424921D01*
X216753439Y-114292982D01*
X216685383Y-114175173D01*
X216627757Y-114076959D01*
X216589124Y-114012667D01*
X216476540Y-113828512D01*
X216378685Y-113668118D01*
X216292538Y-113526406D01*
X216215078Y-113398295D01*
X216143283Y-113278706D01*
X216074132Y-113162557D01*
X216004603Y-113044770D01*
X215931674Y-112920263D01*
X215852324Y-112783957D01*
X215763531Y-112630772D01*
X215662274Y-112455628D01*
X215637344Y-112412467D01*
X215489443Y-112157646D01*
X215355595Y-111929859D01*
X215233994Y-111726218D01*
X215122836Y-111543833D01*
X215020315Y-111379814D01*
X214924627Y-111231272D01*
X214833966Y-111095317D01*
X214746528Y-110969059D01*
X214664168Y-110854600D01*
X214520538Y-110667924D01*
X214362510Y-110478908D01*
X214196641Y-110294691D01*
X214029487Y-110122408D01*
X213867606Y-109969197D01*
X213783049Y-109895524D01*
X213730823Y-109850255D01*
X213690768Y-109810034D01*
X213660258Y-109768917D01*
X213636666Y-109720956D01*
X213617368Y-109660206D01*
X213599739Y-109580720D01*
X213581151Y-109476553D01*
X213570991Y-109415267D01*
X213544525Y-109197138D01*
X213538821Y-108995018D01*
X213553522Y-108811264D01*
G37*
X213553522Y-108811264D02*
X213588274Y-108648230D01*
X213642721Y-108508270D01*
X213716508Y-108393740D01*
X213726939Y-108381482D01*
X213776867Y-108334360D01*
X213839278Y-108288961D01*
X213904269Y-108251244D01*
X213961937Y-108227169D01*
X213992554Y-108221626D01*
X214025622Y-108233471D01*
X214078297Y-108267167D01*
X214147198Y-108319692D01*
X214228946Y-108388026D01*
X214320163Y-108469146D01*
X214417468Y-108560030D01*
X214517484Y-108657658D01*
X214616831Y-108759008D01*
X214712129Y-108861058D01*
X214730928Y-108881867D01*
X214842561Y-109008209D01*
X214949312Y-109133539D01*
X215052730Y-109260192D01*
X215154361Y-109390505D01*
X215255752Y-109526814D01*
X215358450Y-109671455D01*
X215464004Y-109826766D01*
X215573959Y-109995081D01*
X215689863Y-110178737D01*
X215813263Y-110380072D01*
X215945706Y-110601420D01*
X216088740Y-110845118D01*
X216243911Y-111113503D01*
X216412767Y-111408911D01*
X216463437Y-111498067D01*
X216585918Y-111713246D01*
X216694472Y-111902582D01*
X216791435Y-112069937D01*
X216879143Y-112219174D01*
X216959934Y-112354155D01*
X217036143Y-112478742D01*
X217110106Y-112596799D01*
X217184162Y-112712187D01*
X217260644Y-112828769D01*
X217341892Y-112950408D01*
X217342631Y-112951506D01*
X217609113Y-113327516D01*
X217880766Y-113670980D01*
X218158500Y-113982950D01*
X218443225Y-114264477D01*
X218600720Y-114404656D01*
X218658318Y-114452523D01*
X218724980Y-114505634D01*
X218795171Y-114559856D01*
X218863356Y-114611059D01*
X218923998Y-114655110D01*
X218971564Y-114687879D01*
X219000519Y-114705233D01*
X219005693Y-114706934D01*
X219010237Y-114691682D01*
X219009718Y-114651866D01*
X219004818Y-114601100D01*
X218999754Y-114552788D01*
X218992935Y-114475061D01*
X218984664Y-114372312D01*
X218975248Y-114248930D01*
X218964989Y-114109305D01*
X218954193Y-113957829D01*
X218943165Y-113798891D01*
X218932209Y-113636882D01*
X218921629Y-113476192D01*
X218911730Y-113321212D01*
X218902817Y-113176333D01*
X218895195Y-113045943D01*
X218889167Y-112934435D01*
X218889103Y-112933167D01*
X218876489Y-112683630D01*
X218865605Y-112464541D01*
X218856295Y-112272531D01*
X218848402Y-112104236D01*
X218841769Y-111956287D01*
X218836241Y-111825318D01*
X218831662Y-111707962D01*
X218829578Y-111650467D01*
X218822228Y-111425002D01*
X218815079Y-111173576D01*
X218808290Y-110904094D01*
X218802024Y-110624462D01*
X218796441Y-110342587D01*
X218791702Y-110066372D01*
X218787970Y-109803725D01*
X218785403Y-109562551D01*
X218784545Y-109441400D01*
X218781015Y-108807132D01*
X218915234Y-108682594D01*
X219123596Y-108504072D01*
X219329181Y-108358035D01*
X219533632Y-108243394D01*
X219659053Y-108188192D01*
X219730323Y-108162059D01*
X219803415Y-108138574D01*
X219870778Y-108119767D01*
X219924862Y-108107665D01*
X219958115Y-108104299D01*
X219964280Y-108106183D01*
X219964072Y-108124472D01*
X219958751Y-108170048D01*
X219949150Y-108236859D01*
X219936107Y-108318852D01*
X219929547Y-108357858D01*
X219896375Y-108562643D01*
X219866191Y-108772427D01*
X219838413Y-108992335D01*
X219812463Y-109227494D01*
X219787760Y-109483028D01*
X219763725Y-109764062D01*
X219748618Y-109957134D01*
X219743328Y-110047848D01*
X219738758Y-110168120D01*
X219734908Y-110313650D01*
X219731779Y-110480137D01*
X219729370Y-110663280D01*
X219727683Y-110858778D01*
X219726716Y-111062332D01*
X219726470Y-111269640D01*
X219726946Y-111476401D01*
X219728144Y-111678315D01*
X219730063Y-111871081D01*
X219732704Y-112050399D01*
X219736067Y-112211967D01*
X219740152Y-112351486D01*
X219744960Y-112464654D01*
X219748509Y-112522534D01*
X219757267Y-112643021D01*
X219766779Y-112774212D01*
X219776104Y-112903074D01*
X219784296Y-113016576D01*
X219787129Y-113055934D01*
X219821177Y-113467764D01*
X219864832Y-113894539D01*
X219917109Y-114329621D01*
X219977022Y-114766372D01*
X220043584Y-115198152D01*
X220115811Y-115618324D01*
X220192715Y-116020250D01*
X220273311Y-116397290D01*
X220301419Y-116518800D01*
X220314751Y-116577729D01*
X220324217Y-116624304D01*
X220327670Y-116647494D01*
X220315806Y-116666780D01*
X220284176Y-116700944D01*
X220239103Y-116743276D01*
X220229108Y-116752066D01*
X220037301Y-116904697D01*
X219846545Y-117028483D01*
X219659559Y-117121752D01*
X219574387Y-117154353D01*
X219499755Y-117172463D01*
X219402678Y-117185334D01*
X219294249Y-117192441D01*
X219185559Y-117193261D01*
X219087701Y-117187267D01*
X219036822Y-117179799D01*
X218892754Y-117137355D01*
X218740519Y-117066139D01*
X218584506Y-116968833D01*
X218429105Y-116848119D01*
X218303226Y-116731567D01*
X218213693Y-116638064D01*
X218124098Y-116535964D01*
X218033002Y-116423082D01*
X217938970Y-116297231D01*
X217840566Y-116156225D01*
X217736353Y-115997878D01*
X217624895Y-115820004D01*
X217504755Y-115620416D01*
X217374498Y-115396929D01*
X217232686Y-115147355D01*
X217077884Y-114869510D01*
X217067585Y-114850867D01*
X216988999Y-114709328D01*
X216908367Y-114565524D01*
X216828807Y-114424921D01*
X216753439Y-114292982D01*
X216685383Y-114175173D01*
X216627757Y-114076959D01*
X216589124Y-114012667D01*
X216476540Y-113828512D01*
X216378685Y-113668118D01*
X216292538Y-113526406D01*
X216215078Y-113398295D01*
X216143283Y-113278706D01*
X216074132Y-113162557D01*
X216004603Y-113044770D01*
X215931674Y-112920263D01*
X215852324Y-112783957D01*
X215763531Y-112630772D01*
X215662274Y-112455628D01*
X215637344Y-112412467D01*
X215489443Y-112157646D01*
X215355595Y-111929859D01*
X215233994Y-111726218D01*
X215122836Y-111543833D01*
X215020315Y-111379814D01*
X214924627Y-111231272D01*
X214833966Y-111095317D01*
X214746528Y-110969059D01*
X214664168Y-110854600D01*
X214520538Y-110667924D01*
X214362510Y-110478908D01*
X214196641Y-110294691D01*
X214029487Y-110122408D01*
X213867606Y-109969197D01*
X213783049Y-109895524D01*
X213730823Y-109850255D01*
X213690768Y-109810034D01*
X213660258Y-109768917D01*
X213636666Y-109720956D01*
X213617368Y-109660206D01*
X213599739Y-109580720D01*
X213581151Y-109476553D01*
X213570991Y-109415267D01*
X213544525Y-109197138D01*
X213538821Y-108995018D01*
X213553522Y-108811264D01*
D13*
%TO.C,D1*%
X207151480Y-60936320D02*
X207151480Y-64786320D01*
X205151480Y-60936320D02*
X205151480Y-64786320D01*
X207151480Y-60936320D02*
X205151480Y-60936320D01*
%TO.C,J5*%
X209847920Y-85295760D02*
X222067920Y-85295760D01*
X222067920Y-85295760D02*
X222067920Y-72915760D01*
X222067920Y-72915760D02*
X209847920Y-72915760D01*
X209847920Y-72915760D02*
X209847920Y-85295760D01*
X220567920Y-85295760D02*
X218767920Y-85295760D01*
X218767920Y-85295760D02*
X218767920Y-72915760D01*
X218767920Y-72915760D02*
X220567920Y-72915760D01*
X220567920Y-72915760D02*
X220567920Y-85295760D01*
X222067920Y-82645760D02*
X222067920Y-80645760D01*
X222067920Y-80645760D02*
X220567920Y-80895760D01*
X220567920Y-80895760D02*
X220567920Y-82395760D01*
X220567920Y-82395760D02*
X222067920Y-82645760D01*
X222067920Y-77565760D02*
X222067920Y-75565760D01*
X222067920Y-75565760D02*
X220567920Y-75815760D01*
X220567920Y-75815760D02*
X220567920Y-77315760D01*
X220567920Y-77315760D02*
X222067920Y-77565760D01*
X209047920Y-81345760D02*
X209647920Y-81645760D01*
X209647920Y-81645760D02*
X209047920Y-81945760D01*
X209047920Y-81945760D02*
X209047920Y-81345760D01*
%TO.C,J1*%
X101365000Y-76065000D02*
X102365000Y-75565000D01*
X101365000Y-75065000D02*
X101365000Y-76065000D01*
X102365000Y-75565000D02*
X101365000Y-75065000D01*
X104065000Y-92855000D02*
X102755000Y-92855000D01*
X104065000Y-92855000D02*
X104065000Y-92855000D01*
X104065000Y-109955000D02*
X104065000Y-92855000D01*
X110565000Y-109955000D02*
X104065000Y-109955000D01*
X110565000Y-71655000D02*
X110565000Y-109955000D01*
X104065000Y-71655000D02*
X110565000Y-71655000D01*
X104065000Y-88755000D02*
X104065000Y-71655000D01*
X102755000Y-88755000D02*
X104065000Y-88755000D01*
X102755000Y-111255000D02*
X102755000Y-70355000D01*
X111875000Y-111255000D02*
X102755000Y-111255000D01*
X111875000Y-70355000D02*
X111875000Y-111255000D01*
X102755000Y-70355000D02*
X111875000Y-70355000D01*
%TO.C,J2*%
X125730000Y-68996325D02*
X125980000Y-69429338D01*
X125480000Y-69429338D02*
X125730000Y-68996325D01*
X125980000Y-69429338D02*
X125480000Y-69429338D01*
X115740000Y-68535000D02*
X115740000Y-56195000D01*
X168960000Y-68535000D02*
X115740000Y-68535000D01*
X168960000Y-56195000D02*
X168960000Y-68535000D01*
%TO.C,U3*%
X153976000Y-112804000D02*
X153976000Y-110989000D01*
X154211000Y-112804000D02*
X153976000Y-112804000D01*
X154211000Y-116664000D02*
X154211000Y-112804000D01*
X154211000Y-120524000D02*
X153976000Y-120524000D01*
X154211000Y-116664000D02*
X154211000Y-120524000D01*
X141191000Y-112804000D02*
X141426000Y-112804000D01*
X141191000Y-116664000D02*
X141191000Y-112804000D01*
X141191000Y-120524000D02*
X141426000Y-120524000D01*
X141191000Y-116664000D02*
X141191000Y-120524000D01*
%TO.C,U2*%
X153976000Y-97056000D02*
X153976000Y-95241000D01*
X154211000Y-97056000D02*
X153976000Y-97056000D01*
X154211000Y-100916000D02*
X154211000Y-97056000D01*
X154211000Y-104776000D02*
X153976000Y-104776000D01*
X154211000Y-100916000D02*
X154211000Y-104776000D01*
X141191000Y-97056000D02*
X141426000Y-97056000D01*
X141191000Y-100916000D02*
X141191000Y-97056000D01*
X141191000Y-104776000D02*
X141426000Y-104776000D01*
X141191000Y-100916000D02*
X141191000Y-104776000D01*
%TO.C,J3*%
X197276400Y-130881400D02*
X197276400Y-126431400D01*
X197276400Y-125031400D02*
X197276400Y-122731400D01*
X197276400Y-121331400D02*
X197276400Y-120611400D01*
X197276400Y-120611400D02*
X194596400Y-120611400D01*
X192296400Y-120611400D02*
X188626400Y-120611400D01*
X186326400Y-120611400D02*
X185096400Y-120611400D01*
X185096400Y-120611400D02*
X185096400Y-130431400D01*
X195796400Y-132251400D02*
X194936400Y-132251400D01*
%TO.C,U7*%
X181371600Y-57812000D02*
X202371600Y-57812000D01*
X188171600Y-108812000D02*
X181371600Y-108812000D01*
X181371600Y-60479000D02*
X184378600Y-60479000D01*
X184378600Y-60479000D02*
X184378600Y-57812000D01*
X181371600Y-57812000D02*
X181371600Y-58112000D01*
X181371600Y-60212000D02*
X181371600Y-60612000D01*
X181371600Y-62812000D02*
X181371600Y-63212000D01*
X181371600Y-65312000D02*
X181371600Y-65712000D01*
X181371600Y-67912000D02*
X181371600Y-68312000D01*
X181371600Y-70412000D02*
X181371600Y-70812000D01*
X181371600Y-72912000D02*
X181371600Y-73312000D01*
X181371600Y-75512000D02*
X181371600Y-75912000D01*
X181371600Y-78012000D02*
X181371600Y-78412000D01*
X181371600Y-80612000D02*
X181371600Y-81012000D01*
X181371600Y-83112000D02*
X181371600Y-83512000D01*
X181371600Y-85612000D02*
X181371600Y-86012000D01*
X181371600Y-88212000D02*
X181371600Y-88612000D01*
X181371600Y-90712000D02*
X181371600Y-91112000D01*
X181371600Y-93312000D02*
X181371600Y-93712000D01*
X181371600Y-95812000D02*
X181371600Y-96212000D01*
X181371600Y-98412000D02*
X181371600Y-98812000D01*
X181371600Y-100912000D02*
X181371600Y-101312000D01*
X181371600Y-103412000D02*
X181371600Y-103812000D01*
X181371600Y-106012000D02*
X181371600Y-106412000D01*
X202371600Y-72912000D02*
X202371600Y-73312000D01*
X202371600Y-78012000D02*
X202371600Y-78412000D01*
X202371600Y-85612000D02*
X202371600Y-86012000D01*
X202371600Y-93312000D02*
X202371600Y-93712000D01*
X202371600Y-62812000D02*
X202371600Y-63212000D01*
X202371600Y-60212000D02*
X202371600Y-60612000D01*
X202371600Y-67912000D02*
X202371600Y-68312000D01*
X202371600Y-100912000D02*
X202371600Y-101312000D01*
X202371600Y-106012000D02*
X202371600Y-106412000D01*
X202371600Y-103412000D02*
X202371600Y-103812000D01*
X202371600Y-88212000D02*
X202371600Y-88612000D01*
X202371600Y-83112000D02*
X202371600Y-83512000D01*
X202371600Y-70412000D02*
X202371600Y-70812000D01*
X202371600Y-75512000D02*
X202371600Y-75912000D01*
X202371600Y-95812000D02*
X202371600Y-96212000D01*
X202371600Y-80612000D02*
X202371600Y-81012000D01*
X202371600Y-57812000D02*
X202371600Y-58112000D01*
X202371600Y-65312000D02*
X202371600Y-65712000D01*
X202371600Y-90712000D02*
X202371600Y-91112000D01*
X202371600Y-98412000D02*
X202371600Y-98812000D01*
X202371600Y-108812000D02*
X195571600Y-108812000D01*
X190371600Y-108812000D02*
X190771600Y-108812000D01*
X192971600Y-108812000D02*
X193371600Y-108812000D01*
%TO.C,U1*%
X125411000Y-102225000D02*
X128861000Y-102225000D01*
X125411000Y-102225000D02*
X123461000Y-102225000D01*
X125411000Y-93355000D02*
X127361000Y-93355000D01*
X125411000Y-93355000D02*
X123461000Y-93355000D01*
%TO.C,R5*%
X182304458Y-125969500D02*
X181829942Y-125969500D01*
X182304458Y-127014500D02*
X181829942Y-127014500D01*
%TO.C,R4*%
X182292258Y-122616700D02*
X181817742Y-122616700D01*
X182292258Y-123661700D02*
X181817742Y-123661700D01*
%TO.C,R3*%
X199312500Y-124121142D02*
X199312500Y-124595658D01*
X200357500Y-124121142D02*
X200357500Y-124595658D01*
%TO.C,R2*%
X199324700Y-129404342D02*
X199324700Y-129878858D01*
X200369700Y-129404342D02*
X200369700Y-129878858D01*
%TO.C,J4*%
X169205600Y-91938800D02*
X170535600Y-91938800D01*
X169205600Y-93268800D02*
X169205600Y-91938800D01*
X169205600Y-94538800D02*
X171865600Y-94538800D01*
X171865600Y-94538800D02*
X171865600Y-102218800D01*
X169205600Y-94538800D02*
X169205600Y-102218800D01*
X169205600Y-102218800D02*
X171865600Y-102218800D01*
%TO.C,C6*%
X152781580Y-124458000D02*
X152500420Y-124458000D01*
X152781580Y-125478000D02*
X152500420Y-125478000D01*
%TO.C,C3*%
X156161200Y-104953980D02*
X156161200Y-104672820D01*
X155141200Y-104953980D02*
X155141200Y-104672820D01*
%TO.C,C1*%
X125335420Y-104396000D02*
X125616580Y-104396000D01*
X125335420Y-103376000D02*
X125616580Y-103376000D01*
%TO.C,D1*%
D14*
X208508860Y-63747415D02*
X207508860Y-63747415D01*
X207508860Y-63509320D01*
X207556480Y-63366462D01*
X207651718Y-63271224D01*
X207746956Y-63223605D01*
X207937432Y-63175986D01*
X208080289Y-63175986D01*
X208270765Y-63223605D01*
X208366003Y-63271224D01*
X208461241Y-63366462D01*
X208508860Y-63509320D01*
X208508860Y-63747415D01*
X208508860Y-62223605D02*
X208508860Y-62795034D01*
X208508860Y-62509320D02*
X207508860Y-62509320D01*
X207651718Y-62604558D01*
X207746956Y-62699796D01*
X207794575Y-62795034D01*
%TO.C,J5*%
X208210300Y-79439093D02*
X208924586Y-79439093D01*
X209067443Y-79486712D01*
X209162681Y-79581950D01*
X209210300Y-79724807D01*
X209210300Y-79820045D01*
X208210300Y-78486712D02*
X208210300Y-78962902D01*
X208686491Y-79010521D01*
X208638872Y-78962902D01*
X208591253Y-78867664D01*
X208591253Y-78629569D01*
X208638872Y-78534331D01*
X208686491Y-78486712D01*
X208781729Y-78439093D01*
X209019824Y-78439093D01*
X209115062Y-78486712D01*
X209162681Y-78534331D01*
X209210300Y-78629569D01*
X209210300Y-78867664D01*
X209162681Y-78962902D01*
X209115062Y-79010521D01*
%TO.C,J1*%
X106981666Y-68917380D02*
X106981666Y-69631666D01*
X106934047Y-69774523D01*
X106838809Y-69869761D01*
X106695952Y-69917380D01*
X106600714Y-69917380D01*
X107981666Y-69917380D02*
X107410238Y-69917380D01*
X107695952Y-69917380D02*
X107695952Y-68917380D01*
X107600714Y-69060238D01*
X107505476Y-69155476D01*
X107410238Y-69203095D01*
%TO.C,J2*%
X142016666Y-68927380D02*
X142016666Y-69641666D01*
X141969047Y-69784523D01*
X141873809Y-69879761D01*
X141730952Y-69927380D01*
X141635714Y-69927380D01*
X142445238Y-69022619D02*
X142492857Y-68975000D01*
X142588095Y-68927380D01*
X142826190Y-68927380D01*
X142921428Y-68975000D01*
X142969047Y-69022619D01*
X143016666Y-69117857D01*
X143016666Y-69213095D01*
X142969047Y-69355952D01*
X142397619Y-69927380D01*
X143016666Y-69927380D01*
%TO.C,U3*%
X154503380Y-117425904D02*
X155312904Y-117425904D01*
X155408142Y-117378285D01*
X155455761Y-117330666D01*
X155503380Y-117235428D01*
X155503380Y-117044952D01*
X155455761Y-116949714D01*
X155408142Y-116902095D01*
X155312904Y-116854476D01*
X154503380Y-116854476D01*
X154503380Y-116473523D02*
X154503380Y-115854476D01*
X154884333Y-116187809D01*
X154884333Y-116044952D01*
X154931952Y-115949714D01*
X154979571Y-115902095D01*
X155074809Y-115854476D01*
X155312904Y-115854476D01*
X155408142Y-115902095D01*
X155455761Y-115949714D01*
X155503380Y-116044952D01*
X155503380Y-116330666D01*
X155455761Y-116425904D01*
X155408142Y-116473523D01*
%TO.C,U2*%
X154503380Y-101677904D02*
X155312904Y-101677904D01*
X155408142Y-101630285D01*
X155455761Y-101582666D01*
X155503380Y-101487428D01*
X155503380Y-101296952D01*
X155455761Y-101201714D01*
X155408142Y-101154095D01*
X155312904Y-101106476D01*
X154503380Y-101106476D01*
X154598619Y-100677904D02*
X154551000Y-100630285D01*
X154503380Y-100535047D01*
X154503380Y-100296952D01*
X154551000Y-100201714D01*
X154598619Y-100154095D01*
X154693857Y-100106476D01*
X154789095Y-100106476D01*
X154931952Y-100154095D01*
X155503380Y-100725523D01*
X155503380Y-100106476D01*
%TO.C,J3*%
X190944606Y-118414660D02*
X190944606Y-119128946D01*
X190896987Y-119271803D01*
X190801749Y-119367041D01*
X190658892Y-119414660D01*
X190563654Y-119414660D01*
X191325559Y-118414660D02*
X191944606Y-118414660D01*
X191611273Y-118795613D01*
X191754130Y-118795613D01*
X191849368Y-118843232D01*
X191896987Y-118890851D01*
X191944606Y-118986089D01*
X191944606Y-119224184D01*
X191896987Y-119319422D01*
X191849368Y-119367041D01*
X191754130Y-119414660D01*
X191468416Y-119414660D01*
X191373178Y-119367041D01*
X191325559Y-119319422D01*
%TO.C,U7*%
X200963055Y-110098700D02*
X200963055Y-110908224D01*
X201010674Y-111003462D01*
X201058293Y-111051081D01*
X201153531Y-111098700D01*
X201344007Y-111098700D01*
X201439245Y-111051081D01*
X201486864Y-111003462D01*
X201534483Y-110908224D01*
X201534483Y-110098700D01*
X201915436Y-110098700D02*
X202582102Y-110098700D01*
X202153531Y-111098700D01*
%TO.C,U1*%
X127124095Y-91654380D02*
X127124095Y-92463904D01*
X127171714Y-92559142D01*
X127219333Y-92606761D01*
X127314571Y-92654380D01*
X127505047Y-92654380D01*
X127600285Y-92606761D01*
X127647904Y-92559142D01*
X127695523Y-92463904D01*
X127695523Y-91654380D01*
X128695523Y-92654380D02*
X128124095Y-92654380D01*
X128409809Y-92654380D02*
X128409809Y-91654380D01*
X128314571Y-91797238D01*
X128219333Y-91892476D01*
X128124095Y-91940095D01*
%TO.C,R5*%
X182533693Y-128568820D02*
X182200360Y-128092630D01*
X181962264Y-128568820D02*
X181962264Y-127568820D01*
X182343217Y-127568820D01*
X182438455Y-127616440D01*
X182486074Y-127664059D01*
X182533693Y-127759297D01*
X182533693Y-127902154D01*
X182486074Y-127997392D01*
X182438455Y-128045011D01*
X182343217Y-128092630D01*
X181962264Y-128092630D01*
X183438455Y-127568820D02*
X182962264Y-127568820D01*
X182914645Y-128045011D01*
X182962264Y-127997392D01*
X183057502Y-127949773D01*
X183295598Y-127949773D01*
X183390836Y-127997392D01*
X183438455Y-128045011D01*
X183486074Y-128140249D01*
X183486074Y-128378344D01*
X183438455Y-128473582D01*
X183390836Y-128521201D01*
X183295598Y-128568820D01*
X183057502Y-128568820D01*
X182962264Y-128521201D01*
X182914645Y-128473582D01*
%TO.C,R4*%
X181083353Y-125183000D02*
X180750020Y-124706810D01*
X180511924Y-125183000D02*
X180511924Y-124183000D01*
X180892877Y-124183000D01*
X180988115Y-124230620D01*
X181035734Y-124278239D01*
X181083353Y-124373477D01*
X181083353Y-124516334D01*
X181035734Y-124611572D01*
X180988115Y-124659191D01*
X180892877Y-124706810D01*
X180511924Y-124706810D01*
X181940496Y-124516334D02*
X181940496Y-125183000D01*
X181702400Y-124135381D02*
X181464305Y-124849667D01*
X182083353Y-124849667D01*
%TO.C,R3*%
X200348540Y-122230286D02*
X199872350Y-122563620D01*
X200348540Y-122801715D02*
X199348540Y-122801715D01*
X199348540Y-122420762D01*
X199396160Y-122325524D01*
X199443779Y-122277905D01*
X199539017Y-122230286D01*
X199681874Y-122230286D01*
X199777112Y-122277905D01*
X199824731Y-122325524D01*
X199872350Y-122420762D01*
X199872350Y-122801715D01*
X199348540Y-121896953D02*
X199348540Y-121277905D01*
X199729493Y-121611239D01*
X199729493Y-121468381D01*
X199777112Y-121373143D01*
X199824731Y-121325524D01*
X199919969Y-121277905D01*
X200158064Y-121277905D01*
X200253302Y-121325524D01*
X200300921Y-121373143D01*
X200348540Y-121468381D01*
X200348540Y-121754096D01*
X200300921Y-121849334D01*
X200253302Y-121896953D01*
%TO.C,R2*%
X200300280Y-132555386D02*
X199824090Y-132888720D01*
X200300280Y-133126815D02*
X199300280Y-133126815D01*
X199300280Y-132745862D01*
X199347900Y-132650624D01*
X199395519Y-132603005D01*
X199490757Y-132555386D01*
X199633614Y-132555386D01*
X199728852Y-132603005D01*
X199776471Y-132650624D01*
X199824090Y-132745862D01*
X199824090Y-133126815D01*
X199395519Y-132174434D02*
X199347900Y-132126815D01*
X199300280Y-132031577D01*
X199300280Y-131793481D01*
X199347900Y-131698243D01*
X199395519Y-131650624D01*
X199490757Y-131603005D01*
X199585995Y-131603005D01*
X199728852Y-131650624D01*
X200300280Y-132222053D01*
X200300280Y-131603005D01*
%TO.C,J4*%
X170202266Y-90391180D02*
X170202266Y-91105466D01*
X170154647Y-91248323D01*
X170059409Y-91343561D01*
X169916552Y-91391180D01*
X169821314Y-91391180D01*
X171107028Y-90724514D02*
X171107028Y-91391180D01*
X170868933Y-90343561D02*
X170630838Y-91057847D01*
X171249885Y-91057847D01*
%TO.C,C6*%
X153476093Y-126860682D02*
X153428474Y-126908301D01*
X153285617Y-126955920D01*
X153190379Y-126955920D01*
X153047521Y-126908301D01*
X152952283Y-126813063D01*
X152904664Y-126717825D01*
X152857045Y-126527349D01*
X152857045Y-126384492D01*
X152904664Y-126194016D01*
X152952283Y-126098778D01*
X153047521Y-126003540D01*
X153190379Y-125955920D01*
X153285617Y-125955920D01*
X153428474Y-126003540D01*
X153476093Y-126051159D01*
X154333236Y-125955920D02*
X154142760Y-125955920D01*
X154047521Y-126003540D01*
X153999902Y-126051159D01*
X153904664Y-126194016D01*
X153857045Y-126384492D01*
X153857045Y-126765444D01*
X153904664Y-126860682D01*
X153952283Y-126908301D01*
X154047521Y-126955920D01*
X154237998Y-126955920D01*
X154333236Y-126908301D01*
X154380855Y-126860682D01*
X154428474Y-126765444D01*
X154428474Y-126527349D01*
X154380855Y-126432111D01*
X154333236Y-126384492D01*
X154237998Y-126336873D01*
X154047521Y-126336873D01*
X153952283Y-126384492D01*
X153904664Y-126432111D01*
X153857045Y-126527349D01*
%TO.C,C3*%
X155520793Y-107543982D02*
X155473174Y-107591601D01*
X155330317Y-107639220D01*
X155235079Y-107639220D01*
X155092221Y-107591601D01*
X154996983Y-107496363D01*
X154949364Y-107401125D01*
X154901745Y-107210649D01*
X154901745Y-107067792D01*
X154949364Y-106877316D01*
X154996983Y-106782078D01*
X155092221Y-106686840D01*
X155235079Y-106639220D01*
X155330317Y-106639220D01*
X155473174Y-106686840D01*
X155520793Y-106734459D01*
X155854126Y-106639220D02*
X156473174Y-106639220D01*
X156139840Y-107020173D01*
X156282698Y-107020173D01*
X156377936Y-107067792D01*
X156425555Y-107115411D01*
X156473174Y-107210649D01*
X156473174Y-107448744D01*
X156425555Y-107543982D01*
X156377936Y-107591601D01*
X156282698Y-107639220D01*
X155996983Y-107639220D01*
X155901745Y-107591601D01*
X155854126Y-107543982D01*
%TO.C,C1*%
X125307493Y-105989502D02*
X125259874Y-106037121D01*
X125117017Y-106084740D01*
X125021779Y-106084740D01*
X124878921Y-106037121D01*
X124783683Y-105941883D01*
X124736064Y-105846645D01*
X124688445Y-105656169D01*
X124688445Y-105513312D01*
X124736064Y-105322836D01*
X124783683Y-105227598D01*
X124878921Y-105132360D01*
X125021779Y-105084740D01*
X125117017Y-105084740D01*
X125259874Y-105132360D01*
X125307493Y-105179979D01*
X126259874Y-106084740D02*
X125688445Y-106084740D01*
X125974160Y-106084740D02*
X125974160Y-105084740D01*
X125878921Y-105227598D01*
X125783683Y-105322836D01*
X125688445Y-105370455D01*
%TD*%
M02*
