%TF.GenerationSoftware,KiCad,Pcbnew,(5.1.10)-1*%
%TF.CreationDate,2021-08-27T13:44:28+02:00*%
%TF.ProjectId,Pico-profile,5069636f-2d70-4726-9f66-696c652e6b69,rev?*%
%TF.SameCoordinates,Original*%
%TF.FileFunction,Paste,Bot*%
%TF.FilePolarity,Positive*%
%FSLAX46Y46*%
G04 Gerber Fmt 4.6, Leading zero omitted, Abs format (unit mm)*
G04 Created by KiCad (PCBNEW (5.1.10)-1) date 2021-08-27 13:44:28*
%MOMM*%
%LPD*%
G01*
G04 APERTURE LIST*
%ADD10R,1.560000X0.650000*%
%ADD11R,1.100000X0.400000*%
G04 APERTURE END LIST*
%TO.C,R19*%
G36*
G01*
X176001000Y-64242000D02*
X176551000Y-64242000D01*
G75*
G02*
X176751000Y-64442000I0J-200000D01*
G01*
X176751000Y-64842000D01*
G75*
G02*
X176551000Y-65042000I-200000J0D01*
G01*
X176001000Y-65042000D01*
G75*
G02*
X175801000Y-64842000I0J200000D01*
G01*
X175801000Y-64442000D01*
G75*
G02*
X176001000Y-64242000I200000J0D01*
G01*
G37*
G36*
G01*
X176001000Y-62592000D02*
X176551000Y-62592000D01*
G75*
G02*
X176751000Y-62792000I0J-200000D01*
G01*
X176751000Y-63192000D01*
G75*
G02*
X176551000Y-63392000I-200000J0D01*
G01*
X176001000Y-63392000D01*
G75*
G02*
X175801000Y-63192000I0J200000D01*
G01*
X175801000Y-62792000D01*
G75*
G02*
X176001000Y-62592000I200000J0D01*
G01*
G37*
%TD*%
%TO.C,R14*%
G36*
G01*
X163605800Y-71709600D02*
X164155800Y-71709600D01*
G75*
G02*
X164355800Y-71909600I0J-200000D01*
G01*
X164355800Y-72309600D01*
G75*
G02*
X164155800Y-72509600I-200000J0D01*
G01*
X163605800Y-72509600D01*
G75*
G02*
X163405800Y-72309600I0J200000D01*
G01*
X163405800Y-71909600D01*
G75*
G02*
X163605800Y-71709600I200000J0D01*
G01*
G37*
G36*
G01*
X163605800Y-70059600D02*
X164155800Y-70059600D01*
G75*
G02*
X164355800Y-70259600I0J-200000D01*
G01*
X164355800Y-70659600D01*
G75*
G02*
X164155800Y-70859600I-200000J0D01*
G01*
X163605800Y-70859600D01*
G75*
G02*
X163405800Y-70659600I0J200000D01*
G01*
X163405800Y-70259600D01*
G75*
G02*
X163605800Y-70059600I200000J0D01*
G01*
G37*
%TD*%
D10*
%TO.C,U9*%
X193344800Y-67787600D03*
X193344800Y-65887600D03*
X190644800Y-65887600D03*
X190644800Y-66837600D03*
X190644800Y-67787600D03*
%TD*%
%TO.C,R1*%
G36*
G01*
X160955400Y-70859600D02*
X160405400Y-70859600D01*
G75*
G02*
X160205400Y-70659600I0J200000D01*
G01*
X160205400Y-70259600D01*
G75*
G02*
X160405400Y-70059600I200000J0D01*
G01*
X160955400Y-70059600D01*
G75*
G02*
X161155400Y-70259600I0J-200000D01*
G01*
X161155400Y-70659600D01*
G75*
G02*
X160955400Y-70859600I-200000J0D01*
G01*
G37*
G36*
G01*
X160955400Y-72509600D02*
X160405400Y-72509600D01*
G75*
G02*
X160205400Y-72309600I0J200000D01*
G01*
X160205400Y-71909600D01*
G75*
G02*
X160405400Y-71709600I200000J0D01*
G01*
X160955400Y-71709600D01*
G75*
G02*
X161155400Y-71909600I0J-200000D01*
G01*
X161155400Y-72309600D01*
G75*
G02*
X160955400Y-72509600I-200000J0D01*
G01*
G37*
%TD*%
%TO.C,U6*%
X193446400Y-80182800D03*
X193446400Y-78282800D03*
X190746400Y-78282800D03*
X190746400Y-79232800D03*
X190746400Y-80182800D03*
%TD*%
%TO.C,R15*%
G36*
G01*
X167254600Y-70859600D02*
X166704600Y-70859600D01*
G75*
G02*
X166504600Y-70659600I0J200000D01*
G01*
X166504600Y-70259600D01*
G75*
G02*
X166704600Y-70059600I200000J0D01*
G01*
X167254600Y-70059600D01*
G75*
G02*
X167454600Y-70259600I0J-200000D01*
G01*
X167454600Y-70659600D01*
G75*
G02*
X167254600Y-70859600I-200000J0D01*
G01*
G37*
G36*
G01*
X167254600Y-72509600D02*
X166704600Y-72509600D01*
G75*
G02*
X166504600Y-72309600I0J200000D01*
G01*
X166504600Y-71909600D01*
G75*
G02*
X166704600Y-71709600I200000J0D01*
G01*
X167254600Y-71709600D01*
G75*
G02*
X167454600Y-71909600I0J-200000D01*
G01*
X167454600Y-72309600D01*
G75*
G02*
X167254600Y-72509600I-200000J0D01*
G01*
G37*
%TD*%
%TO.C,R18*%
G36*
G01*
X174162400Y-55808200D02*
X174162400Y-56358200D01*
G75*
G02*
X173962400Y-56558200I-200000J0D01*
G01*
X173562400Y-56558200D01*
G75*
G02*
X173362400Y-56358200I0J200000D01*
G01*
X173362400Y-55808200D01*
G75*
G02*
X173562400Y-55608200I200000J0D01*
G01*
X173962400Y-55608200D01*
G75*
G02*
X174162400Y-55808200I0J-200000D01*
G01*
G37*
G36*
G01*
X175812400Y-55808200D02*
X175812400Y-56358200D01*
G75*
G02*
X175612400Y-56558200I-200000J0D01*
G01*
X175212400Y-56558200D01*
G75*
G02*
X175012400Y-56358200I0J200000D01*
G01*
X175012400Y-55808200D01*
G75*
G02*
X175212400Y-55608200I200000J0D01*
G01*
X175612400Y-55608200D01*
G75*
G02*
X175812400Y-55808200I0J-200000D01*
G01*
G37*
%TD*%
%TO.C,R17*%
G36*
G01*
X174162400Y-57687800D02*
X174162400Y-58237800D01*
G75*
G02*
X173962400Y-58437800I-200000J0D01*
G01*
X173562400Y-58437800D01*
G75*
G02*
X173362400Y-58237800I0J200000D01*
G01*
X173362400Y-57687800D01*
G75*
G02*
X173562400Y-57487800I200000J0D01*
G01*
X173962400Y-57487800D01*
G75*
G02*
X174162400Y-57687800I0J-200000D01*
G01*
G37*
G36*
G01*
X175812400Y-57687800D02*
X175812400Y-58237800D01*
G75*
G02*
X175612400Y-58437800I-200000J0D01*
G01*
X175212400Y-58437800D01*
G75*
G02*
X175012400Y-58237800I0J200000D01*
G01*
X175012400Y-57687800D01*
G75*
G02*
X175212400Y-57487800I200000J0D01*
G01*
X175612400Y-57487800D01*
G75*
G02*
X175812400Y-57687800I0J-200000D01*
G01*
G37*
%TD*%
%TO.C,R16*%
G36*
G01*
X124693000Y-82022000D02*
X125243000Y-82022000D01*
G75*
G02*
X125443000Y-82222000I0J-200000D01*
G01*
X125443000Y-82622000D01*
G75*
G02*
X125243000Y-82822000I-200000J0D01*
G01*
X124693000Y-82822000D01*
G75*
G02*
X124493000Y-82622000I0J200000D01*
G01*
X124493000Y-82222000D01*
G75*
G02*
X124693000Y-82022000I200000J0D01*
G01*
G37*
G36*
G01*
X124693000Y-80372000D02*
X125243000Y-80372000D01*
G75*
G02*
X125443000Y-80572000I0J-200000D01*
G01*
X125443000Y-80972000D01*
G75*
G02*
X125243000Y-81172000I-200000J0D01*
G01*
X124693000Y-81172000D01*
G75*
G02*
X124493000Y-80972000I0J200000D01*
G01*
X124493000Y-80572000D01*
G75*
G02*
X124693000Y-80372000I200000J0D01*
G01*
G37*
%TD*%
%TO.C,U8*%
X193475600Y-86395600D03*
X193475600Y-84495600D03*
X190775600Y-84495600D03*
X190775600Y-85445600D03*
X190775600Y-86395600D03*
%TD*%
%TO.C,U5*%
X126746000Y-110612000D03*
X126746000Y-108712000D03*
X124046000Y-108712000D03*
X124046000Y-109662000D03*
X124046000Y-110612000D03*
%TD*%
D11*
%TO.C,U4*%
X163898800Y-74879200D03*
X163898800Y-75529200D03*
X163898800Y-76179200D03*
X163898800Y-76829200D03*
X168198800Y-76829200D03*
X168198800Y-76179200D03*
X168198800Y-75529200D03*
X168198800Y-74879200D03*
%TD*%
%TO.C,R13*%
G36*
G01*
X158263000Y-81172000D02*
X157713000Y-81172000D01*
G75*
G02*
X157513000Y-80972000I0J200000D01*
G01*
X157513000Y-80572000D01*
G75*
G02*
X157713000Y-80372000I200000J0D01*
G01*
X158263000Y-80372000D01*
G75*
G02*
X158463000Y-80572000I0J-200000D01*
G01*
X158463000Y-80972000D01*
G75*
G02*
X158263000Y-81172000I-200000J0D01*
G01*
G37*
G36*
G01*
X158263000Y-82822000D02*
X157713000Y-82822000D01*
G75*
G02*
X157513000Y-82622000I0J200000D01*
G01*
X157513000Y-82222000D01*
G75*
G02*
X157713000Y-82022000I200000J0D01*
G01*
X158263000Y-82022000D01*
G75*
G02*
X158463000Y-82222000I0J-200000D01*
G01*
X158463000Y-82622000D01*
G75*
G02*
X158263000Y-82822000I-200000J0D01*
G01*
G37*
%TD*%
%TO.C,R12*%
G36*
G01*
X153437000Y-81172000D02*
X152887000Y-81172000D01*
G75*
G02*
X152687000Y-80972000I0J200000D01*
G01*
X152687000Y-80572000D01*
G75*
G02*
X152887000Y-80372000I200000J0D01*
G01*
X153437000Y-80372000D01*
G75*
G02*
X153637000Y-80572000I0J-200000D01*
G01*
X153637000Y-80972000D01*
G75*
G02*
X153437000Y-81172000I-200000J0D01*
G01*
G37*
G36*
G01*
X153437000Y-82822000D02*
X152887000Y-82822000D01*
G75*
G02*
X152687000Y-82622000I0J200000D01*
G01*
X152687000Y-82222000D01*
G75*
G02*
X152887000Y-82022000I200000J0D01*
G01*
X153437000Y-82022000D01*
G75*
G02*
X153637000Y-82222000I0J-200000D01*
G01*
X153637000Y-82622000D01*
G75*
G02*
X153437000Y-82822000I-200000J0D01*
G01*
G37*
%TD*%
%TO.C,R11*%
G36*
G01*
X149373000Y-81172000D02*
X148823000Y-81172000D01*
G75*
G02*
X148623000Y-80972000I0J200000D01*
G01*
X148623000Y-80572000D01*
G75*
G02*
X148823000Y-80372000I200000J0D01*
G01*
X149373000Y-80372000D01*
G75*
G02*
X149573000Y-80572000I0J-200000D01*
G01*
X149573000Y-80972000D01*
G75*
G02*
X149373000Y-81172000I-200000J0D01*
G01*
G37*
G36*
G01*
X149373000Y-82822000D02*
X148823000Y-82822000D01*
G75*
G02*
X148623000Y-82622000I0J200000D01*
G01*
X148623000Y-82222000D01*
G75*
G02*
X148823000Y-82022000I200000J0D01*
G01*
X149373000Y-82022000D01*
G75*
G02*
X149573000Y-82222000I0J-200000D01*
G01*
X149573000Y-82622000D01*
G75*
G02*
X149373000Y-82822000I-200000J0D01*
G01*
G37*
%TD*%
%TO.C,R10*%
G36*
G01*
X145309000Y-81172000D02*
X144759000Y-81172000D01*
G75*
G02*
X144559000Y-80972000I0J200000D01*
G01*
X144559000Y-80572000D01*
G75*
G02*
X144759000Y-80372000I200000J0D01*
G01*
X145309000Y-80372000D01*
G75*
G02*
X145509000Y-80572000I0J-200000D01*
G01*
X145509000Y-80972000D01*
G75*
G02*
X145309000Y-81172000I-200000J0D01*
G01*
G37*
G36*
G01*
X145309000Y-82822000D02*
X144759000Y-82822000D01*
G75*
G02*
X144559000Y-82622000I0J200000D01*
G01*
X144559000Y-82222000D01*
G75*
G02*
X144759000Y-82022000I200000J0D01*
G01*
X145309000Y-82022000D01*
G75*
G02*
X145509000Y-82222000I0J-200000D01*
G01*
X145509000Y-82622000D01*
G75*
G02*
X145309000Y-82822000I-200000J0D01*
G01*
G37*
%TD*%
%TO.C,R9*%
G36*
G01*
X141245000Y-81172000D02*
X140695000Y-81172000D01*
G75*
G02*
X140495000Y-80972000I0J200000D01*
G01*
X140495000Y-80572000D01*
G75*
G02*
X140695000Y-80372000I200000J0D01*
G01*
X141245000Y-80372000D01*
G75*
G02*
X141445000Y-80572000I0J-200000D01*
G01*
X141445000Y-80972000D01*
G75*
G02*
X141245000Y-81172000I-200000J0D01*
G01*
G37*
G36*
G01*
X141245000Y-82822000D02*
X140695000Y-82822000D01*
G75*
G02*
X140495000Y-82622000I0J200000D01*
G01*
X140495000Y-82222000D01*
G75*
G02*
X140695000Y-82022000I200000J0D01*
G01*
X141245000Y-82022000D01*
G75*
G02*
X141445000Y-82222000I0J-200000D01*
G01*
X141445000Y-82622000D01*
G75*
G02*
X141245000Y-82822000I-200000J0D01*
G01*
G37*
%TD*%
%TO.C,R8*%
G36*
G01*
X137435000Y-81172000D02*
X136885000Y-81172000D01*
G75*
G02*
X136685000Y-80972000I0J200000D01*
G01*
X136685000Y-80572000D01*
G75*
G02*
X136885000Y-80372000I200000J0D01*
G01*
X137435000Y-80372000D01*
G75*
G02*
X137635000Y-80572000I0J-200000D01*
G01*
X137635000Y-80972000D01*
G75*
G02*
X137435000Y-81172000I-200000J0D01*
G01*
G37*
G36*
G01*
X137435000Y-82822000D02*
X136885000Y-82822000D01*
G75*
G02*
X136685000Y-82622000I0J200000D01*
G01*
X136685000Y-82222000D01*
G75*
G02*
X136885000Y-82022000I200000J0D01*
G01*
X137435000Y-82022000D01*
G75*
G02*
X137635000Y-82222000I0J-200000D01*
G01*
X137635000Y-82622000D01*
G75*
G02*
X137435000Y-82822000I-200000J0D01*
G01*
G37*
%TD*%
%TO.C,R7*%
G36*
G01*
X133371000Y-81172000D02*
X132821000Y-81172000D01*
G75*
G02*
X132621000Y-80972000I0J200000D01*
G01*
X132621000Y-80572000D01*
G75*
G02*
X132821000Y-80372000I200000J0D01*
G01*
X133371000Y-80372000D01*
G75*
G02*
X133571000Y-80572000I0J-200000D01*
G01*
X133571000Y-80972000D01*
G75*
G02*
X133371000Y-81172000I-200000J0D01*
G01*
G37*
G36*
G01*
X133371000Y-82822000D02*
X132821000Y-82822000D01*
G75*
G02*
X132621000Y-82622000I0J200000D01*
G01*
X132621000Y-82222000D01*
G75*
G02*
X132821000Y-82022000I200000J0D01*
G01*
X133371000Y-82022000D01*
G75*
G02*
X133571000Y-82222000I0J-200000D01*
G01*
X133571000Y-82622000D01*
G75*
G02*
X133371000Y-82822000I-200000J0D01*
G01*
G37*
%TD*%
%TO.C,R6*%
G36*
G01*
X129307000Y-81172000D02*
X128757000Y-81172000D01*
G75*
G02*
X128557000Y-80972000I0J200000D01*
G01*
X128557000Y-80572000D01*
G75*
G02*
X128757000Y-80372000I200000J0D01*
G01*
X129307000Y-80372000D01*
G75*
G02*
X129507000Y-80572000I0J-200000D01*
G01*
X129507000Y-80972000D01*
G75*
G02*
X129307000Y-81172000I-200000J0D01*
G01*
G37*
G36*
G01*
X129307000Y-82822000D02*
X128757000Y-82822000D01*
G75*
G02*
X128557000Y-82622000I0J200000D01*
G01*
X128557000Y-82222000D01*
G75*
G02*
X128757000Y-82022000I200000J0D01*
G01*
X129307000Y-82022000D01*
G75*
G02*
X129507000Y-82222000I0J-200000D01*
G01*
X129507000Y-82622000D01*
G75*
G02*
X129307000Y-82822000I-200000J0D01*
G01*
G37*
%TD*%
%TO.C,C8*%
G36*
G01*
X191838400Y-73867200D02*
X191838400Y-74367200D01*
G75*
G02*
X191613400Y-74592200I-225000J0D01*
G01*
X191163400Y-74592200D01*
G75*
G02*
X190938400Y-74367200I0J225000D01*
G01*
X190938400Y-73867200D01*
G75*
G02*
X191163400Y-73642200I225000J0D01*
G01*
X191613400Y-73642200D01*
G75*
G02*
X191838400Y-73867200I0J-225000D01*
G01*
G37*
G36*
G01*
X193388400Y-73867200D02*
X193388400Y-74367200D01*
G75*
G02*
X193163400Y-74592200I-225000J0D01*
G01*
X192713400Y-74592200D01*
G75*
G02*
X192488400Y-74367200I0J225000D01*
G01*
X192488400Y-73867200D01*
G75*
G02*
X192713400Y-73642200I225000J0D01*
G01*
X193163400Y-73642200D01*
G75*
G02*
X193388400Y-73867200I0J-225000D01*
G01*
G37*
%TD*%
%TO.C,C7*%
G36*
G01*
X191712000Y-82096800D02*
X191712000Y-82596800D01*
G75*
G02*
X191487000Y-82821800I-225000J0D01*
G01*
X191037000Y-82821800D01*
G75*
G02*
X190812000Y-82596800I0J225000D01*
G01*
X190812000Y-82096800D01*
G75*
G02*
X191037000Y-81871800I225000J0D01*
G01*
X191487000Y-81871800D01*
G75*
G02*
X191712000Y-82096800I0J-225000D01*
G01*
G37*
G36*
G01*
X193262000Y-82096800D02*
X193262000Y-82596800D01*
G75*
G02*
X193037000Y-82821800I-225000J0D01*
G01*
X192587000Y-82821800D01*
G75*
G02*
X192362000Y-82596800I0J225000D01*
G01*
X192362000Y-82096800D01*
G75*
G02*
X192587000Y-81871800I225000J0D01*
G01*
X193037000Y-81871800D01*
G75*
G02*
X193262000Y-82096800I0J-225000D01*
G01*
G37*
%TD*%
%TO.C,C5*%
G36*
G01*
X191838400Y-70971600D02*
X191838400Y-71471600D01*
G75*
G02*
X191613400Y-71696600I-225000J0D01*
G01*
X191163400Y-71696600D01*
G75*
G02*
X190938400Y-71471600I0J225000D01*
G01*
X190938400Y-70971600D01*
G75*
G02*
X191163400Y-70746600I225000J0D01*
G01*
X191613400Y-70746600D01*
G75*
G02*
X191838400Y-70971600I0J-225000D01*
G01*
G37*
G36*
G01*
X193388400Y-70971600D02*
X193388400Y-71471600D01*
G75*
G02*
X193163400Y-71696600I-225000J0D01*
G01*
X192713400Y-71696600D01*
G75*
G02*
X192488400Y-71471600I0J225000D01*
G01*
X192488400Y-70971600D01*
G75*
G02*
X192713400Y-70746600I225000J0D01*
G01*
X193163400Y-70746600D01*
G75*
G02*
X193388400Y-70971600I0J-225000D01*
G01*
G37*
%TD*%
%TO.C,C4*%
G36*
G01*
X188573600Y-124581800D02*
X189073600Y-124581800D01*
G75*
G02*
X189298600Y-124806800I0J-225000D01*
G01*
X189298600Y-125256800D01*
G75*
G02*
X189073600Y-125481800I-225000J0D01*
G01*
X188573600Y-125481800D01*
G75*
G02*
X188348600Y-125256800I0J225000D01*
G01*
X188348600Y-124806800D01*
G75*
G02*
X188573600Y-124581800I225000J0D01*
G01*
G37*
G36*
G01*
X188573600Y-123031800D02*
X189073600Y-123031800D01*
G75*
G02*
X189298600Y-123256800I0J-225000D01*
G01*
X189298600Y-123706800D01*
G75*
G02*
X189073600Y-123931800I-225000J0D01*
G01*
X188573600Y-123931800D01*
G75*
G02*
X188348600Y-123706800I0J225000D01*
G01*
X188348600Y-123256800D01*
G75*
G02*
X188573600Y-123031800I225000J0D01*
G01*
G37*
%TD*%
%TO.C,C2*%
G36*
G01*
X125646000Y-112221200D02*
X125646000Y-112721200D01*
G75*
G02*
X125421000Y-112946200I-225000J0D01*
G01*
X124971000Y-112946200D01*
G75*
G02*
X124746000Y-112721200I0J225000D01*
G01*
X124746000Y-112221200D01*
G75*
G02*
X124971000Y-111996200I225000J0D01*
G01*
X125421000Y-111996200D01*
G75*
G02*
X125646000Y-112221200I0J-225000D01*
G01*
G37*
G36*
G01*
X127196000Y-112221200D02*
X127196000Y-112721200D01*
G75*
G02*
X126971000Y-112946200I-225000J0D01*
G01*
X126521000Y-112946200D01*
G75*
G02*
X126296000Y-112721200I0J225000D01*
G01*
X126296000Y-112221200D01*
G75*
G02*
X126521000Y-111996200I225000J0D01*
G01*
X126971000Y-111996200D01*
G75*
G02*
X127196000Y-112221200I0J-225000D01*
G01*
G37*
%TD*%
M02*
