%TF.GenerationSoftware,KiCad,Pcbnew,(5.1.10)-1*%
%TF.CreationDate,2021-08-27T13:44:28+02:00*%
%TF.ProjectId,Pico-profile,5069636f-2d70-4726-9f66-696c652e6b69,rev?*%
%TF.SameCoordinates,Original*%
%TF.FileFunction,Copper,L1,Top*%
%TF.FilePolarity,Positive*%
%FSLAX46Y46*%
G04 Gerber Fmt 4.6, Leading zero omitted, Abs format (unit mm)*
G04 Created by KiCad (PCBNEW (5.1.10)-1) date 2021-08-27 13:44:28*
%MOMM*%
%LPD*%
G01*
G04 APERTURE LIST*
%TA.AperFunction,SMDPad,CuDef*%
%ADD10R,1.100000X1.100000*%
%TD*%
%TA.AperFunction,ComponentPad*%
%ADD11O,3.600000X2.080000*%
%TD*%
%TA.AperFunction,ComponentPad*%
%ADD12C,1.700000*%
%TD*%
%TA.AperFunction,ComponentPad*%
%ADD13O,1.800000X1.600000*%
%TD*%
%TA.AperFunction,ComponentPad*%
%ADD14O,1.800000X1.650000*%
%TD*%
%TA.AperFunction,ComponentPad*%
%ADD15C,4.000000*%
%TD*%
%TA.AperFunction,ComponentPad*%
%ADD16C,1.600000*%
%TD*%
%TA.AperFunction,ComponentPad*%
%ADD17R,1.600000X1.600000*%
%TD*%
%TA.AperFunction,SMDPad,CuDef*%
%ADD18R,1.900000X1.350000*%
%TD*%
%TA.AperFunction,SMDPad,CuDef*%
%ADD19R,1.200000X1.000000*%
%TD*%
%TA.AperFunction,SMDPad,CuDef*%
%ADD20R,1.550000X1.350000*%
%TD*%
%TA.AperFunction,SMDPad,CuDef*%
%ADD21R,1.170000X1.800000*%
%TD*%
%TA.AperFunction,SMDPad,CuDef*%
%ADD22R,0.850000X1.100000*%
%TD*%
%TA.AperFunction,SMDPad,CuDef*%
%ADD23R,0.750000X1.100000*%
%TD*%
%TA.AperFunction,ComponentPad*%
%ADD24O,1.700000X1.700000*%
%TD*%
%TA.AperFunction,SMDPad,CuDef*%
%ADD25R,1.700000X3.500000*%
%TD*%
%TA.AperFunction,ComponentPad*%
%ADD26R,1.700000X1.700000*%
%TD*%
%TA.AperFunction,SMDPad,CuDef*%
%ADD27R,3.500000X1.700000*%
%TD*%
%TA.AperFunction,ViaPad*%
%ADD28C,1.200000*%
%TD*%
%TA.AperFunction,ViaPad*%
%ADD29C,0.600000*%
%TD*%
%TA.AperFunction,ViaPad*%
%ADD30C,5.000000*%
%TD*%
%TA.AperFunction,ViaPad*%
%ADD31C,0.800000*%
%TD*%
%TA.AperFunction,Conductor*%
%ADD32C,0.300000*%
%TD*%
%TA.AperFunction,Conductor*%
%ADD33C,0.500000*%
%TD*%
%TA.AperFunction,Conductor*%
%ADD34C,0.600000*%
%TD*%
%TA.AperFunction,Conductor*%
%ADD35C,1.000000*%
%TD*%
%TA.AperFunction,Conductor*%
%ADD36C,0.800000*%
%TD*%
%TA.AperFunction,Conductor*%
%ADD37C,2.000000*%
%TD*%
G04 APERTURE END LIST*
D10*
%TO.P,D1,2*%
%TO.N,Net-(D1-Pad2)*%
X206151480Y-64536320D03*
%TO.P,D1,1*%
%TO.N,+5VL*%
X206151480Y-61736320D03*
%TD*%
D11*
%TO.P,J5,2*%
%TO.N,Net-(D1-Pad2)*%
X211957920Y-76565760D03*
%TO.P,J5,1*%
%TO.N,GND*%
%TA.AperFunction,ComponentPad*%
G36*
G01*
X213507921Y-82685760D02*
X210407919Y-82685760D01*
G75*
G02*
X210157920Y-82435761I0J249999D01*
G01*
X210157920Y-80855759D01*
G75*
G02*
X210407919Y-80605760I249999J0D01*
G01*
X213507921Y-80605760D01*
G75*
G02*
X213757920Y-80855759I0J-249999D01*
G01*
X213757920Y-82435761D01*
G75*
G02*
X213507921Y-82685760I-249999J0D01*
G01*
G37*
%TD.AperFunction*%
%TD*%
D12*
%TO.P,J1,26*%
%TO.N,GND*%
X108585000Y-106045000D03*
D13*
%TO.P,J1,24*%
X108585000Y-103505000D03*
%TO.P,J1,22*%
%TO.N,/D3*%
X108585000Y-100965000D03*
D12*
%TO.P,J1,20*%
%TO.N,GND*%
X108585000Y-98425000D03*
%TO.P,J1,18*%
%TO.N,/~PPARITY*%
X108585000Y-95885000D03*
%TO.P,J1,16*%
%TO.N,/~PBSY*%
X108585000Y-93345000D03*
D14*
%TO.P,J1,14*%
%TO.N,GND*%
X108585000Y-90805000D03*
D13*
%TO.P,J1,12*%
%TO.N,/D6*%
X108585000Y-88265000D03*
%TO.P,J1,10*%
%TO.N,GND*%
X108585000Y-85725000D03*
D12*
%TO.P,J1,8*%
%TO.N,/D2*%
X108585000Y-83185000D03*
D13*
%TO.P,J1,6*%
%TO.N,/D1*%
X108585000Y-80645000D03*
%TO.P,J1,4*%
%TO.N,GND*%
X108585000Y-78105000D03*
%TO.P,J1,2*%
X108585000Y-75565000D03*
D12*
%TO.P,J1,25*%
%TO.N,/PCHK*%
X106045000Y-106045000D03*
%TO.P,J1,23*%
%TO.N,/D4*%
X106045000Y-103505000D03*
%TO.P,J1,21*%
%TO.N,/~PRES*%
X106045000Y-100965000D03*
D13*
%TO.P,J1,19*%
%TO.N,GND*%
X106045000Y-98425000D03*
%TO.P,J1,17*%
%TO.N,/~PCMD*%
X106045000Y-95885000D03*
%TO.P,J1,15*%
%TO.N,/~PSTRB*%
X106045000Y-93345000D03*
D12*
%TO.P,J1,13*%
%TO.N,/D7*%
X106045000Y-90805000D03*
%TO.P,J1,11*%
%TO.N,/D5*%
X106045000Y-88265000D03*
%TO.P,J1,9*%
%TO.N,GND*%
X106045000Y-85725000D03*
%TO.P,J1,7*%
%TO.N,N/C*%
X106045000Y-83185000D03*
%TO.P,J1,5*%
%TO.N,/D0*%
X106045000Y-80645000D03*
%TO.P,J1,3*%
%TO.N,/PR~W*%
X106045000Y-78105000D03*
%TO.P,J1,1*%
%TO.N,N/C*%
%TA.AperFunction,ComponentPad*%
G36*
G01*
X105195000Y-76165000D02*
X105195000Y-74965000D01*
G75*
G02*
X105445000Y-74715000I250000J0D01*
G01*
X106645000Y-74715000D01*
G75*
G02*
X106895000Y-74965000I0J-250000D01*
G01*
X106895000Y-76165000D01*
G75*
G02*
X106645000Y-76415000I-250000J0D01*
G01*
X105445000Y-76415000D01*
G75*
G02*
X105195000Y-76165000I0J250000D01*
G01*
G37*
%TD.AperFunction*%
%TD*%
D15*
%TO.P,J2,0*%
%TO.N,N/C*%
X118800000Y-65255000D03*
X165900000Y-65255000D03*
D16*
%TO.P,J2,25*%
%TO.N,/PCHK*%
X157585000Y-63835000D03*
%TO.P,J2,24*%
%TO.N,GND*%
X154815000Y-63835000D03*
%TO.P,J2,23*%
%TO.N,/D4*%
X152045000Y-63835000D03*
%TO.P,J2,22*%
%TO.N,/D3*%
X149275000Y-63835000D03*
%TO.P,J2,21*%
%TO.N,/~PRES*%
X146505000Y-63835000D03*
%TO.P,J2,20*%
%TO.N,GND*%
X143735000Y-63835000D03*
%TO.P,J2,19*%
X140965000Y-63835000D03*
%TO.P,J2,18*%
%TO.N,/~PPARITY*%
X138195000Y-63835000D03*
%TO.P,J2,17*%
%TO.N,/~PCMD*%
X135425000Y-63835000D03*
%TO.P,J2,16*%
%TO.N,/~PBSY*%
X132655000Y-63835000D03*
%TO.P,J2,15*%
%TO.N,/~PSTRB*%
X129885000Y-63835000D03*
%TO.P,J2,14*%
%TO.N,GND*%
X127115000Y-63835000D03*
%TO.P,J2,13*%
%TO.N,/D7*%
X158970000Y-66675000D03*
%TO.P,J2,12*%
%TO.N,/D6*%
X156200000Y-66675000D03*
%TO.P,J2,11*%
%TO.N,/D5*%
X153430000Y-66675000D03*
%TO.P,J2,10*%
%TO.N,GND*%
X150660000Y-66675000D03*
%TO.P,J2,9*%
X147890000Y-66675000D03*
%TO.P,J2,8*%
%TO.N,/D2*%
X145120000Y-66675000D03*
%TO.P,J2,7*%
%TO.N,N/C*%
X142350000Y-66675000D03*
%TO.P,J2,6*%
%TO.N,/D1*%
X139580000Y-66675000D03*
%TO.P,J2,5*%
%TO.N,/D0*%
X136810000Y-66675000D03*
%TO.P,J2,4*%
%TO.N,GND*%
X134040000Y-66675000D03*
%TO.P,J2,3*%
%TO.N,/PR~W*%
X131270000Y-66675000D03*
%TO.P,J2,2*%
%TO.N,GND*%
X128500000Y-66675000D03*
D17*
%TO.P,J2,1*%
%TO.N,N/C*%
X125730000Y-66675000D03*
%TD*%
%TO.P,U3,20*%
%TO.N,+3V3*%
%TA.AperFunction,SMDPad,CuDef*%
G36*
G01*
X153266000Y-120289000D02*
X153566000Y-120289000D01*
G75*
G02*
X153716000Y-120439000I0J-150000D01*
G01*
X153716000Y-122189000D01*
G75*
G02*
X153566000Y-122339000I-150000J0D01*
G01*
X153266000Y-122339000D01*
G75*
G02*
X153116000Y-122189000I0J150000D01*
G01*
X153116000Y-120439000D01*
G75*
G02*
X153266000Y-120289000I150000J0D01*
G01*
G37*
%TD.AperFunction*%
%TO.P,U3,19*%
%TO.N,GND*%
%TA.AperFunction,SMDPad,CuDef*%
G36*
G01*
X151996000Y-120289000D02*
X152296000Y-120289000D01*
G75*
G02*
X152446000Y-120439000I0J-150000D01*
G01*
X152446000Y-122189000D01*
G75*
G02*
X152296000Y-122339000I-150000J0D01*
G01*
X151996000Y-122339000D01*
G75*
G02*
X151846000Y-122189000I0J150000D01*
G01*
X151846000Y-120439000D01*
G75*
G02*
X151996000Y-120289000I150000J0D01*
G01*
G37*
%TD.AperFunction*%
%TO.P,U3,18*%
%TO.N,/ID4*%
%TA.AperFunction,SMDPad,CuDef*%
G36*
G01*
X150726000Y-120289000D02*
X151026000Y-120289000D01*
G75*
G02*
X151176000Y-120439000I0J-150000D01*
G01*
X151176000Y-122189000D01*
G75*
G02*
X151026000Y-122339000I-150000J0D01*
G01*
X150726000Y-122339000D01*
G75*
G02*
X150576000Y-122189000I0J150000D01*
G01*
X150576000Y-120439000D01*
G75*
G02*
X150726000Y-120289000I150000J0D01*
G01*
G37*
%TD.AperFunction*%
%TO.P,U3,17*%
%TO.N,/PD7*%
%TA.AperFunction,SMDPad,CuDef*%
G36*
G01*
X149456000Y-120289000D02*
X149756000Y-120289000D01*
G75*
G02*
X149906000Y-120439000I0J-150000D01*
G01*
X149906000Y-122189000D01*
G75*
G02*
X149756000Y-122339000I-150000J0D01*
G01*
X149456000Y-122339000D01*
G75*
G02*
X149306000Y-122189000I0J150000D01*
G01*
X149306000Y-120439000D01*
G75*
G02*
X149456000Y-120289000I150000J0D01*
G01*
G37*
%TD.AperFunction*%
%TO.P,U3,16*%
%TO.N,/ID3*%
%TA.AperFunction,SMDPad,CuDef*%
G36*
G01*
X148186000Y-120289000D02*
X148486000Y-120289000D01*
G75*
G02*
X148636000Y-120439000I0J-150000D01*
G01*
X148636000Y-122189000D01*
G75*
G02*
X148486000Y-122339000I-150000J0D01*
G01*
X148186000Y-122339000D01*
G75*
G02*
X148036000Y-122189000I0J150000D01*
G01*
X148036000Y-120439000D01*
G75*
G02*
X148186000Y-120289000I150000J0D01*
G01*
G37*
%TD.AperFunction*%
%TO.P,U3,15*%
%TO.N,/PD6*%
%TA.AperFunction,SMDPad,CuDef*%
G36*
G01*
X146916000Y-120289000D02*
X147216000Y-120289000D01*
G75*
G02*
X147366000Y-120439000I0J-150000D01*
G01*
X147366000Y-122189000D01*
G75*
G02*
X147216000Y-122339000I-150000J0D01*
G01*
X146916000Y-122339000D01*
G75*
G02*
X146766000Y-122189000I0J150000D01*
G01*
X146766000Y-120439000D01*
G75*
G02*
X146916000Y-120289000I150000J0D01*
G01*
G37*
%TD.AperFunction*%
%TO.P,U3,14*%
%TO.N,/ID2*%
%TA.AperFunction,SMDPad,CuDef*%
G36*
G01*
X145646000Y-120289000D02*
X145946000Y-120289000D01*
G75*
G02*
X146096000Y-120439000I0J-150000D01*
G01*
X146096000Y-122189000D01*
G75*
G02*
X145946000Y-122339000I-150000J0D01*
G01*
X145646000Y-122339000D01*
G75*
G02*
X145496000Y-122189000I0J150000D01*
G01*
X145496000Y-120439000D01*
G75*
G02*
X145646000Y-120289000I150000J0D01*
G01*
G37*
%TD.AperFunction*%
%TO.P,U3,13*%
%TO.N,/PD5*%
%TA.AperFunction,SMDPad,CuDef*%
G36*
G01*
X144376000Y-120289000D02*
X144676000Y-120289000D01*
G75*
G02*
X144826000Y-120439000I0J-150000D01*
G01*
X144826000Y-122189000D01*
G75*
G02*
X144676000Y-122339000I-150000J0D01*
G01*
X144376000Y-122339000D01*
G75*
G02*
X144226000Y-122189000I0J150000D01*
G01*
X144226000Y-120439000D01*
G75*
G02*
X144376000Y-120289000I150000J0D01*
G01*
G37*
%TD.AperFunction*%
%TO.P,U3,12*%
%TO.N,/ID1*%
%TA.AperFunction,SMDPad,CuDef*%
G36*
G01*
X143106000Y-120289000D02*
X143406000Y-120289000D01*
G75*
G02*
X143556000Y-120439000I0J-150000D01*
G01*
X143556000Y-122189000D01*
G75*
G02*
X143406000Y-122339000I-150000J0D01*
G01*
X143106000Y-122339000D01*
G75*
G02*
X142956000Y-122189000I0J150000D01*
G01*
X142956000Y-120439000D01*
G75*
G02*
X143106000Y-120289000I150000J0D01*
G01*
G37*
%TD.AperFunction*%
%TO.P,U3,11*%
%TO.N,/PD0*%
%TA.AperFunction,SMDPad,CuDef*%
G36*
G01*
X141836000Y-120289000D02*
X142136000Y-120289000D01*
G75*
G02*
X142286000Y-120439000I0J-150000D01*
G01*
X142286000Y-122189000D01*
G75*
G02*
X142136000Y-122339000I-150000J0D01*
G01*
X141836000Y-122339000D01*
G75*
G02*
X141686000Y-122189000I0J150000D01*
G01*
X141686000Y-120439000D01*
G75*
G02*
X141836000Y-120289000I150000J0D01*
G01*
G37*
%TD.AperFunction*%
%TO.P,U3,10*%
%TO.N,GND*%
%TA.AperFunction,SMDPad,CuDef*%
G36*
G01*
X141836000Y-110989000D02*
X142136000Y-110989000D01*
G75*
G02*
X142286000Y-111139000I0J-150000D01*
G01*
X142286000Y-112889000D01*
G75*
G02*
X142136000Y-113039000I-150000J0D01*
G01*
X141836000Y-113039000D01*
G75*
G02*
X141686000Y-112889000I0J150000D01*
G01*
X141686000Y-111139000D01*
G75*
G02*
X141836000Y-110989000I150000J0D01*
G01*
G37*
%TD.AperFunction*%
%TO.P,U3,9*%
%TO.N,/ID0*%
%TA.AperFunction,SMDPad,CuDef*%
G36*
G01*
X143106000Y-110989000D02*
X143406000Y-110989000D01*
G75*
G02*
X143556000Y-111139000I0J-150000D01*
G01*
X143556000Y-112889000D01*
G75*
G02*
X143406000Y-113039000I-150000J0D01*
G01*
X143106000Y-113039000D01*
G75*
G02*
X142956000Y-112889000I0J150000D01*
G01*
X142956000Y-111139000D01*
G75*
G02*
X143106000Y-110989000I150000J0D01*
G01*
G37*
%TD.AperFunction*%
%TO.P,U3,8*%
%TO.N,/PD1*%
%TA.AperFunction,SMDPad,CuDef*%
G36*
G01*
X144376000Y-110989000D02*
X144676000Y-110989000D01*
G75*
G02*
X144826000Y-111139000I0J-150000D01*
G01*
X144826000Y-112889000D01*
G75*
G02*
X144676000Y-113039000I-150000J0D01*
G01*
X144376000Y-113039000D01*
G75*
G02*
X144226000Y-112889000I0J150000D01*
G01*
X144226000Y-111139000D01*
G75*
G02*
X144376000Y-110989000I150000J0D01*
G01*
G37*
%TD.AperFunction*%
%TO.P,U3,7*%
%TO.N,/ID5*%
%TA.AperFunction,SMDPad,CuDef*%
G36*
G01*
X145646000Y-110989000D02*
X145946000Y-110989000D01*
G75*
G02*
X146096000Y-111139000I0J-150000D01*
G01*
X146096000Y-112889000D01*
G75*
G02*
X145946000Y-113039000I-150000J0D01*
G01*
X145646000Y-113039000D01*
G75*
G02*
X145496000Y-112889000I0J150000D01*
G01*
X145496000Y-111139000D01*
G75*
G02*
X145646000Y-110989000I150000J0D01*
G01*
G37*
%TD.AperFunction*%
%TO.P,U3,6*%
%TO.N,/PD2*%
%TA.AperFunction,SMDPad,CuDef*%
G36*
G01*
X146916000Y-110989000D02*
X147216000Y-110989000D01*
G75*
G02*
X147366000Y-111139000I0J-150000D01*
G01*
X147366000Y-112889000D01*
G75*
G02*
X147216000Y-113039000I-150000J0D01*
G01*
X146916000Y-113039000D01*
G75*
G02*
X146766000Y-112889000I0J150000D01*
G01*
X146766000Y-111139000D01*
G75*
G02*
X146916000Y-110989000I150000J0D01*
G01*
G37*
%TD.AperFunction*%
%TO.P,U3,5*%
%TO.N,/ID6*%
%TA.AperFunction,SMDPad,CuDef*%
G36*
G01*
X148186000Y-110989000D02*
X148486000Y-110989000D01*
G75*
G02*
X148636000Y-111139000I0J-150000D01*
G01*
X148636000Y-112889000D01*
G75*
G02*
X148486000Y-113039000I-150000J0D01*
G01*
X148186000Y-113039000D01*
G75*
G02*
X148036000Y-112889000I0J150000D01*
G01*
X148036000Y-111139000D01*
G75*
G02*
X148186000Y-110989000I150000J0D01*
G01*
G37*
%TD.AperFunction*%
%TO.P,U3,4*%
%TO.N,/PD3*%
%TA.AperFunction,SMDPad,CuDef*%
G36*
G01*
X149456000Y-110989000D02*
X149756000Y-110989000D01*
G75*
G02*
X149906000Y-111139000I0J-150000D01*
G01*
X149906000Y-112889000D01*
G75*
G02*
X149756000Y-113039000I-150000J0D01*
G01*
X149456000Y-113039000D01*
G75*
G02*
X149306000Y-112889000I0J150000D01*
G01*
X149306000Y-111139000D01*
G75*
G02*
X149456000Y-110989000I150000J0D01*
G01*
G37*
%TD.AperFunction*%
%TO.P,U3,3*%
%TO.N,/ID7*%
%TA.AperFunction,SMDPad,CuDef*%
G36*
G01*
X150726000Y-110989000D02*
X151026000Y-110989000D01*
G75*
G02*
X151176000Y-111139000I0J-150000D01*
G01*
X151176000Y-112889000D01*
G75*
G02*
X151026000Y-113039000I-150000J0D01*
G01*
X150726000Y-113039000D01*
G75*
G02*
X150576000Y-112889000I0J150000D01*
G01*
X150576000Y-111139000D01*
G75*
G02*
X150726000Y-110989000I150000J0D01*
G01*
G37*
%TD.AperFunction*%
%TO.P,U3,2*%
%TO.N,/PD4*%
%TA.AperFunction,SMDPad,CuDef*%
G36*
G01*
X151996000Y-110989000D02*
X152296000Y-110989000D01*
G75*
G02*
X152446000Y-111139000I0J-150000D01*
G01*
X152446000Y-112889000D01*
G75*
G02*
X152296000Y-113039000I-150000J0D01*
G01*
X151996000Y-113039000D01*
G75*
G02*
X151846000Y-112889000I0J150000D01*
G01*
X151846000Y-111139000D01*
G75*
G02*
X151996000Y-110989000I150000J0D01*
G01*
G37*
%TD.AperFunction*%
%TO.P,U3,1*%
%TO.N,GND*%
%TA.AperFunction,SMDPad,CuDef*%
G36*
G01*
X153266000Y-110989000D02*
X153566000Y-110989000D01*
G75*
G02*
X153716000Y-111139000I0J-150000D01*
G01*
X153716000Y-112889000D01*
G75*
G02*
X153566000Y-113039000I-150000J0D01*
G01*
X153266000Y-113039000D01*
G75*
G02*
X153116000Y-112889000I0J150000D01*
G01*
X153116000Y-111139000D01*
G75*
G02*
X153266000Y-110989000I150000J0D01*
G01*
G37*
%TD.AperFunction*%
%TD*%
%TO.P,U2,20*%
%TO.N,+5VL*%
%TA.AperFunction,SMDPad,CuDef*%
G36*
G01*
X153266000Y-104541000D02*
X153566000Y-104541000D01*
G75*
G02*
X153716000Y-104691000I0J-150000D01*
G01*
X153716000Y-106441000D01*
G75*
G02*
X153566000Y-106591000I-150000J0D01*
G01*
X153266000Y-106591000D01*
G75*
G02*
X153116000Y-106441000I0J150000D01*
G01*
X153116000Y-104691000D01*
G75*
G02*
X153266000Y-104541000I150000J0D01*
G01*
G37*
%TD.AperFunction*%
%TO.P,U2,19*%
%TO.N,/~R~W*%
%TA.AperFunction,SMDPad,CuDef*%
G36*
G01*
X151996000Y-104541000D02*
X152296000Y-104541000D01*
G75*
G02*
X152446000Y-104691000I0J-150000D01*
G01*
X152446000Y-106441000D01*
G75*
G02*
X152296000Y-106591000I-150000J0D01*
G01*
X151996000Y-106591000D01*
G75*
G02*
X151846000Y-106441000I0J150000D01*
G01*
X151846000Y-104691000D01*
G75*
G02*
X151996000Y-104541000I150000J0D01*
G01*
G37*
%TD.AperFunction*%
%TO.P,U2,18*%
%TO.N,/PD4*%
%TA.AperFunction,SMDPad,CuDef*%
G36*
G01*
X150726000Y-104541000D02*
X151026000Y-104541000D01*
G75*
G02*
X151176000Y-104691000I0J-150000D01*
G01*
X151176000Y-106441000D01*
G75*
G02*
X151026000Y-106591000I-150000J0D01*
G01*
X150726000Y-106591000D01*
G75*
G02*
X150576000Y-106441000I0J150000D01*
G01*
X150576000Y-104691000D01*
G75*
G02*
X150726000Y-104541000I150000J0D01*
G01*
G37*
%TD.AperFunction*%
%TO.P,U2,17*%
%TO.N,/OD7*%
%TA.AperFunction,SMDPad,CuDef*%
G36*
G01*
X149456000Y-104541000D02*
X149756000Y-104541000D01*
G75*
G02*
X149906000Y-104691000I0J-150000D01*
G01*
X149906000Y-106441000D01*
G75*
G02*
X149756000Y-106591000I-150000J0D01*
G01*
X149456000Y-106591000D01*
G75*
G02*
X149306000Y-106441000I0J150000D01*
G01*
X149306000Y-104691000D01*
G75*
G02*
X149456000Y-104541000I150000J0D01*
G01*
G37*
%TD.AperFunction*%
%TO.P,U2,16*%
%TO.N,/PD3*%
%TA.AperFunction,SMDPad,CuDef*%
G36*
G01*
X148186000Y-104541000D02*
X148486000Y-104541000D01*
G75*
G02*
X148636000Y-104691000I0J-150000D01*
G01*
X148636000Y-106441000D01*
G75*
G02*
X148486000Y-106591000I-150000J0D01*
G01*
X148186000Y-106591000D01*
G75*
G02*
X148036000Y-106441000I0J150000D01*
G01*
X148036000Y-104691000D01*
G75*
G02*
X148186000Y-104541000I150000J0D01*
G01*
G37*
%TD.AperFunction*%
%TO.P,U2,15*%
%TO.N,/OD6*%
%TA.AperFunction,SMDPad,CuDef*%
G36*
G01*
X146916000Y-104541000D02*
X147216000Y-104541000D01*
G75*
G02*
X147366000Y-104691000I0J-150000D01*
G01*
X147366000Y-106441000D01*
G75*
G02*
X147216000Y-106591000I-150000J0D01*
G01*
X146916000Y-106591000D01*
G75*
G02*
X146766000Y-106441000I0J150000D01*
G01*
X146766000Y-104691000D01*
G75*
G02*
X146916000Y-104541000I150000J0D01*
G01*
G37*
%TD.AperFunction*%
%TO.P,U2,14*%
%TO.N,/PD2*%
%TA.AperFunction,SMDPad,CuDef*%
G36*
G01*
X145646000Y-104541000D02*
X145946000Y-104541000D01*
G75*
G02*
X146096000Y-104691000I0J-150000D01*
G01*
X146096000Y-106441000D01*
G75*
G02*
X145946000Y-106591000I-150000J0D01*
G01*
X145646000Y-106591000D01*
G75*
G02*
X145496000Y-106441000I0J150000D01*
G01*
X145496000Y-104691000D01*
G75*
G02*
X145646000Y-104541000I150000J0D01*
G01*
G37*
%TD.AperFunction*%
%TO.P,U2,13*%
%TO.N,/OD5*%
%TA.AperFunction,SMDPad,CuDef*%
G36*
G01*
X144376000Y-104541000D02*
X144676000Y-104541000D01*
G75*
G02*
X144826000Y-104691000I0J-150000D01*
G01*
X144826000Y-106441000D01*
G75*
G02*
X144676000Y-106591000I-150000J0D01*
G01*
X144376000Y-106591000D01*
G75*
G02*
X144226000Y-106441000I0J150000D01*
G01*
X144226000Y-104691000D01*
G75*
G02*
X144376000Y-104541000I150000J0D01*
G01*
G37*
%TD.AperFunction*%
%TO.P,U2,12*%
%TO.N,/PD1*%
%TA.AperFunction,SMDPad,CuDef*%
G36*
G01*
X143106000Y-104541000D02*
X143406000Y-104541000D01*
G75*
G02*
X143556000Y-104691000I0J-150000D01*
G01*
X143556000Y-106441000D01*
G75*
G02*
X143406000Y-106591000I-150000J0D01*
G01*
X143106000Y-106591000D01*
G75*
G02*
X142956000Y-106441000I0J150000D01*
G01*
X142956000Y-104691000D01*
G75*
G02*
X143106000Y-104541000I150000J0D01*
G01*
G37*
%TD.AperFunction*%
%TO.P,U2,11*%
%TO.N,/OD0*%
%TA.AperFunction,SMDPad,CuDef*%
G36*
G01*
X141836000Y-104541000D02*
X142136000Y-104541000D01*
G75*
G02*
X142286000Y-104691000I0J-150000D01*
G01*
X142286000Y-106441000D01*
G75*
G02*
X142136000Y-106591000I-150000J0D01*
G01*
X141836000Y-106591000D01*
G75*
G02*
X141686000Y-106441000I0J150000D01*
G01*
X141686000Y-104691000D01*
G75*
G02*
X141836000Y-104541000I150000J0D01*
G01*
G37*
%TD.AperFunction*%
%TO.P,U2,10*%
%TO.N,GND*%
%TA.AperFunction,SMDPad,CuDef*%
G36*
G01*
X141836000Y-95241000D02*
X142136000Y-95241000D01*
G75*
G02*
X142286000Y-95391000I0J-150000D01*
G01*
X142286000Y-97141000D01*
G75*
G02*
X142136000Y-97291000I-150000J0D01*
G01*
X141836000Y-97291000D01*
G75*
G02*
X141686000Y-97141000I0J150000D01*
G01*
X141686000Y-95391000D01*
G75*
G02*
X141836000Y-95241000I150000J0D01*
G01*
G37*
%TD.AperFunction*%
%TO.P,U2,9*%
%TO.N,/PD0*%
%TA.AperFunction,SMDPad,CuDef*%
G36*
G01*
X143106000Y-95241000D02*
X143406000Y-95241000D01*
G75*
G02*
X143556000Y-95391000I0J-150000D01*
G01*
X143556000Y-97141000D01*
G75*
G02*
X143406000Y-97291000I-150000J0D01*
G01*
X143106000Y-97291000D01*
G75*
G02*
X142956000Y-97141000I0J150000D01*
G01*
X142956000Y-95391000D01*
G75*
G02*
X143106000Y-95241000I150000J0D01*
G01*
G37*
%TD.AperFunction*%
%TO.P,U2,8*%
%TO.N,/OD1*%
%TA.AperFunction,SMDPad,CuDef*%
G36*
G01*
X144376000Y-95241000D02*
X144676000Y-95241000D01*
G75*
G02*
X144826000Y-95391000I0J-150000D01*
G01*
X144826000Y-97141000D01*
G75*
G02*
X144676000Y-97291000I-150000J0D01*
G01*
X144376000Y-97291000D01*
G75*
G02*
X144226000Y-97141000I0J150000D01*
G01*
X144226000Y-95391000D01*
G75*
G02*
X144376000Y-95241000I150000J0D01*
G01*
G37*
%TD.AperFunction*%
%TO.P,U2,7*%
%TO.N,/PD5*%
%TA.AperFunction,SMDPad,CuDef*%
G36*
G01*
X145646000Y-95241000D02*
X145946000Y-95241000D01*
G75*
G02*
X146096000Y-95391000I0J-150000D01*
G01*
X146096000Y-97141000D01*
G75*
G02*
X145946000Y-97291000I-150000J0D01*
G01*
X145646000Y-97291000D01*
G75*
G02*
X145496000Y-97141000I0J150000D01*
G01*
X145496000Y-95391000D01*
G75*
G02*
X145646000Y-95241000I150000J0D01*
G01*
G37*
%TD.AperFunction*%
%TO.P,U2,6*%
%TO.N,/OD2*%
%TA.AperFunction,SMDPad,CuDef*%
G36*
G01*
X146916000Y-95241000D02*
X147216000Y-95241000D01*
G75*
G02*
X147366000Y-95391000I0J-150000D01*
G01*
X147366000Y-97141000D01*
G75*
G02*
X147216000Y-97291000I-150000J0D01*
G01*
X146916000Y-97291000D01*
G75*
G02*
X146766000Y-97141000I0J150000D01*
G01*
X146766000Y-95391000D01*
G75*
G02*
X146916000Y-95241000I150000J0D01*
G01*
G37*
%TD.AperFunction*%
%TO.P,U2,5*%
%TO.N,/PD6*%
%TA.AperFunction,SMDPad,CuDef*%
G36*
G01*
X148186000Y-95241000D02*
X148486000Y-95241000D01*
G75*
G02*
X148636000Y-95391000I0J-150000D01*
G01*
X148636000Y-97141000D01*
G75*
G02*
X148486000Y-97291000I-150000J0D01*
G01*
X148186000Y-97291000D01*
G75*
G02*
X148036000Y-97141000I0J150000D01*
G01*
X148036000Y-95391000D01*
G75*
G02*
X148186000Y-95241000I150000J0D01*
G01*
G37*
%TD.AperFunction*%
%TO.P,U2,4*%
%TO.N,/OD3*%
%TA.AperFunction,SMDPad,CuDef*%
G36*
G01*
X149456000Y-95241000D02*
X149756000Y-95241000D01*
G75*
G02*
X149906000Y-95391000I0J-150000D01*
G01*
X149906000Y-97141000D01*
G75*
G02*
X149756000Y-97291000I-150000J0D01*
G01*
X149456000Y-97291000D01*
G75*
G02*
X149306000Y-97141000I0J150000D01*
G01*
X149306000Y-95391000D01*
G75*
G02*
X149456000Y-95241000I150000J0D01*
G01*
G37*
%TD.AperFunction*%
%TO.P,U2,3*%
%TO.N,/PD7*%
%TA.AperFunction,SMDPad,CuDef*%
G36*
G01*
X150726000Y-95241000D02*
X151026000Y-95241000D01*
G75*
G02*
X151176000Y-95391000I0J-150000D01*
G01*
X151176000Y-97141000D01*
G75*
G02*
X151026000Y-97291000I-150000J0D01*
G01*
X150726000Y-97291000D01*
G75*
G02*
X150576000Y-97141000I0J150000D01*
G01*
X150576000Y-95391000D01*
G75*
G02*
X150726000Y-95241000I150000J0D01*
G01*
G37*
%TD.AperFunction*%
%TO.P,U2,2*%
%TO.N,/OD4*%
%TA.AperFunction,SMDPad,CuDef*%
G36*
G01*
X151996000Y-95241000D02*
X152296000Y-95241000D01*
G75*
G02*
X152446000Y-95391000I0J-150000D01*
G01*
X152446000Y-97141000D01*
G75*
G02*
X152296000Y-97291000I-150000J0D01*
G01*
X151996000Y-97291000D01*
G75*
G02*
X151846000Y-97141000I0J150000D01*
G01*
X151846000Y-95391000D01*
G75*
G02*
X151996000Y-95241000I150000J0D01*
G01*
G37*
%TD.AperFunction*%
%TO.P,U2,1*%
%TO.N,/~R~W*%
%TA.AperFunction,SMDPad,CuDef*%
G36*
G01*
X153266000Y-95241000D02*
X153566000Y-95241000D01*
G75*
G02*
X153716000Y-95391000I0J-150000D01*
G01*
X153716000Y-97141000D01*
G75*
G02*
X153566000Y-97291000I-150000J0D01*
G01*
X153266000Y-97291000D01*
G75*
G02*
X153116000Y-97141000I0J150000D01*
G01*
X153116000Y-95391000D01*
G75*
G02*
X153266000Y-95241000I150000J0D01*
G01*
G37*
%TD.AperFunction*%
%TD*%
D18*
%TO.P,J3,11*%
%TO.N,N/C*%
X187476400Y-121056400D03*
X193446400Y-121056400D03*
D19*
%TO.P,J3,9*%
%TO.N,GND*%
X196946400Y-125731400D03*
%TO.P,J3,10*%
%TO.N,N/C*%
X196946400Y-122031400D03*
D20*
%TO.P,J3,11*%
X196771400Y-131756400D03*
D21*
X185451400Y-131531400D03*
D22*
%TO.P,J3,7*%
%TO.N,/SD_MISO*%
X187711400Y-131881400D03*
%TO.P,J3,6*%
%TO.N,GND*%
X188811400Y-131881400D03*
%TO.P,J3,5*%
%TO.N,/SD_SCK*%
X189911400Y-131881400D03*
%TO.P,J3,4*%
%TO.N,+3V3*%
X191011400Y-131881400D03*
%TO.P,J3,3*%
%TO.N,/SD_MOSI*%
X192111400Y-131881400D03*
%TO.P,J3,2*%
%TO.N,/SD_CS*%
X193211400Y-131881400D03*
D23*
%TO.P,J3,8*%
%TO.N,N/C*%
X186661400Y-131881400D03*
D22*
%TO.P,J3,1*%
X194311400Y-131881400D03*
%TD*%
D24*
%TO.P,U7,43*%
%TO.N,Net-(U7-Pad43)*%
X194411600Y-107212000D03*
D25*
X194411600Y-108112000D03*
D26*
%TO.P,U7,42*%
%TO.N,Net-(U7-Pad42)*%
X191871600Y-107212000D03*
D25*
X191871600Y-108112000D03*
D24*
%TO.P,U7,41*%
%TO.N,Net-(U7-Pad41)*%
X189331600Y-107212000D03*
D25*
X189331600Y-108112000D03*
D27*
%TO.P,U7,21*%
%TO.N,/ID0*%
X201661600Y-107442000D03*
%TO.P,U7,22*%
%TO.N,/ID1*%
X201661600Y-104902000D03*
%TO.P,U7,23*%
%TO.N,GND*%
X201661600Y-102362000D03*
%TO.P,U7,24*%
%TO.N,/ID2*%
X201661600Y-99822000D03*
%TO.P,U7,25*%
%TO.N,/ID3*%
X201661600Y-97282000D03*
%TO.P,U7,26*%
%TO.N,/ID4*%
X201661600Y-94742000D03*
%TO.P,U7,27*%
%TO.N,/ID5*%
X201661600Y-92202000D03*
%TO.P,U7,28*%
%TO.N,GND*%
X201661600Y-89662000D03*
%TO.P,U7,29*%
%TO.N,/ID6*%
X201661600Y-87122000D03*
%TO.P,U7,30*%
%TO.N,/RUN*%
X201661600Y-84582000D03*
%TO.P,U7,31*%
%TO.N,/ID7*%
X201661600Y-82042000D03*
%TO.P,U7,32*%
%TO.N,/CMD*%
X201661600Y-79502000D03*
%TO.P,U7,33*%
%TO.N,GND*%
X201661600Y-76962000D03*
%TO.P,U7,34*%
%TO.N,/STRB*%
X201661600Y-74422000D03*
%TO.P,U7,35*%
%TO.N,Net-(U7-Pad35)*%
X201661600Y-71882000D03*
%TO.P,U7,36*%
%TO.N,+3V3*%
X201661600Y-69342000D03*
%TO.P,U7,37*%
%TO.N,Net-(U7-Pad37)*%
X201661600Y-66802000D03*
%TO.P,U7,38*%
%TO.N,GND*%
X201661600Y-64262000D03*
%TO.P,U7,39*%
%TO.N,+5VL*%
X201661600Y-61722000D03*
%TO.P,U7,40*%
%TO.N,Net-(U7-Pad40)*%
X201661600Y-59182000D03*
%TO.P,U7,20*%
%TO.N,/SD_MOSI*%
X182081600Y-107442000D03*
%TO.P,U7,19*%
%TO.N,/SD_SCK*%
X182081600Y-104902000D03*
%TO.P,U7,18*%
%TO.N,GND*%
X182081600Y-102362000D03*
%TO.P,U7,17*%
%TO.N,/SD_CS*%
X182081600Y-99822000D03*
%TO.P,U7,16*%
%TO.N,/SD_MISO*%
X182081600Y-97282000D03*
%TO.P,U7,15*%
%TO.N,/SCL*%
X182081600Y-94742000D03*
%TO.P,U7,14*%
%TO.N,/SDA*%
X182081600Y-92202000D03*
%TO.P,U7,13*%
%TO.N,GND*%
X182081600Y-89662000D03*
%TO.P,U7,12*%
%TO.N,/~R~W*%
X182081600Y-87122000D03*
%TO.P,U7,11*%
%TO.N,/BSY*%
X182081600Y-84582000D03*
%TO.P,U7,10*%
%TO.N,/OD7*%
X182081600Y-82042000D03*
%TO.P,U7,9*%
%TO.N,/OD6*%
X182081600Y-79502000D03*
%TO.P,U7,8*%
%TO.N,GND*%
X182081600Y-76962000D03*
%TO.P,U7,7*%
%TO.N,/OD5*%
X182081600Y-74422000D03*
%TO.P,U7,6*%
%TO.N,/OD4*%
X182081600Y-71882000D03*
%TO.P,U7,5*%
%TO.N,/OD3*%
X182081600Y-69342000D03*
%TO.P,U7,4*%
%TO.N,/OD2*%
X182081600Y-66802000D03*
%TO.P,U7,3*%
%TO.N,GND*%
X182081600Y-64262000D03*
%TO.P,U7,2*%
%TO.N,/OD1*%
X182081600Y-61722000D03*
%TO.P,U7,1*%
%TO.N,/OD0*%
X182081600Y-59182000D03*
D24*
%TO.P,U7,40*%
%TO.N,Net-(U7-Pad40)*%
X200761600Y-59182000D03*
%TO.P,U7,39*%
%TO.N,+5VL*%
X200761600Y-61722000D03*
D26*
%TO.P,U7,38*%
%TO.N,GND*%
X200761600Y-64262000D03*
D24*
%TO.P,U7,37*%
%TO.N,Net-(U7-Pad37)*%
X200761600Y-66802000D03*
%TO.P,U7,36*%
%TO.N,+3V3*%
X200761600Y-69342000D03*
%TO.P,U7,35*%
%TO.N,Net-(U7-Pad35)*%
X200761600Y-71882000D03*
%TO.P,U7,34*%
%TO.N,/STRB*%
X200761600Y-74422000D03*
D26*
%TO.P,U7,33*%
%TO.N,GND*%
X200761600Y-76962000D03*
D24*
%TO.P,U7,32*%
%TO.N,/CMD*%
X200761600Y-79502000D03*
%TO.P,U7,31*%
%TO.N,/ID7*%
X200761600Y-82042000D03*
%TO.P,U7,30*%
%TO.N,/RUN*%
X200761600Y-84582000D03*
%TO.P,U7,29*%
%TO.N,/ID6*%
X200761600Y-87122000D03*
D26*
%TO.P,U7,28*%
%TO.N,GND*%
X200761600Y-89662000D03*
D24*
%TO.P,U7,27*%
%TO.N,/ID5*%
X200761600Y-92202000D03*
%TO.P,U7,26*%
%TO.N,/ID4*%
X200761600Y-94742000D03*
%TO.P,U7,25*%
%TO.N,/ID3*%
X200761600Y-97282000D03*
%TO.P,U7,24*%
%TO.N,/ID2*%
X200761600Y-99822000D03*
D26*
%TO.P,U7,23*%
%TO.N,GND*%
X200761600Y-102362000D03*
D24*
%TO.P,U7,22*%
%TO.N,/ID1*%
X200761600Y-104902000D03*
%TO.P,U7,21*%
%TO.N,/ID0*%
X200761600Y-107442000D03*
%TO.P,U7,20*%
%TO.N,/SD_MOSI*%
X182981600Y-107442000D03*
%TO.P,U7,19*%
%TO.N,/SD_SCK*%
X182981600Y-104902000D03*
D26*
%TO.P,U7,18*%
%TO.N,GND*%
X182981600Y-102362000D03*
D24*
%TO.P,U7,17*%
%TO.N,/SD_CS*%
X182981600Y-99822000D03*
%TO.P,U7,16*%
%TO.N,/SD_MISO*%
X182981600Y-97282000D03*
%TO.P,U7,15*%
%TO.N,/SCL*%
X182981600Y-94742000D03*
%TO.P,U7,14*%
%TO.N,/SDA*%
X182981600Y-92202000D03*
D26*
%TO.P,U7,13*%
%TO.N,GND*%
X182981600Y-89662000D03*
D24*
%TO.P,U7,12*%
%TO.N,/~R~W*%
X182981600Y-87122000D03*
%TO.P,U7,11*%
%TO.N,/BSY*%
X182981600Y-84582000D03*
%TO.P,U7,10*%
%TO.N,/OD7*%
X182981600Y-82042000D03*
%TO.P,U7,9*%
%TO.N,/OD6*%
X182981600Y-79502000D03*
D26*
%TO.P,U7,8*%
%TO.N,GND*%
X182981600Y-76962000D03*
D24*
%TO.P,U7,7*%
%TO.N,/OD5*%
X182981600Y-74422000D03*
%TO.P,U7,6*%
%TO.N,/OD4*%
X182981600Y-71882000D03*
%TO.P,U7,5*%
%TO.N,/OD3*%
X182981600Y-69342000D03*
%TO.P,U7,4*%
%TO.N,/OD2*%
X182981600Y-66802000D03*
D26*
%TO.P,U7,3*%
%TO.N,GND*%
X182981600Y-64262000D03*
D24*
%TO.P,U7,2*%
%TO.N,/OD1*%
X182981600Y-61722000D03*
%TO.P,U7,1*%
%TO.N,/OD0*%
X182981600Y-59182000D03*
%TD*%
%TO.P,U1,14*%
%TO.N,+5VL*%
%TA.AperFunction,SMDPad,CuDef*%
G36*
G01*
X123911000Y-101450000D02*
X123911000Y-101750000D01*
G75*
G02*
X123761000Y-101900000I-150000J0D01*
G01*
X122111000Y-101900000D01*
G75*
G02*
X121961000Y-101750000I0J150000D01*
G01*
X121961000Y-101450000D01*
G75*
G02*
X122111000Y-101300000I150000J0D01*
G01*
X123761000Y-101300000D01*
G75*
G02*
X123911000Y-101450000I0J-150000D01*
G01*
G37*
%TD.AperFunction*%
%TO.P,U1,13*%
%TO.N,/PD5*%
%TA.AperFunction,SMDPad,CuDef*%
G36*
G01*
X123911000Y-100180000D02*
X123911000Y-100480000D01*
G75*
G02*
X123761000Y-100630000I-150000J0D01*
G01*
X122111000Y-100630000D01*
G75*
G02*
X121961000Y-100480000I0J150000D01*
G01*
X121961000Y-100180000D01*
G75*
G02*
X122111000Y-100030000I150000J0D01*
G01*
X123761000Y-100030000D01*
G75*
G02*
X123911000Y-100180000I0J-150000D01*
G01*
G37*
%TD.AperFunction*%
%TO.P,U1,12*%
%TO.N,/PD4*%
%TA.AperFunction,SMDPad,CuDef*%
G36*
G01*
X123911000Y-98910000D02*
X123911000Y-99210000D01*
G75*
G02*
X123761000Y-99360000I-150000J0D01*
G01*
X122111000Y-99360000D01*
G75*
G02*
X121961000Y-99210000I0J150000D01*
G01*
X121961000Y-98910000D01*
G75*
G02*
X122111000Y-98760000I150000J0D01*
G01*
X123761000Y-98760000D01*
G75*
G02*
X123911000Y-98910000I0J-150000D01*
G01*
G37*
%TD.AperFunction*%
%TO.P,U1,11*%
%TO.N,/PD3*%
%TA.AperFunction,SMDPad,CuDef*%
G36*
G01*
X123911000Y-97640000D02*
X123911000Y-97940000D01*
G75*
G02*
X123761000Y-98090000I-150000J0D01*
G01*
X122111000Y-98090000D01*
G75*
G02*
X121961000Y-97940000I0J150000D01*
G01*
X121961000Y-97640000D01*
G75*
G02*
X122111000Y-97490000I150000J0D01*
G01*
X123761000Y-97490000D01*
G75*
G02*
X123911000Y-97640000I0J-150000D01*
G01*
G37*
%TD.AperFunction*%
%TO.P,U1,10*%
%TO.N,/PD2*%
%TA.AperFunction,SMDPad,CuDef*%
G36*
G01*
X123911000Y-96370000D02*
X123911000Y-96670000D01*
G75*
G02*
X123761000Y-96820000I-150000J0D01*
G01*
X122111000Y-96820000D01*
G75*
G02*
X121961000Y-96670000I0J150000D01*
G01*
X121961000Y-96370000D01*
G75*
G02*
X122111000Y-96220000I150000J0D01*
G01*
X123761000Y-96220000D01*
G75*
G02*
X123911000Y-96370000I0J-150000D01*
G01*
G37*
%TD.AperFunction*%
%TO.P,U1,9*%
%TO.N,/PD1*%
%TA.AperFunction,SMDPad,CuDef*%
G36*
G01*
X123911000Y-95100000D02*
X123911000Y-95400000D01*
G75*
G02*
X123761000Y-95550000I-150000J0D01*
G01*
X122111000Y-95550000D01*
G75*
G02*
X121961000Y-95400000I0J150000D01*
G01*
X121961000Y-95100000D01*
G75*
G02*
X122111000Y-94950000I150000J0D01*
G01*
X123761000Y-94950000D01*
G75*
G02*
X123911000Y-95100000I0J-150000D01*
G01*
G37*
%TD.AperFunction*%
%TO.P,U1,8*%
%TO.N,/PD0*%
%TA.AperFunction,SMDPad,CuDef*%
G36*
G01*
X123911000Y-93830000D02*
X123911000Y-94130000D01*
G75*
G02*
X123761000Y-94280000I-150000J0D01*
G01*
X122111000Y-94280000D01*
G75*
G02*
X121961000Y-94130000I0J150000D01*
G01*
X121961000Y-93830000D01*
G75*
G02*
X122111000Y-93680000I150000J0D01*
G01*
X123761000Y-93680000D01*
G75*
G02*
X123911000Y-93830000I0J-150000D01*
G01*
G37*
%TD.AperFunction*%
%TO.P,U1,7*%
%TO.N,GND*%
%TA.AperFunction,SMDPad,CuDef*%
G36*
G01*
X128861000Y-93830000D02*
X128861000Y-94130000D01*
G75*
G02*
X128711000Y-94280000I-150000J0D01*
G01*
X127061000Y-94280000D01*
G75*
G02*
X126911000Y-94130000I0J150000D01*
G01*
X126911000Y-93830000D01*
G75*
G02*
X127061000Y-93680000I150000J0D01*
G01*
X128711000Y-93680000D01*
G75*
G02*
X128861000Y-93830000I0J-150000D01*
G01*
G37*
%TD.AperFunction*%
%TO.P,U1,6*%
%TO.N,Net-(U1-Pad6)*%
%TA.AperFunction,SMDPad,CuDef*%
G36*
G01*
X128861000Y-95100000D02*
X128861000Y-95400000D01*
G75*
G02*
X128711000Y-95550000I-150000J0D01*
G01*
X127061000Y-95550000D01*
G75*
G02*
X126911000Y-95400000I0J150000D01*
G01*
X126911000Y-95100000D01*
G75*
G02*
X127061000Y-94950000I150000J0D01*
G01*
X128711000Y-94950000D01*
G75*
G02*
X128861000Y-95100000I0J-150000D01*
G01*
G37*
%TD.AperFunction*%
%TO.P,U1,5*%
%TO.N,N/C*%
%TA.AperFunction,SMDPad,CuDef*%
G36*
G01*
X128861000Y-96370000D02*
X128861000Y-96670000D01*
G75*
G02*
X128711000Y-96820000I-150000J0D01*
G01*
X127061000Y-96820000D01*
G75*
G02*
X126911000Y-96670000I0J150000D01*
G01*
X126911000Y-96370000D01*
G75*
G02*
X127061000Y-96220000I150000J0D01*
G01*
X128711000Y-96220000D01*
G75*
G02*
X128861000Y-96370000I0J-150000D01*
G01*
G37*
%TD.AperFunction*%
%TO.P,U1,4*%
%TO.N,GND*%
%TA.AperFunction,SMDPad,CuDef*%
G36*
G01*
X128861000Y-97640000D02*
X128861000Y-97940000D01*
G75*
G02*
X128711000Y-98090000I-150000J0D01*
G01*
X127061000Y-98090000D01*
G75*
G02*
X126911000Y-97940000I0J150000D01*
G01*
X126911000Y-97640000D01*
G75*
G02*
X127061000Y-97490000I150000J0D01*
G01*
X128711000Y-97490000D01*
G75*
G02*
X128861000Y-97640000I0J-150000D01*
G01*
G37*
%TD.AperFunction*%
%TO.P,U1,3*%
%TO.N,N/C*%
%TA.AperFunction,SMDPad,CuDef*%
G36*
G01*
X128861000Y-98910000D02*
X128861000Y-99210000D01*
G75*
G02*
X128711000Y-99360000I-150000J0D01*
G01*
X127061000Y-99360000D01*
G75*
G02*
X126911000Y-99210000I0J150000D01*
G01*
X126911000Y-98910000D01*
G75*
G02*
X127061000Y-98760000I150000J0D01*
G01*
X128711000Y-98760000D01*
G75*
G02*
X128861000Y-98910000I0J-150000D01*
G01*
G37*
%TD.AperFunction*%
%TO.P,U1,2*%
%TO.N,/PD7*%
%TA.AperFunction,SMDPad,CuDef*%
G36*
G01*
X128861000Y-100180000D02*
X128861000Y-100480000D01*
G75*
G02*
X128711000Y-100630000I-150000J0D01*
G01*
X127061000Y-100630000D01*
G75*
G02*
X126911000Y-100480000I0J150000D01*
G01*
X126911000Y-100180000D01*
G75*
G02*
X127061000Y-100030000I150000J0D01*
G01*
X128711000Y-100030000D01*
G75*
G02*
X128861000Y-100180000I0J-150000D01*
G01*
G37*
%TD.AperFunction*%
%TO.P,U1,1*%
%TO.N,/PD6*%
%TA.AperFunction,SMDPad,CuDef*%
G36*
G01*
X128861000Y-101450000D02*
X128861000Y-101750000D01*
G75*
G02*
X128711000Y-101900000I-150000J0D01*
G01*
X127061000Y-101900000D01*
G75*
G02*
X126911000Y-101750000I0J150000D01*
G01*
X126911000Y-101450000D01*
G75*
G02*
X127061000Y-101300000I150000J0D01*
G01*
X128711000Y-101300000D01*
G75*
G02*
X128861000Y-101450000I0J-150000D01*
G01*
G37*
%TD.AperFunction*%
%TD*%
%TO.P,R5,2*%
%TO.N,/SD_MISO*%
%TA.AperFunction,SMDPad,CuDef*%
G36*
G01*
X181642200Y-126217000D02*
X181642200Y-126767000D01*
G75*
G02*
X181442200Y-126967000I-200000J0D01*
G01*
X181042200Y-126967000D01*
G75*
G02*
X180842200Y-126767000I0J200000D01*
G01*
X180842200Y-126217000D01*
G75*
G02*
X181042200Y-126017000I200000J0D01*
G01*
X181442200Y-126017000D01*
G75*
G02*
X181642200Y-126217000I0J-200000D01*
G01*
G37*
%TD.AperFunction*%
%TO.P,R5,1*%
%TO.N,+3V3*%
%TA.AperFunction,SMDPad,CuDef*%
G36*
G01*
X183292200Y-126217000D02*
X183292200Y-126767000D01*
G75*
G02*
X183092200Y-126967000I-200000J0D01*
G01*
X182692200Y-126967000D01*
G75*
G02*
X182492200Y-126767000I0J200000D01*
G01*
X182492200Y-126217000D01*
G75*
G02*
X182692200Y-126017000I200000J0D01*
G01*
X183092200Y-126017000D01*
G75*
G02*
X183292200Y-126217000I0J-200000D01*
G01*
G37*
%TD.AperFunction*%
%TD*%
%TO.P,R4,2*%
%TO.N,/SD_SCK*%
%TA.AperFunction,SMDPad,CuDef*%
G36*
G01*
X181630000Y-122864200D02*
X181630000Y-123414200D01*
G75*
G02*
X181430000Y-123614200I-200000J0D01*
G01*
X181030000Y-123614200D01*
G75*
G02*
X180830000Y-123414200I0J200000D01*
G01*
X180830000Y-122864200D01*
G75*
G02*
X181030000Y-122664200I200000J0D01*
G01*
X181430000Y-122664200D01*
G75*
G02*
X181630000Y-122864200I0J-200000D01*
G01*
G37*
%TD.AperFunction*%
%TO.P,R4,1*%
%TO.N,+3V3*%
%TA.AperFunction,SMDPad,CuDef*%
G36*
G01*
X183280000Y-122864200D02*
X183280000Y-123414200D01*
G75*
G02*
X183080000Y-123614200I-200000J0D01*
G01*
X182680000Y-123614200D01*
G75*
G02*
X182480000Y-123414200I0J200000D01*
G01*
X182480000Y-122864200D01*
G75*
G02*
X182680000Y-122664200I200000J0D01*
G01*
X183080000Y-122664200D01*
G75*
G02*
X183280000Y-122864200I0J-200000D01*
G01*
G37*
%TD.AperFunction*%
%TD*%
%TO.P,R3,2*%
%TO.N,/SD_MOSI*%
%TA.AperFunction,SMDPad,CuDef*%
G36*
G01*
X199560000Y-124783400D02*
X200110000Y-124783400D01*
G75*
G02*
X200310000Y-124983400I0J-200000D01*
G01*
X200310000Y-125383400D01*
G75*
G02*
X200110000Y-125583400I-200000J0D01*
G01*
X199560000Y-125583400D01*
G75*
G02*
X199360000Y-125383400I0J200000D01*
G01*
X199360000Y-124983400D01*
G75*
G02*
X199560000Y-124783400I200000J0D01*
G01*
G37*
%TD.AperFunction*%
%TO.P,R3,1*%
%TO.N,+3V3*%
%TA.AperFunction,SMDPad,CuDef*%
G36*
G01*
X199560000Y-123133400D02*
X200110000Y-123133400D01*
G75*
G02*
X200310000Y-123333400I0J-200000D01*
G01*
X200310000Y-123733400D01*
G75*
G02*
X200110000Y-123933400I-200000J0D01*
G01*
X199560000Y-123933400D01*
G75*
G02*
X199360000Y-123733400I0J200000D01*
G01*
X199360000Y-123333400D01*
G75*
G02*
X199560000Y-123133400I200000J0D01*
G01*
G37*
%TD.AperFunction*%
%TD*%
%TO.P,R2,2*%
%TO.N,/SD_CS*%
%TA.AperFunction,SMDPad,CuDef*%
G36*
G01*
X199572200Y-130066600D02*
X200122200Y-130066600D01*
G75*
G02*
X200322200Y-130266600I0J-200000D01*
G01*
X200322200Y-130666600D01*
G75*
G02*
X200122200Y-130866600I-200000J0D01*
G01*
X199572200Y-130866600D01*
G75*
G02*
X199372200Y-130666600I0J200000D01*
G01*
X199372200Y-130266600D01*
G75*
G02*
X199572200Y-130066600I200000J0D01*
G01*
G37*
%TD.AperFunction*%
%TO.P,R2,1*%
%TO.N,+3V3*%
%TA.AperFunction,SMDPad,CuDef*%
G36*
G01*
X199572200Y-128416600D02*
X200122200Y-128416600D01*
G75*
G02*
X200322200Y-128616600I0J-200000D01*
G01*
X200322200Y-129016600D01*
G75*
G02*
X200122200Y-129216600I-200000J0D01*
G01*
X199572200Y-129216600D01*
G75*
G02*
X199372200Y-129016600I0J200000D01*
G01*
X199372200Y-128616600D01*
G75*
G02*
X199572200Y-128416600I200000J0D01*
G01*
G37*
%TD.AperFunction*%
%TD*%
%TO.P,J4,4*%
%TO.N,GND*%
X170535600Y-100888800D03*
%TO.P,J4,3*%
%TO.N,/SCL*%
X170535600Y-98348800D03*
%TO.P,J4,2*%
%TO.N,/SDA*%
X170535600Y-95808800D03*
D26*
%TO.P,J4,1*%
%TO.N,+3V3*%
X170535600Y-93268800D03*
%TD*%
%TO.P,C6,2*%
%TO.N,GND*%
%TA.AperFunction,SMDPad,CuDef*%
G36*
G01*
X152316000Y-124718000D02*
X152316000Y-125218000D01*
G75*
G02*
X152091000Y-125443000I-225000J0D01*
G01*
X151641000Y-125443000D01*
G75*
G02*
X151416000Y-125218000I0J225000D01*
G01*
X151416000Y-124718000D01*
G75*
G02*
X151641000Y-124493000I225000J0D01*
G01*
X152091000Y-124493000D01*
G75*
G02*
X152316000Y-124718000I0J-225000D01*
G01*
G37*
%TD.AperFunction*%
%TO.P,C6,1*%
%TO.N,+3V3*%
%TA.AperFunction,SMDPad,CuDef*%
G36*
G01*
X153866000Y-124718000D02*
X153866000Y-125218000D01*
G75*
G02*
X153641000Y-125443000I-225000J0D01*
G01*
X153191000Y-125443000D01*
G75*
G02*
X152966000Y-125218000I0J225000D01*
G01*
X152966000Y-124718000D01*
G75*
G02*
X153191000Y-124493000I225000J0D01*
G01*
X153641000Y-124493000D01*
G75*
G02*
X153866000Y-124718000I0J-225000D01*
G01*
G37*
%TD.AperFunction*%
%TD*%
%TO.P,C3,2*%
%TO.N,GND*%
%TA.AperFunction,SMDPad,CuDef*%
G36*
G01*
X155901200Y-104488400D02*
X155401200Y-104488400D01*
G75*
G02*
X155176200Y-104263400I0J225000D01*
G01*
X155176200Y-103813400D01*
G75*
G02*
X155401200Y-103588400I225000J0D01*
G01*
X155901200Y-103588400D01*
G75*
G02*
X156126200Y-103813400I0J-225000D01*
G01*
X156126200Y-104263400D01*
G75*
G02*
X155901200Y-104488400I-225000J0D01*
G01*
G37*
%TD.AperFunction*%
%TO.P,C3,1*%
%TO.N,+5VL*%
%TA.AperFunction,SMDPad,CuDef*%
G36*
G01*
X155901200Y-106038400D02*
X155401200Y-106038400D01*
G75*
G02*
X155176200Y-105813400I0J225000D01*
G01*
X155176200Y-105363400D01*
G75*
G02*
X155401200Y-105138400I225000J0D01*
G01*
X155901200Y-105138400D01*
G75*
G02*
X156126200Y-105363400I0J-225000D01*
G01*
X156126200Y-105813400D01*
G75*
G02*
X155901200Y-106038400I-225000J0D01*
G01*
G37*
%TD.AperFunction*%
%TD*%
%TO.P,C1,2*%
%TO.N,GND*%
%TA.AperFunction,SMDPad,CuDef*%
G36*
G01*
X125801000Y-104136000D02*
X125801000Y-103636000D01*
G75*
G02*
X126026000Y-103411000I225000J0D01*
G01*
X126476000Y-103411000D01*
G75*
G02*
X126701000Y-103636000I0J-225000D01*
G01*
X126701000Y-104136000D01*
G75*
G02*
X126476000Y-104361000I-225000J0D01*
G01*
X126026000Y-104361000D01*
G75*
G02*
X125801000Y-104136000I0J225000D01*
G01*
G37*
%TD.AperFunction*%
%TO.P,C1,1*%
%TO.N,+5VL*%
%TA.AperFunction,SMDPad,CuDef*%
G36*
G01*
X124251000Y-104136000D02*
X124251000Y-103636000D01*
G75*
G02*
X124476000Y-103411000I225000J0D01*
G01*
X124926000Y-103411000D01*
G75*
G02*
X125151000Y-103636000I0J-225000D01*
G01*
X125151000Y-104136000D01*
G75*
G02*
X124926000Y-104361000I-225000J0D01*
G01*
X124476000Y-104361000D01*
G75*
G02*
X124251000Y-104136000I0J225000D01*
G01*
G37*
%TD.AperFunction*%
%TD*%
D28*
%TO.N,GND*%
X188264800Y-80670400D03*
X190652400Y-64262000D03*
X152958800Y-118516400D03*
D29*
X155651200Y-101955600D03*
X141986000Y-98094800D03*
D28*
X134518400Y-98094800D03*
X121412000Y-108458000D03*
X153670000Y-114147600D03*
X139954000Y-112014000D03*
D30*
X215000000Y-63000000D03*
X215000000Y-125994000D03*
X106997200Y-125994000D03*
X107000000Y-63000000D03*
D28*
X195326000Y-125730000D03*
X186734450Y-126066550D03*
X175412400Y-77012800D03*
X170027600Y-74523600D03*
D29*
X169570400Y-77317600D03*
D28*
X188315600Y-77063600D03*
%TO.N,+3V3*%
X191008000Y-122478800D03*
X195834000Y-69342000D03*
X196443600Y-112572800D03*
X196443600Y-80162400D03*
D29*
X196443600Y-86410800D03*
D28*
X176072800Y-109016800D03*
X130454400Y-110591600D03*
X153466800Y-123393200D03*
X175971200Y-123393200D03*
X182892200Y-124574800D03*
D29*
%TO.N,/D3*%
X140970000Y-77216000D03*
X140970000Y-72644000D03*
%TO.N,/~PBSY*%
X132638800Y-61010800D03*
%TO.N,/D6*%
X153162000Y-74676000D03*
%TO.N,/D2*%
X137160000Y-73660000D03*
%TO.N,/D1*%
X133096000Y-76454000D03*
%TO.N,/D4*%
X145034000Y-78232000D03*
X145034000Y-72910000D03*
%TO.N,/~PRES*%
X146507200Y-59740800D03*
%TO.N,/~PCMD*%
X135483600Y-60045600D03*
%TO.N,/~PSTRB*%
X129794000Y-61925200D03*
%TO.N,/D7*%
X157988000Y-75692000D03*
%TO.N,/D5*%
X149098000Y-73660000D03*
%TO.N,/D0*%
X129032000Y-76454000D03*
%TO.N,/PR~W*%
X124968000Y-75692000D03*
%TO.N,/SD_MOSI*%
X199821800Y-126402400D03*
X201918000Y-126398020D03*
%TO.N,/PD0*%
X141986000Y-119380000D03*
X143256000Y-98806000D03*
X129082800Y-83769200D03*
%TO.N,/PD1*%
X140208000Y-103632000D03*
X137922000Y-103632000D03*
D31*
X121666000Y-85090000D03*
D29*
X144526000Y-110337600D03*
X144526000Y-107442000D03*
X133096000Y-85090000D03*
D31*
%TO.N,/PD2*%
X120396000Y-85725000D03*
D29*
X147066000Y-107492800D03*
X147065975Y-110388425D03*
X137169359Y-84582000D03*
%TO.N,/PD3*%
X140970000Y-85979000D03*
D31*
X119507000Y-86868000D03*
D29*
X149656800Y-107442000D03*
X149606000Y-110337600D03*
D31*
%TO.N,/PD4*%
X118745000Y-88011000D03*
D29*
X141223990Y-87287990D03*
X152146000Y-107492800D03*
X152146000Y-110337584D03*
%TO.N,/PD5*%
X144526000Y-119380000D03*
X145796000Y-99060000D03*
D31*
X117856000Y-88900000D03*
D29*
X145796000Y-88049990D03*
%TO.N,/PD6*%
X147066000Y-119634000D03*
X148336000Y-98044000D03*
D31*
X124714000Y-88988010D03*
D29*
X148321203Y-88988010D03*
%TO.N,/PD7*%
X149860000Y-119126000D03*
D31*
X125730000Y-90170000D03*
D29*
X150876000Y-98805994D03*
X150876000Y-89865200D03*
%TO.N,Net-(U1-Pad6)*%
X130048000Y-92100400D03*
%TO.N,/OD7*%
X149606000Y-103631994D03*
X157632400Y-97840800D03*
%TO.N,/OD6*%
X147066000Y-103124000D03*
X156819600Y-97028000D03*
%TO.N,/OD5*%
X144526000Y-103631996D03*
X156006800Y-96012000D03*
%TO.N,/OD0*%
X138938000Y-79248000D03*
X138847948Y-85761948D03*
%TO.N,/ID0*%
X144526000Y-116078000D03*
X152552400Y-127457220D03*
X147828000Y-127457200D03*
X204559600Y-126526400D03*
%TO.N,/ID1*%
X153466800Y-127773990D03*
X205474000Y-127136000D03*
%TO.N,/ID2*%
X152438800Y-128524000D03*
X206388400Y-127685200D03*
%TO.N,/ID3*%
X151676800Y-126644400D03*
X207297200Y-128294000D03*
%TO.N,/ID4*%
X150926800Y-123545600D03*
X208187990Y-128884790D03*
%TO.N,/ID5*%
X149479000Y-117475000D03*
X151841200Y-130822000D03*
X149097994Y-130860800D03*
X209097200Y-129494000D03*
%TO.N,/ID6*%
X150749000Y-119380000D03*
X209997200Y-130094000D03*
%TO.N,/ID7*%
X155092400Y-132384800D03*
X155117800Y-124714000D03*
X155117800Y-122250200D03*
X210897200Y-130694000D03*
D28*
%TO.N,+5VL*%
X172415200Y-64617600D03*
X121361200Y-106324400D03*
X172415200Y-73101200D03*
X164439600Y-73406000D03*
D29*
X159664400Y-93319600D03*
%TO.N,/~R~W*%
X142367000Y-99949000D03*
%TO.N,/BSY*%
X163880800Y-83667600D03*
%TO.N,Net-(R16-Pad2)*%
X122478800Y-109728000D03*
X121794000Y-82472009D03*
%TD*%
D32*
%TO.N,GND*%
X126911000Y-97790000D02*
X126076010Y-96955010D01*
X127886000Y-97790000D02*
X126911000Y-97790000D01*
X126911000Y-93980000D02*
X127886000Y-93980000D01*
X126076010Y-94814990D02*
X126911000Y-93980000D01*
X126076010Y-96955010D02*
X126076010Y-94814990D01*
D33*
X154815000Y-64391000D02*
X154815000Y-63835000D01*
D34*
X151866000Y-124968000D02*
X151866000Y-124105000D01*
X152146000Y-123825000D02*
X152146000Y-121314000D01*
X151866000Y-124105000D02*
X152146000Y-123825000D01*
D35*
X182981600Y-64262000D02*
X190652400Y-64262000D01*
D34*
X152146000Y-119329200D02*
X152958800Y-118516400D01*
X152146000Y-121314000D02*
X152146000Y-119329200D01*
D35*
X155651200Y-101955600D02*
X155651200Y-104038400D01*
D33*
X141986000Y-96266000D02*
X141986000Y-98094800D01*
D35*
X134518400Y-98094800D02*
X134213600Y-97790000D01*
X134213600Y-97790000D02*
X129997200Y-97790000D01*
X129997200Y-97790000D02*
X129997200Y-101807318D01*
D36*
X127918518Y-103886000D02*
X126301000Y-103886000D01*
D35*
X129997200Y-101807318D02*
X127918518Y-103886000D01*
X123346518Y-108458000D02*
X121412000Y-108458000D01*
X127918518Y-103886000D02*
X123346518Y-108458000D01*
D32*
X170535600Y-76606400D02*
X170180000Y-76962000D01*
D35*
X153670000Y-114147600D02*
X153670000Y-112268000D01*
X198374000Y-87874402D02*
X198374000Y-77317600D01*
X200161598Y-89662000D02*
X198374000Y-87874402D01*
X200761600Y-89662000D02*
X200161598Y-89662000D01*
X198729600Y-76962000D02*
X198374000Y-77317600D01*
X200761600Y-76962000D02*
X198729600Y-76962000D01*
D33*
X195327400Y-125731400D02*
X196946400Y-125731400D01*
X195326000Y-125730000D02*
X195327400Y-125731400D01*
D35*
X139954000Y-112014000D02*
X140830300Y-112014000D01*
D33*
X140830300Y-112014000D02*
X141986000Y-112014000D01*
X188811400Y-128143500D02*
X188811400Y-131881400D01*
X186734450Y-126066550D02*
X188811400Y-128143500D01*
D36*
X170535600Y-75031600D02*
X170535600Y-76606400D01*
X170027600Y-74523600D02*
X170535600Y-75031600D01*
D35*
X175412400Y-76962000D02*
X175412400Y-77012800D01*
X169926000Y-76962000D02*
X175412400Y-76962000D01*
D36*
X169570400Y-77317600D02*
X169926000Y-76962000D01*
D35*
X188214000Y-76962000D02*
X182981600Y-76962000D01*
X188315600Y-77063600D02*
X188214000Y-76962000D01*
X188264800Y-77114400D02*
X188264800Y-80670400D01*
X188315600Y-77063600D02*
X188264800Y-77114400D01*
D34*
X127886000Y-97790000D02*
X129997200Y-97790000D01*
D33*
%TO.N,+3V3*%
X182892200Y-123151400D02*
X182880000Y-123139200D01*
X182892200Y-126492000D02*
X182892200Y-124777000D01*
X182892200Y-124777000D02*
X182892200Y-123151400D01*
D32*
X199847200Y-128816600D02*
X199847200Y-128320800D01*
X199847200Y-128320800D02*
X201168000Y-127000000D01*
X201168000Y-127000000D02*
X201168000Y-123647200D01*
X201054200Y-123533400D02*
X199835000Y-123533400D01*
X201168000Y-123647200D02*
X201054200Y-123533400D01*
X191121800Y-123533400D02*
X191011400Y-123643800D01*
D33*
X199835000Y-123533400D02*
X191121800Y-123533400D01*
D35*
X200761600Y-69342000D02*
X195834000Y-69342000D01*
X195834000Y-69342000D02*
X196443600Y-69951600D01*
X175158400Y-93268800D02*
X170535600Y-93268800D01*
X176022000Y-94132400D02*
X175158400Y-93268800D01*
X196443600Y-69951600D02*
X196443600Y-80162400D01*
X196443600Y-86410800D02*
X196443600Y-112572800D01*
X196443600Y-80162400D02*
X196443600Y-86410800D01*
X176022000Y-108966000D02*
X176022000Y-94132400D01*
X176072800Y-109016800D02*
X132029200Y-109016800D01*
X132029200Y-109016800D02*
X130454400Y-110591600D01*
X153416000Y-123444000D02*
X153466800Y-123393200D01*
D34*
X153416000Y-124968000D02*
X153416000Y-123444000D01*
D32*
X153416000Y-123444000D02*
X153416000Y-121314000D01*
D35*
X176022000Y-123342400D02*
X176022000Y-109067600D01*
X175971200Y-123393200D02*
X176022000Y-123342400D01*
X176022000Y-109067600D02*
X176072800Y-109016800D01*
X153466800Y-123393200D02*
X175971200Y-123393200D01*
D33*
X191011400Y-122482200D02*
X191008000Y-122478800D01*
X191008000Y-131878000D02*
X191011400Y-131881400D01*
D35*
X191008000Y-122478800D02*
X191008000Y-130683000D01*
D33*
X191011400Y-130686400D02*
X191008000Y-130683000D01*
X191011400Y-131881400D02*
X191011400Y-130686400D01*
X182892200Y-124574800D02*
X182892200Y-124777000D01*
D32*
%TO.N,/D3*%
X149275000Y-67410000D02*
X149275000Y-63835000D01*
X144525001Y-72159999D02*
X149275000Y-67410000D01*
X141454001Y-72159999D02*
X144525001Y-72159999D01*
X140970000Y-72644000D02*
X141454001Y-72159999D01*
X138430000Y-77216000D02*
X140970000Y-77216000D01*
X134639522Y-81006478D02*
X138430000Y-77216000D01*
X116629549Y-81006478D02*
X134639522Y-81006478D01*
X115316000Y-82320027D02*
X116629549Y-81006478D01*
X115316000Y-100584000D02*
X115316000Y-82320027D01*
X114935000Y-100965000D02*
X115316000Y-100584000D01*
X108585000Y-100965000D02*
X114935000Y-100965000D01*
%TO.N,/~PPARITY*%
X138195000Y-59582000D02*
X137795000Y-59182000D01*
X138195000Y-63835000D02*
X138195000Y-59582000D01*
X102870000Y-97155000D02*
X107315000Y-97155000D01*
X101346000Y-95631000D02*
X102870000Y-97155000D01*
X107315000Y-97155000D02*
X108585000Y-95885000D01*
X101346000Y-73507600D02*
X101346000Y-95631000D01*
X103936800Y-70916800D02*
X101346000Y-73507600D01*
X103936800Y-70916800D02*
X114300000Y-70916800D01*
X114300000Y-70916800D02*
X114808000Y-70408800D01*
X114808000Y-70408800D02*
X114808000Y-60045600D01*
X115671600Y-59182000D02*
X137795000Y-59182000D01*
X114808000Y-60045600D02*
X115671600Y-59182000D01*
%TO.N,/~PBSY*%
X103124000Y-93472000D02*
X104267000Y-94615000D01*
X103124000Y-73812400D02*
X103124000Y-93472000D01*
X104546400Y-72390000D02*
X103124000Y-73812400D01*
X121920000Y-72390000D02*
X104546400Y-72390000D01*
X122936000Y-71374000D02*
X121920000Y-72390000D01*
X122936000Y-63246000D02*
X122936000Y-71374000D01*
X125222000Y-60960000D02*
X122936000Y-63246000D01*
X132655000Y-63835000D02*
X132638800Y-63818800D01*
X104267000Y-94615000D02*
X107315000Y-94615000D01*
X107315000Y-94615000D02*
X108585000Y-93345000D01*
X132638800Y-63818800D02*
X132638800Y-61010800D01*
X132588000Y-60960000D02*
X125222000Y-60960000D01*
X132638800Y-61010800D02*
X132588000Y-60960000D01*
%TO.N,/D6*%
X156200000Y-73416000D02*
X156200000Y-66675000D01*
X154940000Y-74676000D02*
X156200000Y-73416000D01*
X153162000Y-74676000D02*
X154940000Y-74676000D01*
X108712000Y-88138000D02*
X108585000Y-88265000D01*
X113411000Y-88265000D02*
X108585000Y-88265000D01*
X113792000Y-87884000D02*
X113411000Y-88265000D01*
X115824000Y-79502000D02*
X113792000Y-81534000D01*
X133604000Y-79502000D02*
X115824000Y-79502000D01*
X113792000Y-81534000D02*
X113792000Y-87884000D01*
X138430000Y-74676000D02*
X133604000Y-79502000D01*
X153162000Y-74676000D02*
X138430000Y-74676000D01*
%TO.N,/D2*%
X145110200Y-66675000D02*
X145120000Y-66675000D01*
X111633000Y-83185000D02*
X108585000Y-83185000D01*
X112268000Y-82550000D02*
X111633000Y-83185000D01*
X112268000Y-80792228D02*
X112268000Y-82550000D01*
X115082228Y-77978000D02*
X112268000Y-80792228D01*
X132842000Y-77978000D02*
X115082228Y-77978000D01*
X137160000Y-73660000D02*
X132842000Y-77978000D01*
X145120000Y-69002000D02*
X145120000Y-66675000D01*
X143256000Y-70866000D02*
X145120000Y-69002000D01*
X139954000Y-70866000D02*
X143256000Y-70866000D01*
X137160000Y-73660000D02*
X139954000Y-70866000D01*
%TO.N,/D1*%
X109855000Y-80645000D02*
X108585000Y-80645000D01*
X110871000Y-80645000D02*
X109855000Y-80645000D01*
X111379000Y-80645000D02*
X109855000Y-80645000D01*
X114808000Y-77216000D02*
X111379000Y-80645000D01*
X132334000Y-77216000D02*
X114808000Y-77216000D01*
X133096000Y-76454000D02*
X132334000Y-77216000D01*
X139580000Y-69970000D02*
X139580000Y-66675000D01*
X133096000Y-76454000D02*
X139580000Y-69970000D01*
%TO.N,/D4*%
X107295010Y-102254990D02*
X106045000Y-103505000D01*
X115677010Y-102254990D02*
X107295010Y-102254990D01*
X116078000Y-101854000D02*
X115677010Y-102254990D01*
X116078000Y-82559567D02*
X116078000Y-101854000D01*
X116915568Y-81721999D02*
X116078000Y-82559567D01*
X134987499Y-81721999D02*
X116915568Y-81721999D01*
X138477498Y-78232000D02*
X134987499Y-81721999D01*
X145034000Y-78232000D02*
X138477498Y-78232000D01*
X152179999Y-63969999D02*
X152045000Y-63835000D01*
X147612800Y-72910000D02*
X152179999Y-68342801D01*
X145034000Y-72910000D02*
X147612800Y-72910000D01*
X152179999Y-68342801D02*
X152179999Y-63969999D01*
%TO.N,/~PRES*%
X146507200Y-61920800D02*
X146505000Y-61923000D01*
X146507200Y-59740800D02*
X146507200Y-61920800D01*
X146505000Y-61923000D02*
X146505000Y-63835000D01*
X146507200Y-58775600D02*
X146507200Y-59740800D01*
X115409610Y-58427990D02*
X146159590Y-58427990D01*
X114096800Y-69494400D02*
X114096800Y-59740800D01*
X113487200Y-70104000D02*
X114096800Y-69494400D01*
X103733600Y-70104000D02*
X113487200Y-70104000D01*
X100591990Y-73245610D02*
X103733600Y-70104000D01*
X114096800Y-59740800D02*
X115409610Y-58427990D01*
X100591990Y-99829990D02*
X100591990Y-73245610D01*
X146159590Y-58427990D02*
X146507200Y-58775600D01*
X101727000Y-100965000D02*
X100591990Y-99829990D01*
X106045000Y-100965000D02*
X101727000Y-100965000D01*
%TO.N,/~PCMD*%
X135425000Y-63835000D02*
X135483600Y-63776400D01*
X135483600Y-63776400D02*
X135483600Y-60045600D01*
X135483600Y-60045600D02*
X135382000Y-59944000D01*
X122326400Y-62890400D02*
X125171200Y-60045600D01*
X125171200Y-60045600D02*
X135483600Y-60045600D01*
X122326400Y-70916800D02*
X122326400Y-62890400D01*
X121615200Y-71628000D02*
X122326400Y-70916800D01*
X104140000Y-71628000D02*
X121615200Y-71628000D01*
X102108000Y-94488000D02*
X102108000Y-73660000D01*
X102108000Y-73660000D02*
X104140000Y-71628000D01*
X103505000Y-95885000D02*
X102108000Y-94488000D01*
X106045000Y-95885000D02*
X103505000Y-95885000D01*
%TO.N,/~PSTRB*%
X104140000Y-92456000D02*
X105029000Y-93345000D01*
X104140000Y-74015600D02*
X104140000Y-92456000D01*
X104952800Y-73202800D02*
X104140000Y-74015600D01*
X122428000Y-73202800D02*
X104952800Y-73202800D01*
X125272800Y-61925200D02*
X123596400Y-63601600D01*
X129885000Y-63835000D02*
X129794000Y-63744000D01*
X129794000Y-63744000D02*
X129794000Y-61925200D01*
X123596400Y-72034400D02*
X122428000Y-73202800D01*
X129794000Y-61925200D02*
X125272800Y-61925200D01*
X105029000Y-93345000D02*
X106045000Y-93345000D01*
X123596400Y-63601600D02*
X123596400Y-72034400D01*
%TO.N,/D7*%
X107236260Y-89524840D02*
X109522260Y-89524840D01*
X107245001Y-89604999D02*
X107245001Y-89560400D01*
X106045000Y-90805000D02*
X107245001Y-89604999D01*
X159004000Y-66709000D02*
X158970000Y-66675000D01*
X159004000Y-74930000D02*
X159004000Y-66709000D01*
X158242000Y-75692000D02*
X159004000Y-74930000D01*
X157988000Y-75692000D02*
X158242000Y-75692000D01*
X157563736Y-75692000D02*
X157988000Y-75692000D01*
X138684000Y-75692000D02*
X157988000Y-75692000D01*
X134112000Y-80264000D02*
X138684000Y-75692000D01*
X114554000Y-81979485D02*
X116269485Y-80264000D01*
X116269485Y-80264000D02*
X134112000Y-80264000D01*
X114554000Y-89154000D02*
X114554000Y-81979485D01*
X114170460Y-89537540D02*
X114554000Y-89154000D01*
X109524800Y-89537540D02*
X114170460Y-89537540D01*
%TO.N,/D5*%
X149098000Y-73660000D02*
X151638000Y-73660000D01*
X153430000Y-71868000D02*
X153430000Y-66675000D01*
X151638000Y-73660000D02*
X153430000Y-71868000D01*
X148532315Y-73660000D02*
X149098000Y-73660000D01*
X138430000Y-73660000D02*
X148532315Y-73660000D01*
X115316000Y-78740000D02*
X133350000Y-78740000D01*
X113030000Y-86614000D02*
X113030000Y-81026000D01*
X112649000Y-86995000D02*
X113030000Y-86614000D01*
X107315000Y-86995000D02*
X112649000Y-86995000D01*
X133350000Y-78740000D02*
X138430000Y-73660000D01*
X113030000Y-81026000D02*
X115316000Y-78740000D01*
X106045000Y-88265000D02*
X107315000Y-86995000D01*
%TO.N,/D0*%
X107315000Y-79375000D02*
X106045000Y-80645000D01*
X111633000Y-79375000D02*
X107315000Y-79375000D01*
X114554000Y-76454000D02*
X111633000Y-79375000D01*
X129032000Y-76454000D02*
X114554000Y-76454000D01*
X136810000Y-69184000D02*
X136810000Y-66675000D01*
X136810000Y-71470000D02*
X136810000Y-69184000D01*
X131826000Y-76454000D02*
X136810000Y-71470000D01*
X129032000Y-76454000D02*
X131826000Y-76454000D01*
%TO.N,/PR~W*%
X113157000Y-76835000D02*
X107315000Y-76835000D01*
X114300000Y-75692000D02*
X113157000Y-76835000D01*
X107315000Y-76835000D02*
X106045000Y-78105000D01*
X124968000Y-75692000D02*
X114300000Y-75692000D01*
X131270000Y-69136000D02*
X131270000Y-66675000D01*
X131270000Y-74978000D02*
X131270000Y-69136000D01*
X130556000Y-75692000D02*
X131270000Y-74978000D01*
X124968000Y-75692000D02*
X130556000Y-75692000D01*
%TO.N,/SD_MISO*%
X187711400Y-131881400D02*
X187711400Y-129647000D01*
X187711400Y-129647000D02*
X187350400Y-129286000D01*
X187350400Y-129286000D02*
X181660800Y-129286000D01*
X181242200Y-128867400D02*
X181242200Y-126492000D01*
X181660800Y-129286000D02*
X181242200Y-128867400D01*
X179951380Y-97282000D02*
X182981600Y-97282000D01*
X179174140Y-98059240D02*
X179951380Y-97282000D01*
X179174140Y-126118620D02*
X179174140Y-98059240D01*
X179547520Y-126492000D02*
X179174140Y-126118620D01*
X181242200Y-126492000D02*
X179547520Y-126492000D01*
%TO.N,/SD_SCK*%
X181230000Y-123139200D02*
X181305200Y-123139200D01*
X181230000Y-121507520D02*
X181230000Y-123139200D01*
X181325520Y-121412000D02*
X181230000Y-121507520D01*
X179881599Y-121088219D02*
X179881599Y-105268961D01*
X180205380Y-121412000D02*
X179881599Y-121088219D01*
X179881599Y-105268961D02*
X180248560Y-104902000D01*
X183459120Y-121412000D02*
X180205380Y-121412000D01*
X184228521Y-122181401D02*
X183459120Y-121412000D01*
X184228521Y-124053381D02*
X184228521Y-122181401D01*
X184581120Y-124405980D02*
X184228521Y-124053381D01*
X180248560Y-104902000D02*
X182981600Y-104902000D01*
X187372580Y-124405980D02*
X184581120Y-124405980D01*
X189911400Y-126944800D02*
X187372580Y-124405980D01*
X189911400Y-131881400D02*
X189911400Y-126944800D01*
%TO.N,/SD_MOSI*%
X192111400Y-131881400D02*
X192111400Y-127369800D01*
X192111400Y-127369800D02*
X192542610Y-126938590D01*
X192542610Y-126938590D02*
X199553010Y-126938590D01*
X199553010Y-126938590D02*
X199835000Y-126656600D01*
D33*
X199824140Y-126400060D02*
X199821800Y-126402400D01*
X199835000Y-126400060D02*
X199824140Y-126400060D01*
D32*
X199835000Y-126656600D02*
X199835000Y-126400060D01*
X199835000Y-126400060D02*
X199835000Y-125183400D01*
X182981600Y-114018060D02*
X182981600Y-107442000D01*
X184264300Y-115300760D02*
X182981600Y-114018060D01*
X201119740Y-115300760D02*
X184264300Y-115300760D01*
X201918000Y-116099020D02*
X201119740Y-115300760D01*
X201918000Y-126398020D02*
X201918000Y-116099020D01*
%TO.N,/SD_CS*%
X193211400Y-131881400D02*
X193211400Y-130587800D01*
X193332600Y-130466600D02*
X199847200Y-130466600D01*
X193211400Y-130587800D02*
X193332600Y-130466600D01*
X184281601Y-113461321D02*
X184281601Y-101122001D01*
X185224420Y-114404140D02*
X184281601Y-113461321D01*
X201937620Y-114404140D02*
X185224420Y-114404140D01*
X184281601Y-101122001D02*
X182981600Y-99822000D01*
X202668001Y-115134521D02*
X201937620Y-114404140D01*
X202668001Y-127645799D02*
X202668001Y-115134521D01*
X199847200Y-130466600D02*
X202668001Y-127645799D01*
%TO.N,/PD0*%
X141986000Y-121314000D02*
X141986000Y-119380000D01*
X143256000Y-98806000D02*
X143256000Y-96266000D01*
X121920000Y-93980000D02*
X122936000Y-93980000D01*
X122555000Y-91059000D02*
X121920000Y-91694000D01*
X122555000Y-84455000D02*
X122555000Y-91059000D01*
X128524000Y-84328000D02*
X122682000Y-84328000D01*
X129177999Y-83674001D02*
X128524000Y-84328000D01*
X142348001Y-83674001D02*
X129177999Y-83674001D01*
X121920000Y-91694000D02*
X121920000Y-93980000D01*
X122682000Y-84328000D02*
X122555000Y-84455000D01*
X143256000Y-84582000D02*
X142348001Y-83674001D01*
X143256000Y-96266000D02*
X143256000Y-84582000D01*
%TO.N,/PD1*%
X143256000Y-105566000D02*
X143256000Y-103886000D01*
X143002000Y-103632000D02*
X140208000Y-103632000D01*
X143256000Y-103886000D02*
X143002000Y-103632000D01*
X121158000Y-95250000D02*
X122936000Y-95250000D01*
X121031000Y-95123000D02*
X121158000Y-95250000D01*
X121031000Y-95123000D02*
X121031000Y-91313000D01*
X121666000Y-90678000D02*
X121666000Y-85090000D01*
X121031000Y-91313000D02*
X121666000Y-90678000D01*
X144526000Y-112014000D02*
X144526000Y-110337600D01*
X144526000Y-107442000D02*
X144424400Y-107442000D01*
X143256000Y-106273600D02*
X143256000Y-105566000D01*
X144424400Y-107442000D02*
X143256000Y-106273600D01*
X134620000Y-85090000D02*
X137922000Y-88392000D01*
X133096000Y-85090000D02*
X134620000Y-85090000D01*
X137922000Y-88392000D02*
X137922000Y-103632000D01*
%TO.N,/PD2*%
X120777000Y-96520000D02*
X122936000Y-96520000D01*
X120396000Y-96139000D02*
X120777000Y-96520000D01*
X120396000Y-96139000D02*
X120396000Y-85725000D01*
X145796000Y-106222800D02*
X145796000Y-105566000D01*
X147066000Y-107492800D02*
X145796000Y-106222800D01*
X147066000Y-112014000D02*
X147066000Y-110388450D01*
X147066000Y-110388450D02*
X147065975Y-110388425D01*
X145796000Y-103378000D02*
X145796000Y-105566000D01*
X140938335Y-102616000D02*
X145034000Y-102616000D01*
X139127135Y-84517135D02*
X139615978Y-85005978D01*
X145034000Y-102616000D02*
X145796000Y-103378000D01*
X139615978Y-85005978D02*
X139615978Y-101293643D01*
X137169359Y-84582000D02*
X137234224Y-84517135D01*
X137234224Y-84517135D02*
X139127135Y-84517135D01*
X139615978Y-101293643D02*
X140938335Y-102616000D01*
%TO.N,/PD3*%
X141024878Y-101854000D02*
X140215989Y-101045111D01*
X147574000Y-101854000D02*
X141024878Y-101854000D01*
X148336000Y-102616000D02*
X147574000Y-101854000D01*
X148336000Y-105566000D02*
X148336000Y-102616000D01*
X140215989Y-101045111D02*
X140215989Y-86733011D01*
X140215989Y-86733011D02*
X140970000Y-85979000D01*
X148336000Y-106169544D02*
X148336000Y-105566000D01*
X149608456Y-107442000D02*
X148336000Y-106169544D01*
X149656800Y-107442000D02*
X149608456Y-107442000D01*
X149606000Y-112014000D02*
X149606000Y-110337600D01*
X119595001Y-94653999D02*
X119595001Y-86956001D01*
X119595001Y-97624001D02*
X119595001Y-94653999D01*
X119761000Y-97790000D02*
X119595001Y-97624001D01*
X122936000Y-97790000D02*
X119761000Y-97790000D01*
%TO.N,/PD4*%
X141111420Y-101092000D02*
X140823991Y-100804571D01*
X150876000Y-102616000D02*
X149352000Y-101092000D01*
X140823991Y-87687989D02*
X141223990Y-87287990D01*
X140823991Y-100804571D02*
X140823991Y-87687989D01*
X149352000Y-101092000D02*
X141111420Y-101092000D01*
X150876000Y-105566000D02*
X150876000Y-102616000D01*
X119380000Y-99060000D02*
X122936000Y-99060000D01*
X118745000Y-98425000D02*
X119380000Y-99060000D01*
X118745000Y-88011000D02*
X118745000Y-98425000D01*
X150876000Y-106222800D02*
X150876000Y-105566000D01*
X152146000Y-107492800D02*
X150876000Y-106222800D01*
X152146000Y-112014000D02*
X152146000Y-110337584D01*
%TO.N,/PD5*%
X144526000Y-121314000D02*
X144526000Y-120289000D01*
X144526000Y-121314000D02*
X144526000Y-119380000D01*
X145796000Y-96266000D02*
X145796000Y-99060000D01*
X117856000Y-100076000D02*
X117856000Y-88900000D01*
X118110000Y-100330000D02*
X117856000Y-100076000D01*
X122936000Y-100330000D02*
X118110000Y-100330000D01*
X145796000Y-96266000D02*
X145796000Y-88049990D01*
%TO.N,/PD6*%
X147066000Y-121314000D02*
X147066000Y-119634000D01*
X148336000Y-98044000D02*
X148336000Y-96266000D01*
X127886000Y-101600000D02*
X124968000Y-101600000D01*
X148336000Y-89002807D02*
X148321203Y-88988010D01*
X148336000Y-96266000D02*
X148336000Y-89002807D01*
X124714000Y-101346000D02*
X124714000Y-88988010D01*
X124968000Y-101600000D02*
X124714000Y-101346000D01*
%TO.N,/PD7*%
X149733000Y-120728000D02*
X149733000Y-121753000D01*
X128861000Y-100330000D02*
X127886000Y-100330000D01*
X149733000Y-120728000D02*
X149733000Y-119253000D01*
X149733000Y-119253000D02*
X149860000Y-119126000D01*
X127886000Y-100330000D02*
X125730000Y-100330000D01*
X125730000Y-90170000D02*
X125314010Y-90585990D01*
X125314010Y-99914010D02*
X125730000Y-100330000D01*
X125314010Y-90585990D02*
X125314010Y-99914010D01*
X150876000Y-96266000D02*
X150876000Y-98805994D01*
X150876000Y-96266000D02*
X150876000Y-89865200D01*
%TO.N,Net-(U1-Pad6)*%
X128861000Y-95250000D02*
X130048000Y-94063000D01*
X127886000Y-95250000D02*
X128861000Y-95250000D01*
X130048000Y-94063000D02*
X130048000Y-92100400D01*
%TO.N,/OD7*%
X149606000Y-105566000D02*
X149606000Y-103631994D01*
X157632400Y-97840800D02*
X157632400Y-82499200D01*
X158089600Y-82042000D02*
X182981600Y-82042000D01*
X157632400Y-82499200D02*
X158089600Y-82042000D01*
%TO.N,/OD6*%
X147066000Y-105566000D02*
X147066000Y-103124000D01*
X156819600Y-97028000D02*
X156819600Y-81657628D01*
X157378400Y-81098828D02*
X159489972Y-81098828D01*
X156819600Y-81657628D02*
X157378400Y-81098828D01*
X161086800Y-79502000D02*
X182981600Y-79502000D01*
X159489972Y-81098828D02*
X161086800Y-79502000D01*
%TO.N,/OD5*%
X144526000Y-105566000D02*
X144526000Y-103631996D01*
X182626000Y-74066400D02*
X182981600Y-74422000D01*
X178206400Y-78282800D02*
X178663600Y-77825600D01*
X161366200Y-78282800D02*
X178206400Y-78282800D01*
X159150182Y-80498818D02*
X161366200Y-78282800D01*
X156311601Y-80498818D02*
X159150182Y-80498818D01*
X156006800Y-80803619D02*
X156311601Y-80498818D01*
X156006800Y-96012000D02*
X156006800Y-80803619D01*
X178663600Y-77825600D02*
X178663600Y-74472800D01*
X178714400Y-74422000D02*
X182981600Y-74422000D01*
X178663600Y-74472800D02*
X178714400Y-74422000D01*
%TO.N,/OD4*%
X164236400Y-71882000D02*
X182981600Y-71882000D01*
X163372800Y-72745600D02*
X164236400Y-71882000D01*
X163372800Y-75225368D02*
X163372800Y-72745600D01*
X158699359Y-79898809D02*
X163372800Y-75225368D01*
X152917590Y-79898810D02*
X158699359Y-79898809D01*
X152146000Y-80670400D02*
X152917590Y-79898810D01*
X152146000Y-96266000D02*
X152146000Y-80670400D01*
%TO.N,/OD3*%
X162966400Y-70510400D02*
X178562000Y-70510400D01*
X179730400Y-69342000D02*
X182981600Y-69342000D01*
X162712400Y-70764400D02*
X162966400Y-70510400D01*
X162712400Y-75037226D02*
X162712400Y-70764400D01*
X150926800Y-79298800D02*
X158450826Y-79298800D01*
X149606000Y-80619600D02*
X150926800Y-79298800D01*
X178562000Y-70510400D02*
X179730400Y-69342000D01*
X158450826Y-79298800D02*
X162712400Y-75037226D01*
X149606000Y-96266000D02*
X149606000Y-80619600D01*
%TO.N,/OD2*%
X147066000Y-96266000D02*
X147066000Y-80467200D01*
X180035200Y-66802000D02*
X182981600Y-66802000D01*
X162317093Y-69046791D02*
X177790410Y-69046790D01*
X158364284Y-78536800D02*
X162042411Y-74858674D01*
X148996400Y-78536800D02*
X158364284Y-78536800D01*
X147066000Y-80467200D02*
X148996400Y-78536800D01*
X162042411Y-69321473D02*
X162317093Y-69046791D01*
X162042411Y-74858674D02*
X162042411Y-69321473D01*
X177790410Y-69046790D02*
X180035200Y-66802000D01*
%TO.N,/OD1*%
X178968400Y-63965198D02*
X181211598Y-61722000D01*
X178968400Y-65735200D02*
X178968400Y-63965198D01*
X181211598Y-61722000D02*
X182981600Y-61722000D01*
X176256820Y-68446780D02*
X178968400Y-65735200D01*
X161442400Y-69072942D02*
X162068562Y-68446780D01*
X161442400Y-74610142D02*
X161442400Y-69072942D01*
X162068562Y-68446780D02*
X176256820Y-68446780D01*
X148209000Y-77724000D02*
X158328542Y-77724000D01*
X158328542Y-77724000D02*
X161442400Y-74610142D01*
X144526000Y-81407000D02*
X148209000Y-77724000D01*
X144526000Y-96266000D02*
X144526000Y-81407000D01*
%TO.N,/OD0*%
X139348000Y-105566000D02*
X141986000Y-105566000D01*
X138847948Y-105065948D02*
X139348000Y-105566000D01*
X138847948Y-85761948D02*
X138847948Y-105065948D01*
X179679600Y-59182000D02*
X182981600Y-59182000D01*
X177749200Y-61112400D02*
X179679600Y-59182000D01*
X175485230Y-67846770D02*
X177749200Y-65582800D01*
X177749200Y-65582800D02*
X177749200Y-61112400D01*
X160629600Y-74574400D02*
X160629600Y-69037200D01*
X161820030Y-67846770D02*
X175485230Y-67846770D01*
X158486411Y-76717589D02*
X160629600Y-74574400D01*
X148366868Y-76717589D02*
X158486411Y-76717589D01*
X160629600Y-69037200D02*
X161820030Y-67846770D01*
X145836457Y-79248000D02*
X148366868Y-76717589D01*
X138938000Y-79248000D02*
X145836457Y-79248000D01*
%TO.N,/ID0*%
X143256000Y-112014000D02*
X143256000Y-115824000D01*
X143510000Y-116078000D02*
X143256000Y-115824000D01*
X144526000Y-116078000D02*
X143510000Y-116078000D01*
X152552400Y-127457220D02*
X147828020Y-127457220D01*
X147828020Y-127457220D02*
X147828000Y-127457200D01*
X204322000Y-107442000D02*
X200761600Y-107442000D01*
X204597200Y-126488800D02*
X204597200Y-107717200D01*
X204597200Y-107717200D02*
X204322000Y-107442000D01*
X204559600Y-126526400D02*
X204597200Y-126488800D01*
%TO.N,/ID1*%
X145745200Y-129844800D02*
X152755600Y-129844800D01*
X153466800Y-129133600D02*
X153466800Y-127773990D01*
X152755600Y-129844800D02*
X153466800Y-129133600D01*
X143256000Y-127355600D02*
X145745200Y-129844800D01*
X143256000Y-121314000D02*
X143256000Y-127355600D01*
X205474000Y-127136000D02*
X205474000Y-105422000D01*
X204954000Y-104902000D02*
X200761600Y-104902000D01*
X205474000Y-105422000D02*
X204954000Y-104902000D01*
%TO.N,/ID2*%
X145819559Y-121337559D02*
X145796000Y-121314000D01*
X146354800Y-128524000D02*
X152438800Y-128524000D01*
X145796000Y-127965200D02*
X146354800Y-128524000D01*
X145796000Y-121314000D02*
X145796000Y-127965200D01*
X206388400Y-127685200D02*
X206397200Y-127694000D01*
X206388400Y-100402800D02*
X206388400Y-127685200D01*
X206397200Y-100394000D02*
X206388400Y-100402800D01*
X206397200Y-100094000D02*
X206397200Y-100394000D01*
X206125200Y-99822000D02*
X206397200Y-100094000D01*
X200761600Y-99822000D02*
X206125200Y-99822000D01*
%TO.N,/ID3*%
X148742400Y-126644400D02*
X151676800Y-126644400D01*
X148336000Y-126238000D02*
X148742400Y-126644400D01*
X148336000Y-121314000D02*
X148336000Y-126238000D01*
X206959200Y-97282000D02*
X200761600Y-97282000D01*
X207297200Y-97620000D02*
X206959200Y-97282000D01*
X207297200Y-128294000D02*
X207297200Y-97620000D01*
%TO.N,/ID4*%
X150926800Y-121364800D02*
X150876000Y-121314000D01*
X150926800Y-123545600D02*
X150926800Y-121364800D01*
X207670400Y-94742000D02*
X200761600Y-94742000D01*
X208187990Y-95259590D02*
X207670400Y-94742000D01*
X208187990Y-128894000D02*
X208187990Y-95259590D01*
X208187990Y-128894000D02*
X208187990Y-128884790D01*
%TO.N,/ID5*%
X145796000Y-117475000D02*
X145796000Y-112014000D01*
X149479000Y-117475000D02*
X145796000Y-117475000D01*
X151841200Y-130822000D02*
X149136794Y-130822000D01*
X149136794Y-130822000D02*
X149097994Y-130860800D01*
X208026000Y-92202000D02*
X200761600Y-92202000D01*
X209097200Y-93273200D02*
X208026000Y-92202000D01*
X209097200Y-129494000D02*
X209097200Y-93273200D01*
%TO.N,/ID6*%
X148336000Y-115221998D02*
X148336000Y-112014000D01*
X150495000Y-116586000D02*
X149700002Y-116586000D01*
X149700002Y-116586000D02*
X148336000Y-115221998D01*
X150749000Y-116840000D02*
X150495000Y-116586000D01*
X150749000Y-119380000D02*
X150749000Y-116840000D01*
X209346800Y-87122000D02*
X200761600Y-87122000D01*
X209997200Y-87772400D02*
X209346800Y-87122000D01*
X209997200Y-130094000D02*
X209997200Y-87772400D01*
%TO.N,/ID7*%
X155067000Y-132359400D02*
X155092400Y-132384800D01*
X155092400Y-124739400D02*
X155117800Y-124714000D01*
X155092400Y-132384800D02*
X155092400Y-124739400D01*
X150876000Y-115697000D02*
X150876000Y-112014000D01*
X154051000Y-115951000D02*
X151130000Y-115951000D01*
X155117800Y-117017800D02*
X154051000Y-115951000D01*
X151130000Y-115951000D02*
X150876000Y-115697000D01*
X155117800Y-122250200D02*
X155117800Y-117017800D01*
X210897200Y-130694000D02*
X210897200Y-87458280D01*
X205480920Y-82042000D02*
X200761600Y-82042000D01*
X210897200Y-87458280D02*
X210861480Y-87458280D01*
X210861480Y-87458280D02*
X209697200Y-86294000D01*
X209697200Y-86294000D02*
X206997200Y-86294000D01*
X206997200Y-86294000D02*
X206397200Y-85694000D01*
X206397200Y-85694000D02*
X206397200Y-82394000D01*
X206045200Y-82042000D02*
X205480920Y-82042000D01*
X206397200Y-82394000D02*
X206045200Y-82042000D01*
D37*
%TO.N,+5VL*%
X195572601Y-57031999D02*
X176343201Y-57031999D01*
X196796601Y-58255999D02*
X195572601Y-57031999D01*
X196796601Y-60368001D02*
X196796601Y-58255999D01*
X198150600Y-61722000D02*
X196796601Y-60368001D01*
X200761600Y-61722000D02*
X198150600Y-61722000D01*
X176343201Y-57031999D02*
X172415200Y-60960000D01*
X172415200Y-60960000D02*
X172415200Y-64617600D01*
D35*
X164744400Y-73101200D02*
X164439600Y-73406000D01*
X172415200Y-73101200D02*
X164744400Y-73101200D01*
X153488000Y-105638000D02*
X153416000Y-105566000D01*
X156718000Y-105638000D02*
X153488000Y-105638000D01*
X156718000Y-105638000D02*
X159664400Y-102691600D01*
X159664400Y-102691600D02*
X159664400Y-93319600D01*
D37*
X200761600Y-61722000D02*
X204470000Y-61722000D01*
D35*
X204484320Y-61736320D02*
X204470000Y-61722000D01*
X206151480Y-61736320D02*
X204484320Y-61736320D01*
X121361200Y-106324400D02*
X121361200Y-105330000D01*
X121361200Y-105330000D02*
X122805200Y-103886000D01*
D36*
X124701000Y-103886000D02*
X122805200Y-103886000D01*
X122805200Y-103886000D02*
X122805200Y-101730800D01*
D32*
%TO.N,/~R~W*%
X152146000Y-105566000D02*
X152146000Y-99568000D01*
X152146000Y-99568000D02*
X153416000Y-98298000D01*
X151765000Y-99949000D02*
X152146000Y-99568000D01*
X142367000Y-99949000D02*
X151765000Y-99949000D01*
X153416000Y-98298000D02*
X153416000Y-98094800D01*
X153416000Y-98094800D02*
X153416000Y-96266000D01*
X158714390Y-87360810D02*
X158953200Y-87122000D01*
X158714390Y-98130410D02*
X158714390Y-87360810D01*
X158953200Y-87122000D02*
X182981600Y-87122000D01*
X158253999Y-98590801D02*
X158714390Y-98130410D01*
X153912001Y-98590801D02*
X158253999Y-98590801D01*
X153416000Y-98094800D02*
X153912001Y-98590801D01*
%TO.N,/BSY*%
X164795200Y-84582000D02*
X182981600Y-84582000D01*
X163880800Y-83667600D02*
X164795200Y-84582000D01*
%TO.N,Net-(R16-Pad2)*%
X117602000Y-109728000D02*
X116840000Y-108966000D01*
X116840000Y-108966000D02*
X116840000Y-82804000D01*
X116840000Y-82804000D02*
X117171991Y-82472009D01*
X122478800Y-109728000D02*
X117602000Y-109728000D01*
X117171991Y-82472009D02*
X121794000Y-82472009D01*
%TO.N,/PCHK*%
X99991980Y-72778820D02*
X103530400Y-69240400D01*
X99991980Y-105325980D02*
X99991980Y-72778820D01*
X100711000Y-106045000D02*
X99991980Y-105325980D01*
X106045000Y-106045000D02*
X100711000Y-106045000D01*
X157585000Y-58474200D02*
X157585000Y-63835000D01*
X156938780Y-57827980D02*
X157585000Y-58474200D01*
X114942820Y-57827980D02*
X156938780Y-57827980D01*
X113588800Y-59182000D02*
X114942820Y-57827980D01*
X103530400Y-69240400D02*
X112776000Y-69240400D01*
X112776000Y-69240400D02*
X113334800Y-68681600D01*
X113334800Y-59436000D02*
X114942820Y-57827980D01*
X113334800Y-68681600D02*
X113334800Y-59436000D01*
%TO.N,Net-(D1-Pad2)*%
X212166200Y-71374000D02*
X212166200Y-71043800D01*
X212166200Y-76357480D02*
X211957920Y-76565760D01*
D37*
X212166200Y-71374000D02*
X212166200Y-76357480D01*
D35*
X206151480Y-66294000D02*
X206151480Y-64536320D01*
D37*
X206151480Y-69469000D02*
X206151480Y-66136520D01*
X208056480Y-71374000D02*
X206151480Y-69469000D01*
X212166200Y-71374000D02*
X208056480Y-71374000D01*
%TD*%
M02*
