M48
; DRILL file {KiCad (5.1.10)-1} date 08/27/21 13:44:59
; FORMAT={-:-/ absolute / metric / decimal}
; #@! TF.CreationDate,2021-08-27T13:44:59+02:00
; #@! TF.GenerationSoftware,Kicad,Pcbnew,(5.1.10)-1
; #@! TF.FileFunction,Plated,1,2,PTH
FMAT,2
METRIC
T1C0.300
T2C0.400
T3C0.600
T4C1.000
T5C1.020
T6C1.400
T7C3.000
T8C3.200
%
G90
G05
T1
X121.794Y-82.472
X122.479Y-109.728
X124.968Y-75.692
X129.032Y-76.454
X129.083Y-83.769
X129.794Y-61.925
X130.048Y-92.1
X132.639Y-61.011
X133.096Y-76.454
X133.096Y-85.09
X135.484Y-60.046
X137.16Y-73.66
X137.169Y-84.582
X137.922Y-103.632
X138.848Y-85.762
X138.938Y-79.248
X140.208Y-103.632
X140.97Y-72.644
X140.97Y-77.216
X140.97Y-85.979
X141.224Y-87.288
X141.986Y-98.095
X141.986Y-119.38
X142.367Y-99.949
X143.256Y-98.806
X144.526Y-103.632
X144.526Y-107.442
X144.526Y-110.338
X144.526Y-116.078
X144.526Y-119.38
X145.034Y-72.91
X145.034Y-78.232
X145.796Y-88.05
X145.796Y-99.06
X146.507Y-59.741
X147.066Y-110.388
X147.066Y-103.124
X147.066Y-107.493
X147.066Y-119.634
X147.828Y-127.457
X148.321Y-88.988
X148.336Y-98.044
X149.098Y-130.861
X149.098Y-73.66
X149.479Y-117.475
X149.606Y-103.632
X149.606Y-110.338
X149.657Y-107.442
X149.86Y-119.126
X150.749Y-119.38
X150.876Y-89.865
X150.876Y-98.806
X150.927Y-123.546
X151.677Y-126.644
X151.841Y-130.822
X152.146Y-107.493
X152.146Y-110.338
X152.439Y-128.524
X152.552Y-127.457
X153.162Y-74.676
X153.467Y-127.774
X155.092Y-132.385
X155.118Y-122.25
X155.118Y-124.714
X155.651Y-101.956
X156.007Y-96.012
X156.82Y-97.028
X157.632Y-97.841
X157.988Y-75.692
X159.664Y-93.32
X163.881Y-83.668
X169.57Y-77.318
X196.444Y-86.411
X199.822Y-126.402
X201.918Y-126.398
X204.56Y-126.526
X205.474Y-127.136
X206.388Y-127.685
X207.297Y-128.294
X208.188Y-128.885
X209.097Y-129.494
X209.997Y-130.094
X210.897Y-130.694
T2
X117.856Y-88.9
X118.745Y-88.011
X119.507Y-86.868
X120.396Y-85.725
X121.666Y-85.09
X124.714Y-88.988
X125.73Y-90.17
T3
X121.361Y-106.324
X121.412Y-108.458
X130.454Y-110.592
X134.518Y-98.095
X139.954Y-112.014
X152.959Y-118.516
X153.467Y-123.393
X153.67Y-114.148
X164.44Y-73.406
X170.028Y-74.524
X172.415Y-64.618
X172.415Y-73.101
X175.412Y-77.013
X175.971Y-123.393
X176.073Y-109.017
X182.892Y-124.575
X186.734Y-126.067
X188.265Y-80.67
X188.316Y-77.064
X190.652Y-64.262
X191.008Y-122.479
X195.326Y-125.73
X195.834Y-69.342
X196.444Y-80.162
X196.444Y-112.573
T4
X106.045Y-75.565
X106.045Y-78.105
X106.045Y-80.645
X106.045Y-83.185
X106.045Y-85.725
X106.045Y-88.265
X106.045Y-90.805
X106.045Y-93.345
X106.045Y-95.885
X106.045Y-98.425
X106.045Y-100.965
X106.045Y-103.505
X106.045Y-106.045
X108.585Y-75.565
X108.585Y-78.105
X108.585Y-80.645
X108.585Y-83.185
X108.585Y-85.725
X108.585Y-88.265
X108.585Y-90.805
X108.585Y-93.345
X108.585Y-95.885
X108.585Y-98.425
X108.585Y-100.965
X108.585Y-103.505
X108.585Y-106.045
X125.73Y-66.675
X127.115Y-63.835
X128.5Y-66.675
X129.885Y-63.835
X131.27Y-66.675
X132.655Y-63.835
X134.04Y-66.675
X135.425Y-63.835
X136.81Y-66.675
X138.195Y-63.835
X139.58Y-66.675
X140.965Y-63.835
X142.35Y-66.675
X143.735Y-63.835
X145.12Y-66.675
X146.505Y-63.835
X147.89Y-66.675
X149.275Y-63.835
X150.66Y-66.675
X152.045Y-63.835
X153.43Y-66.675
X154.815Y-63.835
X156.2Y-66.675
X157.585Y-63.835
X158.97Y-66.675
X170.536Y-93.269
X170.536Y-95.809
X170.536Y-98.349
X170.536Y-100.889
T5
X182.982Y-59.182
X182.982Y-61.722
X182.982Y-64.262
X182.982Y-66.802
X182.982Y-69.342
X182.982Y-71.882
X182.982Y-74.422
X182.982Y-76.962
X182.982Y-79.502
X182.982Y-82.042
X182.982Y-84.582
X182.982Y-87.122
X182.982Y-89.662
X182.982Y-92.202
X182.982Y-94.742
X182.982Y-97.282
X182.982Y-99.822
X182.982Y-102.362
X182.982Y-104.902
X182.982Y-107.442
X189.332Y-107.212
X191.872Y-107.212
X194.412Y-107.212
X200.762Y-59.182
X200.762Y-61.722
X200.762Y-64.262
X200.762Y-66.802
X200.762Y-69.342
X200.762Y-71.882
X200.762Y-74.422
X200.762Y-76.962
X200.762Y-79.502
X200.762Y-82.042
X200.762Y-84.582
X200.762Y-87.122
X200.762Y-89.662
X200.762Y-92.202
X200.762Y-94.742
X200.762Y-97.282
X200.762Y-99.822
X200.762Y-102.362
X200.762Y-104.902
X200.762Y-107.442
T6
X211.958Y-76.566
X211.958Y-81.646
T7
X106.997Y-125.994
X107.0Y-63.0
X215.0Y-63.0
X215.0Y-125.994
T8
X118.8Y-65.255
X165.9Y-65.255
T0
M30
